<?xml version="1.0" encoding="iso-8859-1"?>
<!-- Generator: Adobe Illustrator 23.0.6, SVG Export Plug-In . SVG Version: 6.00 Build 0)  -->
<svg version="1.1" id="Layer_1" xmlns="http://www.w3.org/2000/svg" xmlns:xlink="http://www.w3.org/1999/xlink" x="0px" y="0px"
	 viewBox="0 0 512 512" style="enable-background:new 0 0 512 512;" xml:space="preserve">
<path style="fill:#E4EAF6;" d="M494.345,459.034H17.655C7.904,459.034,0,451.13,0,441.379V35.31c0-9.751,7.904-17.655,17.655-17.655
	h476.69c9.751,0,17.655,7.904,17.655,17.655v406.069C512,451.129,504.095,459.034,494.345,459.034z"/>
<path style="fill:#FF6464;" d="M512,105.931H0V35.31c0-9.751,7.904-17.655,17.655-17.655h476.69c9.751,0,17.655,7.904,17.655,17.655
	V105.931z"/>
<circle style="fill:#D2555A;" cx="75.034" cy="57.379" r="26.483"/>
<path style="fill:#AFB9D2;" d="M75.034,70.621L75.034,70.621c-7.313,0-13.241-5.929-13.241-13.241V13.241
	C61.793,5.929,67.722,0,75.034,0l0,0c7.313,0,13.241,5.929,13.241,13.241v44.138C88.276,64.692,82.347,70.621,75.034,70.621z"/>
<circle style="fill:#D2555A;" cx="436.966" cy="57.379" r="26.483"/>
<path style="fill:#AFB9D2;" d="M436.966,70.621L436.966,70.621c-7.313,0-13.241-5.929-13.241-13.241V13.241
	C423.724,5.929,429.653,0,436.966,0l0,0c7.313,0,13.241,5.929,13.241,13.241v44.138C450.207,64.692,444.278,70.621,436.966,70.621z"
	/>
<path style="fill:#5B5D6E;" d="M496.439,316.2c-19.563-19.473-46.524-31.585-76.291-31.585c-29.76,0-56.693,12.112-76.173,31.585
	c-19.592,19.564-31.585,46.524-31.585,76.291c0,29.76,12.021,56.693,31.585,76.284c19.48,19.48,46.413,31.585,76.173,31.585
	c29.767,0,56.728-12.105,76.291-31.585c19.474-19.592,31.585-46.524,31.585-76.284C528.024,362.724,515.912,335.764,496.439,316.2z
	 M491.354,405.468h-69.702c-5.023,0-9.096-4.072-9.096-9.096v0V326.67c0-5.023,4.072-9.096,9.096-9.096s9.096,4.072,9.096,9.096
	v60.606h60.606c5.023,0,9.096,4.072,9.096,9.096v0C500.45,401.396,496.377,405.468,491.354,405.468z"/>
</svg>
