<?xml version="1.0" encoding="utf-8"?>
<!-- Generator: Adobe Illustrator 23.0.0, SVG Export Plug-In . SVG Version: 6.00 Build 0)  -->
<svg version="1.1" id="Capa_1" xmlns="http://www.w3.org/2000/svg" xmlns:xlink="http://www.w3.org/1999/xlink" x="0px" y="0px"
	 viewBox="0 0 201.97 201.97" style="enable-background:new 0 0 201.97 201.97;" xml:space="preserve">
<style type="text/css">
	.st0{fill:url(#SVGID_1_);}
</style>
<linearGradient id="SVGID_1_" gradientUnits="userSpaceOnUse" x1="160.043" y1="26.7141" x2="43.1992" y2="173.66">
	<stop  offset="0.0172" style="stop-color:#335EEA"/>
	<stop  offset="1" style="stop-color:#070477"/>
</linearGradient>
<path class="st0" d="M100.99,1.99c-54.68,0-99,44.32-99,99c0,54.68,44.32,99,99,99s99-44.32,99-99
	C199.99,46.31,155.66,1.99,100.99,1.99z M159.01,78.06L92.86,142.8c-2.49,2.43-5.77,3.77-9.24,3.77c-3.47,0-6.75-1.34-9.24-3.77
	l-31.41-30.69c-2.53-2.47-3.94-5.77-3.98-9.3c-0.04-3.53,1.3-6.86,3.76-9.39c2.51-2.57,5.86-3.98,9.45-3.98
	c3.47,0,6.75,1.34,9.24,3.76l22.17,21.65l56.91-55.69c2.48-2.43,5.77-3.77,9.24-3.77c3.59,0,6.94,1.41,9.45,3.97
	c2.47,2.52,3.81,5.86,3.77,9.39C162.94,72.29,161.53,75.59,159.01,78.06z"/>
</svg>
