<?xml version="1.0" encoding="iso-8859-1"?>
<!-- Generator: Adobe Illustrator 23.0.6, SVG Export Plug-In . SVG Version: 6.00 Build 0)  -->
<svg version="1.1" id="Capa_1" xmlns="http://www.w3.org/2000/svg" xmlns:xlink="http://www.w3.org/1999/xlink" x="0px" y="0px"
	 viewBox="-49 141 512 512" style="enable-background:new -49 141 512 512;" xml:space="preserve">
<path style="fill:#CAE8F9;" d="M325.525,231h-75v-75c0-8.401-6.599-15-15-15H-4c-24.902,0-45,20.099-45,45v422
	c0,24.899,20.098,45,45,45h299.525c24.902,0,45-20.101,45-45V246C340.525,237.599,333.926,231,325.525,231z"/>
<path style="fill:#B7E0F6;" d="M340.525,246v362c0,24.899-20.098,45-45,45h-150V141h90c8.401,0,15,6.599,15,15v75h75
	C333.926,231,340.525,237.599,340.525,246z"/>
<path style="fill:#CAE8F9;" d="M340.525,261h-105c-8.291,0-15-6.709-15-15V141h32.695c11.777,0,23.32,4.775,31.641,13.11
	l42.568,42.583c8.32,8.35,13.096,19.863,13.096,31.611V261z"/>
<path style="fill:#1689FC;" d="M449.726,301.8c-16.798-17.1-46.798-17.1-63.6,0l-15.3,15.601l-10.8,10.499
	c-6.002,5.7-6.002,15.3,0,21l21.299,21.301l21.302,21.299c5.398,6,15.601,6,20.999,0l10.8-10.499l15.3-15.601
	C467.425,348.599,467.425,318.599,449.726,301.8z"/>
<path style="fill:#FEDBAB;" d="M278.724,472.8l-30.901-30.901c-0.597-0.599-1.198-0.599-1.798,0l-0.897,0.601
	c-1.802,1.8-3.003,3.9-3.604,6l-21.299,63.9c-2.102,5.999-0.3,11.699,3.6,15.3v0.298c4.2,3.9,9.899,5.4,15.3,3.301l63.9-21.301
	c2.102-0.601,4.2-1.8,5.999-3.6l0.601-0.601c0.601-0.599,0.601-1.199,0-1.8C299.726,493.8,288.926,482.999,278.724,472.8z"/>
<g>
	<path style="fill:#17ACE8;" d="M235.525,321H26c-19.797,0-19.797-30,0-30h209.525C255.323,291,255.323,321,235.525,321z"/>
	<path style="fill:#17ACE8;" d="M175.525,381H26c-19.797,0-19.797-30,0-30h149.525C195.323,351,195.323,381,175.525,381z"/>
	<path style="fill:#17ACE8;" d="M175.525,441H26c-19.797,0-19.797-30,0-30h149.525C195.323,411,195.323,441,175.525,441z"/>
	<path style="fill:#17ACE8;" d="M175.525,501H26c-19.797,0-19.797-30,0-30h149.525C195.323,471,195.323,501,175.525,501z"/>
	<path style="fill:#17ACE8;" d="M235.525,593h-90c-19.797,0-19.797-30,0-30h90C255.323,563,255.323,593,235.525,593z"/>
</g>
<path style="fill:#FEC478;" d="M278.724,472.8c10.203,10.199,21.002,21,30.901,31.199c0.601,0.601,0.601,1.201,0,1.8l-0.601,0.601
	c-1.798,1.8-3.896,2.999-5.999,3.6l-63.9,21.301c-5.402,2.098-11.1,0.599-15.3-3.301v-0.3L278.724,472.8z"/>
<path style="fill:#136EF1;" d="M449.726,365.399L434.425,381l-10.8,10.499c-5.398,6-15.601,6-20.999,0L381.325,370.2l68.401-68.401
	C467.425,318.599,467.425,348.599,449.726,365.399z"/>
<path style="fill:#FD003A;" d="M434.425,381l-10.8,10.499c-59.399,59.101-39.602,39.3-93.003,92.701
	c0,0.599-21.299,21.899-21.599,22.2c-1.798,1.8-3.896,2.999-5.999,3.6l-61.501-61.5c0.601-2.1,1.802-4.2,3.604-6
	c0.3-0.3,21.599-21.601,22.2-21.601c38.998-39,19.797-19.499,92.699-92.999l10.499-10.8L434.425,381z"/>
<path style="fill:#E50027;" d="M434.425,381l-10.8,10.499c-59.399,59.101-39.602,39.3-93.003,92.701
	c0,0.599-21.299,21.899-21.599,22.2c-1.798,1.8-3.896,2.999-5.999,3.6l-30.601-30.601L402.627,349.2L434.425,381z"/>
<g>
	<path style="fill:#1689FC;" d="M175.525,501h-30v-30h30C195.323,471,195.323,501,175.525,501z"/>
	<path style="fill:#1689FC;" d="M175.525,441h-30v-30h30C195.323,411,195.323,441,175.525,441z"/>
	<path style="fill:#1689FC;" d="M175.525,381h-30v-30h30C195.323,351,195.323,381,175.525,381z"/>
	<path style="fill:#1689FC;" d="M235.525,593h-90v-30h90C255.323,563,255.323,593,235.525,593z"/>
	<path style="fill:#1689FC;" d="M235.525,321h-90v-30h90C255.323,291,255.323,321,235.525,321z"/>
</g>
</svg>
