<?xml version="1.0" encoding="iso-8859-1"?>
<!-- Generator: Adobe Illustrator 23.0.6, SVG Export Plug-In . SVG Version: 6.00 Build 0)  -->
<svg version="1.1" id="Layer_1" xmlns="http://www.w3.org/2000/svg" xmlns:xlink="http://www.w3.org/1999/xlink" x="0px" y="0px"
	 viewBox="0 0 900 900" style="enable-background:new 0 0 900 900;" xml:space="preserve">
<path style="fill:#3083C9;" d="M310.765,437.866c-56.594-63.938-148.377-63.938-204.922,0c-56.595,63.873-56.595,167.561,0,231.433
	l102.469,115.774L310.765,669.3C367.376,605.427,367.376,501.739,310.765,437.866L310.765,437.866z M208.312,600.668
	c-36.406,0-65.865-29.524-65.865-65.865c0-36.407,29.458-65.865,65.865-65.865c36.342,0,65.866,29.458,65.866,65.865
	C274.177,571.144,244.653,600.668,208.312,600.668L208.312,600.668z M208.312,600.668"/>
<path style="fill:#ED8A19;" d="M651.81,837.27c-7.262,0-13.189-5.845-13.189-13.189c0-7.262,5.928-13.124,13.189-13.124h25.408
	c7.278,0,13.634,5.862,13.634,13.124c0,7.344-5.401,13.189-12.662,13.189v-13.189l-0.395,13.189H651.81z M599.135,837.27h-26.379
	c-7.262,0-13.173-5.845-13.173-13.189c0-7.262,5.911-13.124,13.173-13.124h26.379c7.261,0,13.189,5.862,13.189,13.124
	C612.324,831.425,606.396,837.27,599.135,837.27L599.135,837.27z M520.08,837.27h-26.362c-7.278,0-13.124-5.845-13.124-13.189
	c0-7.262,5.845-13.124,13.124-13.124h26.362c7.278,0,13.189,5.862,13.189,13.124C533.27,831.425,527.359,837.27,520.08,837.27
	L520.08,837.27z M441.026,837.27h-26.297c-7.344,0-13.189-5.845-13.189-13.189c0-7.262,5.845-13.124,13.189-13.124h26.297
	c7.278,0,13.189,5.862,13.189,13.124C454.215,831.425,448.304,837.27,441.026,837.27L441.026,837.27z M361.988,837.27h-26.313
	c-7.327,0-13.189-5.845-13.189-13.189c0-7.262,5.862-13.124,13.189-13.124h26.313c7.328,0,13.173,5.862,13.173,13.124
	C375.161,831.425,369.315,837.27,361.988,837.27L361.988,837.27z M282.999,837.27H256.62c-7.262,0-13.189-5.845-13.189-13.189
	c0-7.262,5.928-13.124,13.189-13.124h26.379c7.262,0,13.124,5.862,13.124,13.124C296.123,831.425,290.261,837.27,282.999,837.27
	L282.999,837.27z M723.85,814.629c-2.898,0-5.714-0.906-8.167-2.766c-5.714-4.495-6.685-12.794-2.189-18.525
	c4.248-5.467,7.212-11.642,8.759-18.327c1.532-7.081,8.612-11.576,15.693-9.978c7.13,1.614,11.575,8.628,9.962,15.758
	c-2.305,10.423-7.08,20.401-13.7,28.816C731.573,812.949,727.72,814.629,723.85,814.629L723.85,814.629z M723.85,741.371
	c-3.919,0-7.772-1.746-10.357-5.022c-4.232-5.336-9.716-9.847-15.824-12.86c-6.488-3.211-9.123-11.132-5.912-17.619
	c3.276-6.504,11.131-9.205,17.685-5.928c9.583,4.758,18.146,11.708,24.765,20.138c4.512,5.664,3.474,13.947-2.256,18.458
	C729.581,740.465,726.682,741.371,723.85,741.371L723.85,741.371z M651.81,718.73h-26.296c-7.344,0-13.19-5.862-13.19-13.189
	c0-7.262,5.846-13.19,13.19-13.19h26.296c7.278,0,13.19,5.928,13.19,13.19C665,712.868,659.089,718.73,651.81,718.73L651.81,718.73z
	 M572.756,718.73h-26.296c-7.344,0-13.19-5.862-13.19-13.189c0-7.262,5.846-13.19,13.19-13.19h26.296
	c7.344,0,13.19,5.928,13.19,13.19C585.946,712.868,580.1,718.73,572.756,718.73L572.756,718.73z M494.492,713.394
	c-1.811,0-3.672-0.395-5.467-1.235c-9.649-4.43-18.475-11.115-25.358-19.298c-4.693-5.582-3.985-13.881,1.614-18.574
	c5.532-4.643,13.832-3.936,18.525,1.597c4.446,5.285,10.028,9.517,16.219,12.35c6.62,3.03,9.518,10.802,6.488,17.438
	C504.256,710.497,499.498,713.394,494.492,713.394L494.492,713.394z M460.9,648.237c-0.823,0-1.597-0.066-2.437-0.197
	c-7.195-1.416-11.839-8.299-10.488-15.445c2.058-10.67,6.372-20.518,12.811-29.261c4.364-5.846,12.596-7.146,18.459-2.832
	c5.845,4.314,7.064,12.613,2.766,18.393c-4.117,5.598-6.817,11.905-8.167,18.656C472.608,643.858,467.142,648.237,460.9,648.237
	L460.9,648.237z M516.293,600.239c-7.015,0-12.86-5.517-13.124-12.663c-0.329-7.262,5.336-13.387,12.613-13.7
	c1.153,0,2.24-0.066,3.409-0.066h23.464c7.278,0,13.189,5.911,13.189,13.189c0,7.261-5.911,13.189-13.189,13.189l-25.786,0.05
	C516.672,600.239,516.491,600.239,516.293,600.239L516.293,600.239z M756.273,600.189h-2.833c-7.261,0-13.189-5.928-13.189-13.189
	c0-7.278,5.928-13.189,13.189-13.189h2.833c6.175,0,12.152-1.153,17.816-3.54c6.62-2.832,14.408,0.329,17.241,7.015
	c2.832,6.751-0.33,14.474-7.081,17.24C775.374,598.246,765.988,600.189,756.273,600.189L756.273,600.189z M700.764,600.189h-26.379
	c-7.261,0-13.173-5.928-13.173-13.189c0-7.278,5.912-13.189,13.173-13.189h26.379c7.262,0,13.19,5.911,13.19,13.189
	C713.954,594.261,708.026,600.189,700.764,600.189L700.764,600.189z M621.71,600.189h-26.362c-7.278,0-13.124-5.928-13.124-13.189
	c0-7.278,5.846-13.189,13.124-13.189h26.362c7.278,0,13.19,5.911,13.19,13.189C634.9,594.261,628.988,600.189,621.71,600.189
	L621.71,600.189z M813.13,557.607c-1.219,0-2.437-0.132-3.671-0.527c-6.998-2.058-10.999-9.32-8.925-16.334
	c1.219-4.249,1.86-8.612,1.86-12.992c0-2.569-0.197-4.957-0.576-7.262c-1.169-7.213,3.722-13.963,10.934-15.116
	c7.13-1.219,13.947,3.722,15.116,10.934c0.576,3.853,0.889,7.723,0.823,11.51c0,6.817-0.955,13.7-2.881,20.32
	C824.13,553.869,818.861,557.607,813.13,557.607L813.13,557.607z M785.928,489.552c-2.256,0-4.512-0.511-6.636-1.746
	c-5.977-3.474-12.465-5.533-19.348-6.043c-7.278-0.576-12.679-6.882-12.102-14.144c0.576-7.278,6.949-12.679,14.161-12.102
	c10.867,0.84,21.159,4.067,30.545,9.468c6.306,3.656,8.431,11.757,4.758,17.997C794.869,487.23,790.423,489.552,785.928,489.552
	L785.928,489.552z M708.289,481.632h-26.379c-7.261,0-13.107-5.912-13.107-13.172c0-7.278,5.846-13.19,13.107-13.19h26.379
	c7.262,0,13.19,5.912,13.19,13.19C721.479,475.72,715.551,481.632,708.289,481.632L708.289,481.632z M629.235,481.632h-26.296
	c-7.344,0-13.189-5.912-13.189-13.172c0-7.278,5.846-13.19,13.189-13.19h26.296c7.278,0,13.19,5.912,13.19,13.19
	C642.425,475.72,636.513,481.632,629.235,481.632L629.235,481.632z M550.181,481.632h-26.296c-7.344,0-13.19-5.912-13.19-13.172
	c0-7.278,5.846-13.19,13.19-13.19h26.296c7.344,0,13.19,5.912,13.19,13.19C563.37,475.72,557.525,481.632,550.181,481.632
	L550.181,481.632z M471.208,481.632h-4.775c-8.875-0.065-17.553-1.663-25.852-4.758c-6.751-2.635-10.16-10.226-7.591-17.043
	c2.635-6.818,10.292-10.16,16.977-7.591c5.285,1.992,10.818,3.03,16.532,3.03h4.709c7.261,0,13.107,5.912,13.107,13.19
	C484.315,475.72,478.47,481.632,471.208,481.632L471.208,481.632z M410.151,440.861c-5.516,0-10.736-3.541-12.531-9.073
	c-2.388-7.262-3.606-14.919-3.606-22.641c0-3.145,0.198-6.175,0.576-9.139c0.906-7.195,7.278-12.283,14.738-11.444
	c7.196,0.906,12.35,7.525,11.444,14.737c-0.263,1.927-0.378,3.919-0.378,5.912c0,4.89,0.757,9.715,2.239,14.342
	c2.322,6.883-1.482,14.342-8.364,16.664C412.868,440.663,411.502,440.861,410.151,440.861L410.151,440.861z M435.246,371.966
	c-4.446,0-8.743-2.19-11.196-6.24c-3.853-6.175-1.992-14.276,4.182-18.13c9.204-5.731,19.364-9.27,30.232-10.424
	c7.262-0.773,13.7,4.38,14.54,11.642c0.774,7.195-4.446,13.7-11.641,14.54c-6.883,0.774-13.387,2.947-19.167,6.62
	C440.005,371.324,437.618,371.966,435.246,371.966L435.246,371.966z M617.989,363.025H591.61c-7.262,0-13.189-5.846-13.189-13.124
	c0-7.328,5.928-13.173,13.189-13.173h26.379c7.262,0,13.107,5.846,13.107,13.173C631.096,357.18,625.251,363.025,617.989,363.025
	L617.989,363.025z M538.934,363.025h-26.379c-7.261,0-13.189-5.846-13.189-13.124c0-7.328,5.928-13.173,13.189-13.173h26.379
	c7.262,0,13.189,5.846,13.189,13.173C552.124,357.18,546.196,363.025,538.934,363.025L538.934,363.025z M538.934,363.025"/>
<path style="fill:#26B99A;" d="M761.151,95.747c-41.545-46.896-109.023-46.896-150.584,0c-41.61,46.879-41.61,122.838,0,169.735
	l75.267,84.9l75.317-84.9C802.761,218.585,802.761,142.626,761.151,95.747L761.151,95.747z M689.111,231.774
	c-32.735,0-59.312-26.494-59.312-59.228c0-32.752,26.577-59.312,59.312-59.312s59.311,26.56,59.311,59.312
	C748.422,205.28,721.846,231.774,689.111,231.774L689.111,231.774z M689.111,231.774"/>
</svg>
