<?xml version="1.0" encoding="iso-8859-1"?>
<!-- Generator: Adobe Illustrator 23.0.6, SVG Export Plug-In . SVG Version: 6.00 Build 0)  -->
<svg version="1.1" id="Layer_1" xmlns="http://www.w3.org/2000/svg" xmlns:xlink="http://www.w3.org/1999/xlink" x="0px" y="0px"
	 viewBox="-49 141 512 512" style="enable-background:new -49 141 512 512;" xml:space="preserve">
<path style="fill:#694B4B;" d="M39.222,300.632c-82.142,0-73.034,99.89-72.659,172.277c0.014,2.734,1.446,5.198,3.788,6.61
	c9.102,5.487,34.1,18.316,68.871,18.316s59.768-12.829,68.871-18.316c2.341-1.412,3.774-3.876,3.788-6.61
	C112.256,400.522,121.364,300.632,39.222,300.632z"/>
<path style="fill:#5A4146;" d="M33.93,300.837c-76.395,4.283-67.733,101.295-67.367,172.071c0.014,2.734,1.446,5.199,3.788,6.61
	c9.102,5.487,34.1,18.316,68.871,18.316l20.759-145.308"/>
<path style="fill:#694B4B;" d="M39.222,300.632c-46.706,0-49.949,56.436-49.949,56.436c26.921-4.541,43.463,6.811,70.708-4.541
	L39.222,497.834c34.772,0,59.768-12.829,68.871-18.316c2.341-1.412,3.774-3.876,3.788-6.61
	C112.256,400.522,121.364,300.632,39.222,300.632z"/>
<path style="fill:#785550;" d="M111.881,472.908c0.322-62.201,7.037-144.651-43.183-166.639c-0.876,4.55-2.463,17.253,1.661,25.499
	c10.379,20.759,20.759,20.759,31.137,36.327c10.379,57.085-19.831,117.674-29.866,125.923l0,0
	c17.778-4.228,30.522-10.919,36.462-14.499C110.434,478.108,111.867,475.642,111.881,472.908z"/>
<path style="fill:#E6AF78;" d="M117.864,488.653l-46.307-19.294c-3.867-1.611-6.387-5.39-6.387-9.581v-12.541H13.275v12.541
	c0,4.191-2.52,7.97-6.387,9.581l-46.307,19.294C-45.221,491.07-49,496.739-49,503.024v20.759c0,5.732,4.647,10.379,10.379,10.379
	h155.686c5.732,0,10.379-4.647,10.379-10.379v-20.759C127.445,496.739,123.666,491.07,117.864,488.653z"/>
<path style="fill:#EFF2FA;" d="M117.864,488.653l-44.773-18.656l-33.869,14.618L5.354,469.998l-44.773,18.656
	c-5.802,2.416-9.581,8.086-9.581,14.37v20.759c0,5.732,4.647,10.379,10.379,10.379h155.686c5.732,0,10.379-4.647,10.379-10.379
	v-20.759C127.445,496.739,123.666,491.07,117.864,488.653z"/>
<path style="fill:#D29B6E;" d="M65.17,447.237H13.275v12.541c0,4.191-2.52,7.97-6.387,9.581l-7.232,3.014
	C55.001,486.485,65.17,447.237,65.17,447.237z"/>
<g>
	<path style="fill:#E4EAF6;" d="M-23.706,508.729l-20.83-16.569c-2.791,2.854-4.464,6.714-4.464,10.865v20.759
		c0,5.732,4.647,10.379,10.379,10.379h20.759v-13.276C-17.863,516.156-20.012,511.683-23.706,508.729z"/>
	<path style="fill:#E4EAF6;" d="M127.445,523.783v-20.759c0-4.119-1.645-7.952-4.397-10.8l-20.898,16.504
		c-3.693,2.954-5.843,7.427-5.843,12.157v13.275h20.759C122.798,534.161,127.445,529.514,127.445,523.783z"/>
	<path style="fill:#E4EAF6;" d="M40.001,523.783h-1.557c-2.436,0-4.411-1.975-4.411-4.411v-34.745h10.379v34.744
		C44.412,521.808,42.437,523.783,40.001,523.783z"/>
	<path style="fill:#E4EAF6;" d="M39.222,484.615L9.52,462.339c-1.907-1.43-4.623-0.965-5.945,1.018l-5.869,8.803l18.21,25.494
		c1.384,1.938,4.112,2.317,5.972,0.829L39.222,484.615z"/>
	<path style="fill:#E4EAF6;" d="M39.222,484.615l29.702-22.276c1.907-1.43,4.623-0.965,5.945,1.018l5.869,8.803l-18.21,25.494
		c-1.384,1.938-4.112,2.317-5.972,0.829L39.222,484.615z"/>
</g>
<path style="fill:#F0C087;" d="M65.17,347.338C39.222,373.285-11.7,352.527-11.7,394.043l3.222,30.581
	c0.622,6.841,4.588,12.931,10.591,16.267l29.548,16.415c4.702,2.612,10.419,2.612,15.121,0l29.548-16.415
	c6.005-3.336,9.97-9.427,10.591-16.267l3.72-36.32c0.265-2.582,0.321-5.179,0.234-7.769
	C88.935,367.325,70.359,357.716,65.17,347.338z"/>
<path style="fill:#E6AF78;" d="M-11.7,394.043l3.222,30.581c0.622,6.841,4.588,12.931,10.591,16.267l29.548,16.415
	c3.263,1.813,7.005,2.282,10.567,1.579l0,0c0,0-14.897-4.515-23.764-28.516c-2.716-7.352-6.487-46.274-3.243-51.031
	c6.412-9.402,42.165-10.379,52.729-27.822c-0.522-0.647-1.004-1.296-1.444-1.945c-0.035-0.052-0.078-0.105-0.114-0.158
	c-0.459-0.69-0.875-1.382-1.223-2.077C39.222,373.285-11.7,352.527-11.7,394.043z"/>
<path style="fill:#E4EAF6;" d="M77.106,523.783H63.614c-4.872,0-8.822,3.95-8.822,8.822v1.557h31.137v-1.557
	C85.928,527.732,81.978,523.783,77.106,523.783z"/>
<polygon style="fill:#E6AF78;" points="393.78,464.524 393.78,436.021 320.487,436.021 320.487,464.524 357.133,497.099 "/>
<path style="fill:#EFF2FA;" d="M450.443,477.856l-50.385-11.855c-0.761-0.179-1.461-0.483-2.115-0.851l-40.81,23.806l-39.218-24.957
	c-1.016,0.956-2.275,1.666-3.706,2.003l-50.385,11.855c-7.358,1.731-12.557,8.296-12.557,15.855v31.89
	c0,4.497,3.646,8.144,8.144,8.144h195.447c4.497,0,8.144-3.646,8.144-8.144v-31.89C463,486.153,457.8,479.588,450.443,477.856z"/>
<path style="fill:#D29B6E;" d="M320.487,436.021v30.073c46.165,16.632,73.293-24.995,73.293-24.995v-5.078L320.487,436.021
	L320.487,436.021z"/>
<path style="fill:#F0C087;" d="M304.2,342.37l3.549,78.063c0.332,7.293,3.907,14.055,9.747,18.435l16.836,12.627
	c4.229,3.172,9.373,4.886,14.658,4.886h16.287c5.286,0,10.43-1.715,14.658-4.886l16.836-12.627c5.84-4.38,9.416-11.143,9.747-18.435
	l3.549-78.063H304.2L304.2,342.37z"/>
<path style="fill:#E6AF78;" d="M344.918,358.657c16.287,0,40.718-4.071,46.513-16.287H304.2l3.548,78.063
	c0.332,7.293,3.907,14.055,9.747,18.435l16.836,12.627c4.229,3.172,9.373,4.886,14.658,4.886h8.144
	c-8.144,0-24.431-16.287-24.431-36.647c0-9.957,0-36.646,0-48.862C332.702,366.801,336.774,358.657,344.918,358.657z"/>
<path style="fill:#E4EAF6;" d="M433.107,507.318l26.385-23.702c2.211,2.8,3.508,6.322,3.508,10.094v31.89
	c0,4.497-3.646,8.144-8.144,8.144h-28.502v-11.28C426.354,516.686,428.808,511.18,433.107,507.318z"/>
<polygon style="fill:#5B5D6E;" points="367.313,533.744 346.953,533.744 349.499,497.099 364.768,497.099 "/>
<path style="fill:#515262;" d="M367.313,488.955h-20.36v2.352c0,5.448,4.416,9.863,9.863,9.863h0.632
	c5.448,0,9.863-4.416,9.863-9.863v-2.352H367.313z"/>
<g>
	<path style="fill:#E4EAF6;" d="M319.914,455.459l37.218,33.496c0,0-10.423,5.261-23.286,15.867
		c-2.653,2.188-6.667,1.301-8.09-1.829l-17.486-38.468l5.532-8.297C315.18,454.161,318.069,453.798,319.914,455.459z"/>
	<path style="fill:#E4EAF6;" d="M394.351,455.459l-37.218,33.496c0,0,10.423,5.261,23.286,15.867
		c2.653,2.188,6.667,1.301,8.09-1.829l17.486-38.468l-5.532-8.297C399.086,454.161,396.197,453.798,394.351,455.459z"/>
</g>
<path style="fill:#785550;" d="M381.818,315.394l3.818,26.976c17.425,3.485,19.936,30.83,20.298,38.641
	c0.066,1.417,0.518,2.787,1.287,3.979l6.649,10.313c0,0-2.276-17.051,8.144-28.502C422.013,366.801,425.59,299.107,381.818,315.394z
	"/>
<path style="fill:#F0C087;" d="M417.954,393.561l-4.599,18.393c-0.545,2.179-2.503,3.708-4.749,3.708l0,0
	c-2.469,0-4.551-1.838-4.858-4.288l-2.351-18.812c-0.629-5.031,3.294-9.474,8.363-9.474h0.017
	C415.261,383.088,419.284,388.241,417.954,393.561z"/>
<path style="fill:#694B4B;" d="M308.101,308.099l6.023,4.114c-27.23,20.105-22.141,54.588-22.141,54.588
	c8.144,8.144,8.144,28.502,8.144,28.502l8.144-8.144c0,0-3.143-23.525,12.216-32.574c14.251-8.398,26.721-4.071,39.445-4.071
	c34.101,0,43.645-12.852,41.991-28.502c-0.856-8.099-13.238-24.967-44.789-24.431C344.399,297.797,320.487,301.652,308.101,308.099z
	"/>
<path style="fill:#5A4146;" d="M305.726,346.951c0,0-4.326-17.051,8.398-34.738c-27.23,20.105-22.141,54.588-22.141,54.588
	c8.144,8.144,8.144,28.502,8.144,28.502l8.144-8.144c0,0-3.143-23.525,12.215-32.574c14.251-8.398,26.721-4.071,39.445-4.071
	c5.546,0,10.379-0.372,14.684-1.008C348.353,350.386,332.872,330.494,305.726,346.951z"/>
<path style="fill:#E6AF78;" d="M296.311,393.561l4.599,18.393c0.545,2.179,2.503,3.708,4.75,3.708l0,0
	c2.469,0,4.551-1.838,4.858-4.288l2.351-18.812c0.629-5.031-3.294-9.474-8.364-9.474h-0.017
	C299.006,383.088,294.981,388.241,296.311,393.561z"/>
<path style="fill:#E4EAF6;" d="M405.995,525.601h-20.36c-4.497,0-8.144,3.646-8.144,8.144l0,0h36.646l0,0
	C414.138,529.247,410.492,525.601,405.995,525.601z"/>
<path style="fill:#694B4B;" d="M207.155,198.499c-139.642,0-124.158,169.814-123.52,292.871c0.024,4.647,2.458,8.838,6.439,11.237
	c15.474,9.328,57.97,31.137,117.081,31.137s101.607-21.809,117.081-31.137c3.98-2.4,6.415-6.59,6.439-11.237
	C331.313,368.313,346.797,198.499,207.155,198.499z"/>
<path style="fill:#5A4146;" d="M198.157,198.849C68.286,206.129,83.011,371.05,83.635,491.37c0.024,4.647,2.458,8.838,6.439,11.237
	c15.474,9.328,57.97,31.137,117.081,31.137l35.289-247.023"/>
<path style="fill:#694B4B;" d="M207.155,198.499c-79.4,0-84.914,95.942-84.914,95.942c45.765-7.719,73.886,11.579,120.203-7.719
	l-35.289,247.023c59.111,0,101.607-21.809,117.081-31.137c3.98-2.4,6.415-6.59,6.439-11.237
	C331.313,368.313,346.797,198.499,207.155,198.499z"/>
<path style="fill:#785550;" d="M330.675,491.371c0.548-105.742,11.962-245.906-73.41-283.286
	c-1.489,7.736-4.185,29.331,2.823,43.348c17.645,35.289,35.289,35.289,52.933,61.756c17.644,97.045-33.714,200.047-50.771,214.068
	l0,0c30.222-7.188,51.887-18.562,61.985-24.649C328.216,500.209,330.651,496.018,330.675,491.371z"/>
<path style="fill:#E6AF78;" d="M340.846,518.137l-78.722-32.801c-6.575-2.739-10.858-9.164-10.858-16.288v-21.32h-88.222v21.32
	c0,7.123-4.283,13.548-10.858,16.288l-78.722,32.801c-9.862,4.109-16.287,13.746-16.287,24.431v35.289
	c0,9.744,7.9,17.644,17.644,17.644h264.667c9.744,0,17.644-7.9,17.644-17.644v-35.289
	C357.133,531.882,350.708,522.246,340.846,518.137z"/>
<path style="fill:#B4E1FA;" d="M340.846,518.137l-76.114-31.714l-57.577,24.849l-57.577-24.849l-76.114,31.714
	c-9.862,4.109-16.287,13.746-16.287,24.431v35.289c0,9.744,7.9,17.644,17.644,17.644h264.667c9.744,0,17.644-7.9,17.644-17.644
	v-35.289C357.133,531.882,350.708,522.246,340.846,518.137z"/>
<path style="fill:#D29B6E;" d="M251.266,447.727h-88.222v21.32c0,7.123-4.283,13.548-10.858,16.288l-12.295,5.124
	C233.978,514.449,251.266,447.727,251.266,447.727z"/>
<g>
	<path style="fill:#A0D2F0;" d="M100.178,552.264l-35.411-28.167c-4.744,4.852-7.588,11.413-7.588,18.469v35.289
		c0,9.744,7.9,17.645,17.644,17.645h35.289v-22.568C110.11,564.891,106.456,557.288,100.178,552.264z"/>
	<path style="fill:#A0D2F0;" d="M357.133,577.855v-35.289c0-7.002-2.797-13.518-7.475-18.359l-35.526,28.057
		c-6.278,5.023-9.933,12.627-9.933,20.667V595.5h35.289C349.233,595.5,357.133,587.601,357.133,577.855z"/>
	<path style="fill:#A0D2F0;" d="M207.155,577.855L207.155,577.855c-4.872,0-8.822-3.95-8.822-8.822v-57.742h17.644v57.743
		C215.977,573.906,212.027,577.855,207.155,577.855z"/>
	<path style="fill:#A0D2F0;" d="M207.155,511.272l-50.494-37.871c-3.241-2.431-7.86-1.64-10.107,1.731l-9.977,14.966l30.957,43.339
		c2.353,3.295,6.991,3.938,10.152,1.409L207.155,511.272z"/>
	<path style="fill:#A0D2F0;" d="M207.155,511.272l50.494-37.871c3.241-2.431,7.86-1.64,10.107,1.731l9.977,14.966l-30.957,43.339
		c-2.353,3.295-6.991,3.938-10.152,1.409L207.155,511.272z"/>
</g>
<path style="fill:#F0C087;" d="M251.266,277.899c-44.111,44.111-130.679,8.822-130.679,79.4l5.479,51.99
	c1.056,11.629,7.799,21.983,18.006,27.653l50.231,27.906c7.994,4.441,17.713,4.441,25.707,0l50.231-27.906
	c10.207-5.672,16.949-16.025,18.006-27.653l6.324-61.745c0.45-4.388,0.546-8.803,0.397-13.208
	C291.665,311.878,260.088,295.544,251.266,277.899z"/>
<path style="fill:#E6AF78;" d="M120.587,357.299l5.479,51.99c1.056,11.629,7.799,21.983,18.006,27.653l50.231,27.906
	c5.547,3.081,11.908,3.88,17.963,2.685l0,0c0,0-25.326-7.674-40.398-48.477c-4.617-12.5-11.028-78.665-5.514-86.752
	c10.899-15.985,71.681-17.645,89.641-47.298c-0.888-1.101-1.707-2.203-2.455-3.308c-0.061-0.089-0.133-0.179-0.193-0.268
	c-0.78-1.172-1.488-2.348-2.079-3.53C207.155,322.01,120.587,286.721,120.587,357.299z"/>
<path style="fill:#A0D2F0;" d="M277.733,577.855h-35.289c-4.872,0-8.822,3.95-8.822,8.822v8.822h52.933v-8.822
	C286.555,581.806,282.605,577.855,277.733,577.855z"/>
</svg>
