<?xml version="1.0" encoding="iso-8859-1"?>
<!-- Generator: Adobe Illustrator 23.0.6, SVG Export Plug-In . SVG Version: 6.00 Build 0)  -->
<svg version="1.1" id="Layer_1" xmlns="http://www.w3.org/2000/svg" xmlns:xlink="http://www.w3.org/1999/xlink" x="0px" y="0px"
	 viewBox="0 0 545.362 900" style="enable-background:new 0 0 545.362 900;" xml:space="preserve">
<g>
	<path style="fill:#576574;" d="M428.82,38.318c-4.881,0-312.782,0-373.74,0c-21.044,0-38.269,17.218-38.269,38.269v746.826
		c0,21.044,17.218,38.269,38.269,38.269h373.74c21.044,0,38.269-17.218,38.269-38.269c0-19.127,0-740.865,0-746.826
		C467.082,55.536,449.864,38.318,428.82,38.318L428.82,38.318z M428.82,38.318"/>
	<path style="fill:#3E4B5A;" d="M67.135,823.413c0-18.035,0-739.501,0-746.826c0-21.05,17.225-38.269,38.269-38.269
		c-22.181,0-39.877,0-50.323,0c-21.044,0-38.269,17.218-38.269,38.269v746.826c0,21.044,17.218,38.269,38.269,38.269h50.323
		C84.353,861.682,67.135,844.457,67.135,823.413L67.135,823.413z M67.135,823.413"/>
	<path style="fill:#3E4B5A;" d="M269.81,788.957c0,15.391-12.476,27.866-27.859,27.866c-15.39,0-27.866-12.474-27.866-27.866
		c0-15.383,12.476-27.859,27.866-27.859C257.334,761.098,269.81,773.574,269.81,788.957L269.81,788.957z M269.81,788.957"/>
	<path style="fill:#36434F;" d="M252.611,788.957c0-7.909,3.305-15.025,8.6-20.102c-5.008-4.792-11.786-7.758-19.261-7.758
		c-15.39,0-27.866,12.476-27.866,27.859c0,15.391,12.476,27.866,27.866,27.866c7.475,0,14.253-2.964,19.261-7.758
		C255.915,803.99,252.611,796.866,252.611,788.957L252.611,788.957z M252.611,788.957"/>
	<path style="fill:#A4D2FC;" d="M409.001,139.172H74.899c-4.384,0-7.933,3.549-7.933,7.933v560.41c0,7.211,5.841,13.06,13.053,13.06
		h323.862c7.212,0,13.053-5.849,13.053-13.06v-560.41C416.934,142.721,413.385,139.172,409.001,139.172L409.001,139.172z
		 M409.001,139.172"/>
	<path style="fill:#6FB1FF;" d="M116.07,707.515v-560.41c0-4.384,3.549-7.933,7.933-7.933H74.899c-4.384,0-7.933,3.549-7.933,7.933
		v560.41c0,7.211,5.841,13.06,13.053,13.06h49.104C121.911,720.568,116.07,714.726,116.07,707.515L116.07,707.515z M116.07,707.515"
		/>
	<path style="fill:#54A0FF;" d="M409.001,139.172c-10.767,0-323.468,0-334.102,0c-4.384,0-7.933,3.549-7.933,7.933v48.778h349.968
		c0-28.104,0-46.133,0-48.778C416.934,142.728,413.385,139.172,409.001,139.172L409.001,139.172z M409.001,139.172"/>
	<path style="fill:#338DEF;" d="M124.003,139.172H74.899c-4.384,0-7.933,3.549-7.933,7.933v48.778h49.104v-48.778
		C116.07,142.721,119.62,139.172,124.003,139.172L124.003,139.172z M124.003,139.172"/>
	<path style="fill:#3E4B5A;" d="M278.63,101.537h-73.36c-6.859,0-12.424-5.564-12.424-12.425c0-6.867,5.559-12.426,12.424-12.426
		h73.36c6.859,0,12.424,5.559,12.424,12.426C291.055,95.973,285.489,101.537,278.63,101.537L278.63,101.537z M278.63,101.537"/>
	<path style="fill:#FF6B6B;" d="M528.55,453.48c0,114.448-92.783,207.229-207.23,207.229c-114.446,0-207.229-92.781-207.229-207.229
		s92.783-207.229,207.229-207.229C435.767,246.251,528.55,339.032,528.55,453.48L528.55,453.48z M528.55,453.48"/>
	<path style="fill:#EE5253;" d="M162.581,453.48c0-106.249,79.96-193.806,182.981-205.809c-7.954-0.931-16.038-1.42-24.243-1.42
		c-114.446,0-207.229,92.781-207.229,207.229s92.783,207.229,207.229,207.229c8.205,0,16.289-0.489,24.243-1.418
		C242.54,647.286,162.581,559.729,162.581,453.48L162.581,453.48z M162.581,453.48"/>
	<path style="fill:#E4EAF8;" d="M480.066,453.48c0,87.675-71.071,158.747-158.747,158.747c-87.667,0-158.739-71.071-158.739-158.747
		c0-87.674,71.071-158.747,158.739-158.747C408.995,294.733,480.066,365.806,480.066,453.48L480.066,453.48z M480.066,453.48"/>
	<path style="fill:#D8DCE5;" d="M224.613,453.48c0-77.059,54.908-141.278,127.728-155.706c-10.033-1.986-20.404-3.041-31.021-3.041
		c-87.667,0-158.745,71.078-158.745,158.747c0,87.675,71.078,158.747,158.745,158.747c10.617,0,20.988-1.049,31.021-3.041
		C279.521,594.764,224.613,530.539,224.613,453.48L224.613,453.48z M224.613,453.48"/>
	<path style="fill:#576574;" d="M321.32,445.766c-6.859,0-12.424-5.559-12.424-12.424v-86.664c0-6.867,5.566-12.426,12.424-12.426
		c6.867,0,12.432,5.559,12.432,12.426v86.664C333.752,440.206,328.186,445.766,321.32,445.766L321.32,445.766z M321.32,445.766"/>
	<path style="fill:#576574;" d="M401.508,465.906h-60.374c-6.867,0-12.426-5.559-12.426-12.426c0-6.86,5.559-12.424,12.426-12.424
		h60.374c6.865,0,12.424,5.559,12.424,12.424C413.932,460.347,408.373,465.906,401.508,465.906L401.508,465.906z M401.508,465.906"
		/>
	<path style="fill:#3E4B5A;" d="M321.32,282.309c-6.859,0-12.424,5.566-12.424,12.424v13.719c0,6.86,5.566,12.426,12.424,12.426
		c6.867,0,12.432-5.566,12.432-12.426v-13.719C333.752,287.874,328.186,282.309,321.32,282.309L321.32,282.309z M321.32,282.309"/>
	<path style="fill:#3E4B5A;" d="M321.32,586.082c-6.859,0-12.424,5.566-12.424,12.426v13.719c0,6.86,5.566,12.424,12.424,12.424
		c6.867,0,12.432-5.564,12.432-12.424v-13.719C333.752,591.648,328.186,586.082,321.32,586.082L321.32,586.082z M321.32,586.082"/>
	<path style="fill:#3E4B5A;" d="M252.71,309.79c-3.429-5.948-11.03-7.976-16.972-4.548c-5.944,3.43-7.978,11.032-4.548,16.974
		l6.859,11.879c3.437,5.948,11.032,7.972,16.974,4.548c5.942-3.437,7.978-11.037,4.548-16.98L252.71,309.79z M252.71,309.79"/>
	<path style="fill:#3E4B5A;" d="M404.598,572.865c-3.43-5.942-11.032-7.978-16.974-4.548c-5.942,3.437-7.978,11.032-4.548,16.974
		l6.859,11.879c2.3,3.988,6.477,6.219,10.774,6.219c9.448,0,15.559-10.308,10.747-18.645L404.598,572.865z M404.598,572.865"/>
	<path style="fill:#3E4B5A;" d="M201.935,370.203l-11.879-6.854c-5.942-3.437-13.537-1.401-16.972,4.548
		c-3.43,5.944-1.394,13.544,4.548,16.974l11.879,6.854c5.923,3.424,13.531,1.42,16.972-4.548
		C209.913,381.233,207.877,373.639,201.935,370.203L201.935,370.203z M201.935,370.203"/>
	<path style="fill:#3E4B5A;" d="M465.01,522.089l-11.879-6.854c-5.942-3.435-13.544-1.401-16.972,4.549
		c-3.43,5.942-1.396,13.542,4.548,16.972l11.878,6.854c5.918,3.424,13.532,1.42,16.974-4.548
		C472.994,533.121,470.952,525.526,465.01,522.089L465.01,522.089z M465.01,522.089"/>
	<path style="fill:#3E4B5A;" d="M188.718,453.48c0-6.86-5.564-12.424-12.424-12.424h-13.719c-6.86,0-12.426,5.559-12.426,12.424
		c0,6.86,5.566,12.426,12.426,12.426h13.719C183.154,465.906,188.718,460.347,188.718,453.48L188.718,453.48z M188.718,453.48"/>
	<path style="fill:#3E4B5A;" d="M480.066,441.056h-13.719c-6.86,0-12.426,5.559-12.426,12.424c0,6.86,5.566,12.426,12.426,12.426
		h13.719c6.86,0,12.426-5.559,12.426-12.426C492.492,446.62,486.933,441.056,480.066,441.056L480.066,441.056z M480.066,441.056"/>
	<path style="fill:#3E4B5A;" d="M189.511,515.235l-11.879,6.854c-5.942,3.43-7.978,11.032-4.548,16.974
		c3.441,5.961,11.05,7.972,16.972,4.548l11.879-6.854c5.942-3.43,7.978-11.03,4.548-16.972
		C203.053,513.835,195.453,511.801,189.511,515.235L189.511,515.235z M189.511,515.235"/>
	<path style="fill:#3E4B5A;" d="M453.13,391.724l11.879-6.854c5.942-3.43,7.984-11.03,4.548-16.974
		c-3.43-5.948-11.03-7.984-16.974-4.548l-11.878,6.854c-5.944,3.43-7.978,11.03-4.548,16.974
		C439.599,393.144,447.207,395.148,453.13,391.724L453.13,391.724z M453.13,391.724"/>
	<path style="fill:#3E4B5A;" d="M255.023,568.317c-5.948-3.43-13.544-1.394-16.974,4.548l-6.859,11.879
		c-3.43,5.942-1.396,13.544,4.548,16.974c5.929,3.424,13.537,1.407,16.972-4.548l6.86-11.879
		C263.001,579.349,260.965,571.753,255.023,568.317L255.023,568.317z M255.023,568.317"/>
	<path style="fill:#3E4B5A;" d="M406.909,305.242c-5.942-3.429-13.544-1.394-16.974,4.548l-6.859,11.879
		c-3.43,5.944-1.394,13.544,4.548,16.974c5.918,3.417,13.524,1.42,16.974-4.548l6.859-11.879
		C414.887,316.274,412.851,308.672,406.909,305.242L406.909,305.242z M406.909,305.242"/>
	<path style="fill:#FF6B6B;" d="M349.187,453.48c0,15.39-12.476,27.859-27.867,27.859c-15.383,0-27.859-12.469-27.859-27.859
		c0-15.39,12.476-27.859,27.859-27.859C336.711,425.621,349.187,438.09,349.187,453.48L349.187,453.48z M349.187,453.48"/>
	<path style="fill:#EE5253;" d="M333.752,453.48c0-7.457,2.946-14.216,7.714-19.216c-5.075-5.315-12.212-8.644-20.147-8.644
		c-15.383,0-27.859,12.469-27.859,27.859c0,15.39,12.476,27.859,27.859,27.859c7.934,0,15.071-3.322,20.147-8.644
		C336.692,467.696,333.752,460.937,333.752,453.48L333.752,453.48z M333.752,453.48"/>
	<path style="fill:#576574;" d="M321.32,624.651c-94.383,0-171.171-76.788-171.171-171.171s76.788-171.171,171.171-171.171
		c94.384,0,171.173,76.788,171.173,171.171S415.704,624.651,321.32,624.651L321.32,624.651z M321.32,307.159
		c-80.675,0-146.314,65.638-146.314,146.321c0,80.683,65.639,146.321,146.314,146.321c80.683,0,146.322-65.638,146.322-146.321
		C467.642,372.797,402.003,307.159,321.32,307.159L321.32,307.159z M321.32,307.159"/>
</g>
</svg>
