<?xml version="1.0" encoding="iso-8859-1"?>
<!-- Generator: Adobe Illustrator 23.0.6, SVG Export Plug-In . SVG Version: 6.00 Build 0)  -->
<svg version="1.1" id="Capa_1" xmlns="http://www.w3.org/2000/svg" xmlns:xlink="http://www.w3.org/1999/xlink" x="0px" y="0px"
	 viewBox="-49 141 512 512" style="enable-background:new -49 141 512 512;" xml:space="preserve">
<g>
	<rect x="39.276" y="167.483" style="fill:#75462E;" width="17.655" height="97.103"/>
	<rect x="109.897" y="167.483" style="fill:#75462E;" width="17.655" height="97.103"/>
</g>
<g>
	<rect x="39.276" y="167.483" style="fill:#5E3825;" width="17.655" height="26.483"/>
	<rect x="109.897" y="167.483" style="fill:#5E3825;" width="17.655" height="26.483"/>
</g>
<g>
	<path style="fill:#4398D1;" d="M30.448,141h105.931c9.754,0,17.655,7.901,17.655,17.655l0,0c0,9.754-7.901,17.655-17.655,17.655
		H30.448c-9.754,0-17.655-7.901-17.655-17.655l0,0C12.793,148.901,20.694,141,30.448,141z"/>
	<path style="fill:#4398D1;" d="M-13.69,255.759h194.207c19.5,0,35.31,15.81,35.31,35.31v282.483c0,19.5-15.81,35.31-35.31,35.31
		H-13.69c-19.5,0-35.31-15.81-35.31-35.31V291.069C-49,271.569-33.19,255.759-13.69,255.759z"/>
</g>
<g>
	<path style="fill:#3E8CC7;" d="M189.592,257.083C151.978,453.09,24.34,538.409-49,571.936v1.615c0,19.5,15.81,35.31,35.31,35.31
		h194.207c19.5,0,35.31-15.81,35.31-35.31V291.069C215.801,275.1,205.031,261.152,189.592,257.083z"/>
	<circle style="fill:#3E8CC7;" cx="-18.103" cy="630.931" r="22.069"/>
</g>
<g>
	<rect x="48.103" y="299.897" style="fill:#126099;" width="17.655" height="256"/>
	<rect x="-4.862" y="299.897" style="fill:#126099;" width="17.655" height="256"/>
	<rect x="101.069" y="299.897" style="fill:#126099;" width="17.655" height="256"/>
	<rect x="154.034" y="299.897" style="fill:#126099;" width="17.655" height="256"/>
</g>
<circle style="fill:#3E8CC7;" cx="184.931" cy="630.931" r="22.069"/>
<path style="fill:#DE4C3C;" d="M463,397v176.552c0,19.5-15.81,35.31-35.31,35.31H118.724c-19.5,0-35.31-15.81-35.31-35.31V397
	c0-19.5,15.81-35.31,35.31-35.31H427.69C447.19,361.69,463,377.5,463,397z"/>
<path style="fill:#75462E;" d="M348.241,361.69v-35.31c0-19.5-15.81-35.31-35.31-35.31h-79.448c-19.5,0-35.31,15.81-35.31,35.31
	v35.31h35.31v-35.31h79.448v35.31H348.241z"/>
<g>
	<circle style="fill:#DE4C3C;" cx="114.31" cy="630.931" r="22.069"/>
	<circle style="fill:#DE4C3C;" cx="432.103" cy="630.931" r="22.069"/>
</g>
<path style="fill:#CF4737;" d="M448.655,368.752c-63.691,126.764-241.761,206.777-330.814,240.022c0.3,0,0.583,0.088,0.883,0.088
	H427.69c19.5,0,35.31-15.81,35.31-35.31V397C462.974,385.842,457.65,375.355,448.655,368.752z"/>
<g>
	<rect x="127.552" y="361.69" style="fill:#75462E;" width="35.31" height="247.172"/>
	<rect x="383.552" y="361.69" style="fill:#75462E;" width="35.31" height="247.172"/>
</g>
</svg>
