<?xml version="1.0" standalone="no"?>
<!DOCTYPE svg PUBLIC "-//W3C//DTD SVG 1.1//EN" "http://www.w3.org/Graphics/SVG/1.1/DTD/svg11.dtd" >
<svg xmlns="http://www.w3.org/2000/svg">
<metadata>Generated by IcoMoon</metadata>
<defs>
<font id="icomoon" horiz-adv-x="1024">
<font-face units-per-em="1024" ascent="960" descent="-64" />
<missing-glyph horiz-adv-x="1024" />
<glyph unicode="&#x20;" horiz-adv-x="512" d="" />
<glyph unicode="&#xe900;" glyph-name="empleado" d="M842.108 130.314c-8.284 0-15-6.716-15-15v-141.028c0-4.566-3.716-8.282-8.282-8.282h-80.634v295.394c0 8.284-6.716 15-15 15s-15-6.716-15-15v-295.396h-162.37l47.086 51.8c5.144 5.66 7.57 13.722 6.488 21.574-0.020 0.152-0.044 0.304-0.070 0.456l-44.846 264.934 12.082 18.188c6.68-4.744 11.826-9.312 21.476-9.312 9.816 0 18.994 5.494 23.51 14.538v0.002l47.3 94.8 107.752-41.73c3.898-1.672 60.504-27.164 60.504-94.476v-101.46c-0.002-8.282 6.714-15 15-15 8.284 0 15 6.716 15 15v101.46c0 88.688-75.938 120.926-79.17 122.256-0.094 0.040-0.19 0.078-0.286 0.114l-179.336 69.452v42.060c28.484 22.152 48.234 54.99 53.192 92.454 14.202 1 27.38 6.304 38.142 15.558 14.054 12.086 22.118 29.676 22.118 48.252 0 15.416-5.562 30.136-15.474 41.606v55.566c-0.002 102.508-83.398 185.906-185.906 185.906s-185.904-83.398-185.904-185.906v-57.022c-10.018-11.354-15.466-25.33-15.466-40.148 0-18.582 8.060-36.17 22.118-48.258 10.754-9.25 23.924-14.548 38.122-15.55 4.998-38.166 25.324-72.228 56.234-94.678v-39.84l-179.142-69.45c-0.094-0.036-0.188-0.074-0.282-0.112-3.234-1.33-79.17-33.568-79.17-122.256v-312.49c0-21.11 17.174-38.284 38.284-38.284h142.914c8.284 0 15 6.716 15 15s-6.716 15-15 15h-32.274v295.392c0 8.284-6.716 15-15 15s-15-6.716-15-15v-295.396h-80.638c-4.566 0-8.282 3.716-8.282 8.282v312.494c0 67.538 56.986 92.972 60.486 94.468l107.668 41.74 47.304-94.804c4.526-9.066 13.716-14.54 23.512-14.54 9.602 0 14.698 4.498 21.476 9.312l12.082-18.188-44.842-264.936c-0.026-0.15-0.048-0.3-0.070-0.452-1.084-7.848 1.342-15.914 6.488-21.578l47.086-51.8h-59.99c-8.284 0-15-6.716-15-15s6.716-15 15-15h400.73c21.11 0 38.284 17.176 38.284 38.284v141.028c-0.004 8.286-6.72 15.002-15.004 15.002zM630.75 433.862l-44.098-88.38c-1.096 0.778-24.466 17.382-53.034 37.668 12.396 15.302-2.106-2.598 54.47 67.234l42.662-16.522zM542.086 340.334l-11.436-17.214h-37.406l-11.436 17.214 30.14 21.406 30.138-21.406zM455.486 473.758v28.072c18.224-7.346 37.7-10.752 56.72-10.752 19.666 0 38.952 4.192 56.104 11.692v-29.134l-56.362-69.57-56.462 69.692zM681.762 676.922c-0.002-9.826-4.258-19.124-11.678-25.506-4.906-4.22-10.832-6.918-17.322-7.974v66.954c17.24-2.8 29-17.1 29-33.474zM368.014 643.442c-17.436 2.83-29 17.246-29 33.482 0 16.036 13.294 29.088 29 32.718v-66.2zM368.82 740.208c-4.778-0.548-10.254-1.842-14.336-3.23v37.116c0 85.966 69.936 155.904 155.902 155.904s155.902-69.938 155.902-155.904v-36.086c-4.36 1.326-8.882 2.202-13.524 2.614 0 14.474 0.126 11.682-47.224 62.588-8.708 9.356-23.112 11.316-34.074 4.154-52.26-34.138-116.010-51.288-174.83-47.064-12.902 0.966-24.654-7.532-27.816-20.092zM398.016 631.632v98.514c64.75-3.792 132.636 15.444 187.478 50.566 21.716-23.316 33.476-35.546 37.268-40.198 0-11.768 0-95.41 0-108.88 0-60.894-49.652-110.552-110.554-110.552-68.388-0.002-114.192 53.050-114.192 110.55zM437.246 345.482l-44.098 88.38 42.586 16.494 54.482-67.25c-27.706-19.674-50.456-35.838-52.97-37.624zM454.456 36.596l43.418 256.526h28.142l43.418-256.526-57.488-63.246-57.49 63.246z" />
<glyph unicode="&#xe901;" glyph-name="calendar" d="M15 212.336c8.281 0 15 6.711 15 15v436.883h886.258v-164.883c0-8.289 6.719-15 15-15 8.289 0 15 6.711 15 15v296.445c0 50.289-40.914 91.203-91.195 91.203h-39.336v18.578c0 20.094-16.344 36.437-36.437 36.437h-27.867c-20.086 0-36.43-16.344-36.43-36.437v-18.578h-99.484v18.578c0 20.094-16.344 36.437-36.437 36.437h-27.867c-20.086 0-36.43-16.344-36.43-36.437v-18.578h-99.492v18.578c0 20.094-16.344 36.437-36.437 36.437h-27.859c-20.094 0-36.437-16.344-36.437-36.437v-18.578h-99.484v18.578c0 20.094-16.344 36.437-36.437 36.437h-27.859c-20.094 0-36.437-16.344-36.437-36.437v-18.578h-23.125c-50.289 0-91.203-40.914-91.203-91.203v-568.445c0-8.289 6.719-15 15-15zM744.992 905.562c0 3.547 2.891 6.437 6.437 6.437h27.867c3.547 0 6.43-2.891 6.43-6.437v-72.875c0-3.547-2.883-6.437-6.43-6.437h-27.867c-3.547 0-6.437 2.883-6.437 6.437zM544.773 905.562c0 3.547 2.883 6.437 6.43 6.437h27.867c3.547 0 6.437-2.891 6.437-6.437v-72.875c0-3.547-2.891-6.437-6.437-6.437h-27.867c-3.547 0-6.43 2.883-6.43 6.437zM344.547 905.562c0 3.547 2.891 6.437 6.437 6.437h27.867c3.547 0 6.437-2.891 6.437-6.437v-72.875c0-3.547-2.891-6.437-6.437-6.437h-27.867c-3.547 0-6.437 2.883-6.437 6.437zM144.328 905.562c0 3.547 2.891 6.437 6.437 6.437h27.867c3.547 0 6.43-2.891 6.43-6.437v-72.875c0-3.547-2.883-6.437-6.43-6.437h-27.867c-3.547 0-6.437 2.883-6.437 6.437zM91.203 856.984h23.125v-24.297c0-20.094 16.344-36.437 36.437-36.437h27.867c20.086 0 36.43 16.344 36.43 36.437v24.297h99.492v-24.297c0-20.094 16.344-36.437 36.43-36.437h27.867c20.094 0 36.437 16.344 36.437 36.437v24.297h99.484v-24.297c0-20.094 16.344-36.437 36.437-36.437h27.867c20.086 0 36.43 16.344 36.43 36.437v24.297h99.484v-24.297c0-20.094 16.344-36.437 36.437-36.437h27.867c20.086 0 36.43 16.344 36.43 36.437v24.297h39.336c33.75 0 61.203-27.453 61.203-61.203v-101.562h-886.266v101.562c0 33.75 27.453 61.203 61.203 61.203zM169.82 72.836h-130.797c-4.977 0-9.023 4.047-9.023 9.023v77.117c0 8.289-6.719 15-15 15s-15-6.711-15-15v-77.117c0-21.516 17.508-39.023 39.023-39.023h130.797c8.281 0 15 6.719 15 15 0 8.289-6.719 15-15 15zM169.32 620.477h-52.141c-8.281 0-15-6.719-15-15 0-8.289 6.719-15 15-15h52.141c8.281 0 15 6.711 15 15 0 8.281-6.719 15-15 15zM277.414 590.477h52.141c8.281 0 15 6.711 15 15 0 8.281-6.719 15-15 15h-52.141c-8.281 0-15-6.719-15-15 0-8.289 6.719-15 15-15zM437.648 590.477h52.133c8.281 0 15 6.711 15 15 0 8.281-6.719 15-15 15h-52.133c-8.289 0-15-6.719-15-15 0-8.289 6.711-15 15-15zM597.875 590.477h52.141c8.281 0 15 6.711 15 15 0 8.281-6.719 15-15 15h-52.141c-8.281 0-15-6.719-15-15 0-8.289 6.719-15 15-15zM810.242 620.477h-52.133c-8.289 0-15-6.719-15-15 0-8.289 6.711-15 15-15h52.133c8.281 0 15 6.711 15 15 0 8.281-6.719 15-15 15zM169.32 545.047h-52.141c-8.281 0-15-6.711-15-15s6.719-15 15-15h52.141c8.281 0 15 6.711 15 15s-6.719 15-15 15zM277.414 515.047h52.141c8.281 0 15 6.711 15 15s-6.719 15-15 15h-52.141c-8.281 0-15-6.711-15-15s6.719-15 15-15zM437.648 515.047h52.133c8.281 0 15 6.711 15 15s-6.719 15-15 15h-52.133c-8.289 0-15-6.711-15-15s6.711-15 15-15zM597.875 515.047h52.141c8.281 0 15 6.711 15 15s-6.719 15-15 15h-52.141c-8.281 0-15-6.711-15-15s6.719-15 15-15zM810.242 545.047h-52.133c-8.289 0-15-6.711-15-15s6.711-15 15-15h52.133c8.281 0 15 6.711 15 15s-6.719 15-15 15zM277.781 220.57l77.125-77.125c11.156-11.156 25.984-17.297 41.766-17.297s30.617 6.141 41.766 17.297l211.211 211.211c23.031 23.031 23.031 60.508 0 83.539s-60.508 23.031-83.539 0l-169.437-169.437-35.359 35.352c-23.023 23.031-60.5 23.031-83.539 0-23.023-23.031-23.023-60.508 0.008-83.539zM298.992 282.898c5.664 5.664 13.109 8.5 20.555 8.5s14.891-2.836 20.555-8.5l45.961-45.961c5.859-5.859 15.352-5.859 21.211 0l180.047 180.039c11.344 11.336 29.781 11.336 41.109 0.008 11.336-11.336 11.336-29.781 0-41.117l-211.203-211.203c-5.492-5.492-12.789-8.516-20.555-8.516s-15.062 3.023-20.555 8.516l-77.125 77.125c-11.336 11.336-11.336 29.773 0 41.109zM946.258 311.281v119.695c0 8.289-6.711 15-15 15-8.281 0-15-6.711-15-15v-100.562c-27.352 14.18-58.391 22.203-91.266 22.203-109.734 0-199.008-89.273-199.008-199.008 0-28.742 6.133-56.070 17.141-80.773h-404.953c-8.281 0-15-6.711-15-15 0-8.281 6.719-15 15-15h421.57c35.758-53.18 96.484-88.234 165.25-88.234 109.734 0 199.008 89.273 199.008 199.008 0 64.125-30.5 121.258-77.742 157.672zM824.992-15.398c-93.195 0-169.008 75.812-169.008 169.008s75.82 169.008 169.008 169.008 169.008-75.812 169.008-169.008c0-93.195-75.82-169.008-169.008-169.008zM824.992 300.945c-81.242 0-147.336-66.102-147.336-147.336 0-81.242 66.094-147.336 147.336-147.336s147.328 66.094 147.328 147.336c0 81.234-66.094 147.336-147.328 147.336zM838.422 37.070c0.992 2.008 1.57 4.258 1.57 6.648v18.273c0 8.281-6.719 15-15 15s-15-6.719-15-15v-18.273c0-2.391 0.57-4.641 1.57-6.648-53.984 6.18-96.93 49.125-103.109 103.109 2-1 4.258-1.57 6.648-1.57h18.266c8.289 0 15 6.711 15 15s-6.711 15-15 15h-18.266c-2.391 0-4.648-0.578-6.648-1.57 6.18 53.984 49.125 96.93 103.109 103.109-1-2.008-1.57-4.258-1.57-6.648v-18.273c0-8.289 6.719-15 15-15s15 6.711 15 15v18.273c0 2.391-0.578 4.641-1.57 6.648 53.984-6.18 96.93-49.125 103.109-103.109-2.008 0.992-4.258 1.57-6.648 1.57h-18.273c-8.281 0-15-6.711-15-15s6.719-15 15-15h18.273c2.391 0 4.641 0.57 6.648 1.57-6.187-53.984-49.125-96.93-103.109-103.109zM858.055 168.609h-18.062v15.383c0 8.281-6.719 15-15 15-8.289 0-15-6.719-15-15v-30.383c0-8.289 6.711-15 15-15h33.062c8.281 0 15 6.711 15 15s-6.719 15-15 15z" />
<glyph unicode="&#xe902;" glyph-name="empleads-1" d="M1009 116.202c-8.286 0-15-6.716-15-15v-100.226c0-1.392-1.132-2.526-2.526-2.526h-56.996v219.154c0 8.284-6.714 15-15 15s-15-6.716-15-15v-219.156h-110.14l29.81 32.794c4.604 5.066 6.774 12.26 5.808 19.246-0.022 0.15-0.044 0.298-0.070 0.448l-33.51 197.992 6.166 9.282 1.606-1.14c5.498-3.906 12.51-5.33 19.294-3.636 6.662 1.666 12.244 6.148 15.312 12.292v0.002l34.098 68.342 77.89-30.166c3.074-1.336 43.25-19.758 43.25-67.69v-65.008c0.002-8.286 6.716-15.002 15.002-15.002s15 6.716 15 15v65.008c0 69.22-59.37 94.422-61.896 95.462-0.096 0.040-0.19 0.078-0.286 0.114l-132.634 51.368v27.32c20.704 16.656 35.244 40.662 39.61 68.028 10.326 1.296 19.906 5.43 27.856 12.268 11.4 9.804 17.942 24.070 17.942 39.136 0 12.026-4.174 23.534-11.648 32.674v40.476c0 79.212-64.444 143.654-143.652 143.654-35.562 0-68.122-13.016-93.236-34.5-0.324 11.494-4.438 22.446-11.608 31.214v40.474c0 79.212-64.444 143.654-143.652 143.654-79.212 0-143.654-64.444-143.654-143.654v-41.53c-7.21-8.616-11.244-19.004-11.6-30.030-16.024 13.694-35.202 24.004-56.576 29.632-8.024 2.112-16.218-2.674-18.328-10.686s2.674-16.218 10.686-18.328c49.826-13.12 84.626-58.314 84.626-109.898v-22.434c-0.648 0.134-2.728 0.492-2.808 0.504-0.204 4.234-1.276 6.82-3.584 10.14-3.84 5.518-10.736 12.392-32.916 36.232-7.904 8.49-20.688 10.048-30.392 3.704-37.99-24.816-84.144-37.464-126.976-34.95-13.952 0.818-22.666-5.312-26.38-15.358-0.332-0.054-4.042-0.802-4.248-0.852v23.014c0 49.738 33.236 94.484 80.822 108.818 7.932 2.388 12.426 10.756 10.038 18.69-2.39 7.934-10.77 12.428-18.692 10.036-28.94-8.716-54.954-26.864-73.244-51.096-18.926-25.068-28.928-54.962-28.928-86.45v-41.532c-7.556-9.028-11.642-20-11.642-31.618 0-25.68 18.92-48.076 45.876-51.416 4.416-26.726 18.916-52.356 41.8-69.782v-25.562l-132.486-51.364c-0.094-0.036-0.188-0.074-0.282-0.112-2.532-1.038-61.904-26.238-61.904-95.458v-235.238c0-17.938 14.592-32.528 32.53-32.528h461.941c6.456 0 12.462 1.914 17.53 5.17 5.064-3.256 11.072-5.17 17.53-5.17h461.943c17.936 0 32.528 14.59 32.528 32.528v100.226c-0.002 8.284-6.716 15-15.002 15zM151.404 509.485c-8.794 3.192-14.412 11.326-14.412 20.426 0 8.826 6.4 16.078 14.412 19.52v-39.946zM844.756 344.951l-29.444-59.012c-0.004 0.004-32.706 23.23-33.17 23.56 14.108 17.416 7.48 9.234 36.816 45.442l25.798-9.99zM760.459 330.395l-38.794 47.886v14.39c12.61-4.36 26.194-6.372 38.98-6.376 0.002 0 0.006 0 0.008 0h0.002c13.22 0.002 26.604 2.512 38.524 6.998v-15.104l-38.72-47.794zM778.070 275.589l-5.518-8.306h-24.182l-5.518 8.306 17.61 12.506 17.608-12.506zM511.961 511.239l-38.794 47.886v14.39c12.56-4.342 26.13-6.372 38.98-6.376 0.002 0 0.006 0 0.008 0h0.002c13.196 0 26.578 2.502 38.524 6.996v-15.102l-38.72-47.794zM529.571 456.429l-5.518-8.306h-24.182l-5.518 8.306 17.61 12.506 17.608-12.506zM393.835 660.773c2.452-0.668 4.972-1.122 7.53-1.438 4.416-26.726 18.916-52.356 41.8-69.782v-25.562l-30.602-11.862c-1.774 3.726-3.992 7.236-6.624 10.454v40.474c0 20.356-4.288 39.924-12.104 57.716zM591.671 676.657c0-43.906-35.816-79.512-79.514-79.512-49.302 0-82.25 38.21-82.25 79.512v70.264c47.366-1.896 96.572 12.142 136.802 37.182 13.526-14.504 21.574-22.93 24.964-26.842-0.002-37.346-0.002-51.766-0.002-80.604zM620.293 659.345c2.544 0.32 5.052 0.776 7.49 1.442-7.792-17.68-12.152-37.2-12.152-57.73v-41.53c-2.306-2.754-4.29-5.688-5.932-8.766l-29.016 11.236v27.32c20.702 16.658 35.244 40.664 39.61 68.028zM453.409 535.761l36.824-45.452-25.112-17.836c-0.014-0.010-0.024-0.020-0.038-0.030l-7.97-5.662-29.446 59.010 25.742 9.97zM546.485 506.193l23.974 29.592 25.798-9.99-29.442-59.014-7.988 5.672c-0.008 0.006-0.016 0.014-0.024 0.020l-25.158 17.87 12.84 15.85zM554.045 439.051l1.606-1.14c5.608-3.984 12.646-5.3 19.294-3.636 6.662 1.666 12.244 6.148 15.312 12.292v0.002l25.316 50.738c8.698-10.72 21.278-17.24 34.234-18.858 4.576-28.68 20.078-53.156 41.858-69.74v-25.56l-127.528-49.442-16.26 96.060 6.168 9.284zM701.907 354.919l36.824-45.452c-16.1-11.438-32.286-22.936-33.12-23.528l-29.446 59.010 25.742 9.97zM840.166 495.813c0.004-42.834-34.782-79.512-79.512-79.512-50.984 0-82.25 39.932-82.25 79.512v70.264c47.028-1.878 96.298 11.974 136.8 37.182 13.526-14.504 21.574-22.93 24.964-26.842-0.002-37.344-0.002-51.766-0.002-80.604zM884.586 529.909c0-9.116-5.636-17.234-14.412-20.424v40.806c9.072-3.304 14.412-11.594 14.412-20.382zM645.633 603.059c0 62.668 50.986 113.652 113.652 113.652 62.668 0 113.65-50.986 113.65-113.652v-22.434c-0.682 0.142-2.558 0.466-2.808 0.504-0.204 4.238-1.282 6.83-3.584 10.14-3.942 5.662-10.762 12.418-32.916 36.232-7.736 8.304-20.492 10.174-30.392 3.704-36.96-24.144-83.656-37.782-128.090-34.896-12.482 0.818-21.524-5.294-25.266-15.414-0.334-0.054-4.038-0.802-4.248-0.852v23.016zM648.403 549.429v-39.924c-8.82 3.18-14.412 11.336-14.412 20.406-0.002 8.826 6.394 16.074 14.412 19.518zM636.085 710.75c0-6.316-2.734-12.29-7.5-16.388-2.046-1.76-4.378-3.112-6.912-4.034v40.806c8.97-3.256 14.412-11.502 14.412-20.384zM510.785 897.552c62.668 0 113.652-50.984 113.652-113.652v-22.434c-0.678 0.14-2.558 0.466-2.808 0.504-0.222 4.594-1.546 7.418-4.248 11.072-4.016 5.436-11.42 12.91-32.252 35.302-7.866 8.446-20.642 10.076-30.392 3.704-39.032-25.5-86.382-37.91-129.3-34.836-10.5 0.794-20.386-5.55-24.054-15.472-0.334-0.054-4.040-0.802-4.248-0.852v23.010h-0.002c0 62.67 50.986 113.654 113.652 113.654zM399.901 730.272v-39.946c-8.794 3.192-14.412 11.326-14.412 20.426 0 8.776 6.35 16.054 14.412 19.52zM373.173 550.291c8.392-3.054 13.782-10.376 14.316-19.078 0.672-9.676-5.274-18.426-14.316-21.71v40.788zM371.783 478.453c14.148 1.77 27.134 9.226 35.65 20.696l26.236-52.58c0 0 0 0 0.002-0.002 3.066-6.146 8.648-10.626 15.31-12.292 6.586-1.646 13.632-0.386 19.294 3.636l1.606 1.14 6.166-9.282-16.254-96.034-127.608 49.422v27.308h-0.002c21.246 17.13 35.336 41.334 39.6 67.988zM263.459 330.395l-38.794 47.886v14.39c12.56-4.342 26.132-6.372 38.982-6.374 0.002 0 0.006 0 0.008 0 13.412 0 26.772 2.576 38.524 6.996v-15.104l-38.72-47.794zM281.071 275.589l-5.518-8.306h-24.182l-5.518 8.306 17.61 12.506 17.608-12.506zM321.957 354.941l25.8-9.992-29.444-59.010-7.988 5.672c-0.008 0.006-0.016 0.014-0.024 0.020l-25.158 17.868 36.814 45.442zM181.406 495.813v70.264c47.618-1.902 96.856 12.322 136.8 37.182 13.398-14.368 21.57-22.926 24.964-26.842 0-37.346 0-51.768 0-80.604 0-43.626-35.57-79.512-79.514-79.512-48.926 0-82.25 37.774-82.25 79.512zM204.91 354.919l36.824-45.452-25.112-17.836c-0.014-0.010-0.024-0.020-0.038-0.030l-7.97-5.662-29.446 59.010 25.742 9.97zM119.526-1.554v219.158c0 8.284-6.714 15-15 15s-15-6.716-15-15v-219.156h-56.996c-1.396 0-2.528 1.134-2.528 2.526v235.24c0 48.178 40.594 66.542 43.222 67.678l77.842 30.178 34.102-68.342c0 0 0 0 0.002-0.002 3.066-6.146 8.648-10.626 15.312-12.292 6.586-1.646 13.632-0.386 19.294 3.636l1.606 1.14 6.166-9.282-33.51-197.992c-0.026-0.148-0.048-0.298-0.070-0.448-0.964-6.982 1.206-14.176 5.812-19.25l29.806-32.79h-110.060zM224.146 49.040l31.858 188.242h14.918l31.86-188.242-39.318-43.254-39.318 43.254zM496.997 0.976c0-1.394-1.132-2.528-2.526-2.528h-56.992v219.156c0 8.284-6.714 15-15 15s-15-6.716-15-15v-219.156h-110.14l29.81 32.794c4.604 5.066 6.774 12.26 5.808 19.246-0.022 0.15-0.044 0.298-0.070 0.448l-33.51 197.992 6.166 9.282 1.606-1.14c4.014-2.852 8.766-4.34 13.588-4.34 8.798 0 16.992 4.93 21.020 12.996v0.002l34.098 68.34 77.89-30.166c22.704-9.876 43.25-35.346 43.25-67.688v-235.238zM511.999 290.721c-6.214 10.012-14.486 19.276-24.458 27.182l16.962 100.218h14.918l16.97-100.27c-10.238-8.13-18.402-17.478-24.392-27.13zM616.523-1.554v0 219.158c0 8.284-6.714 15-15 15s-15-6.716-15-15v-219.156h-56.994c-1.394 0-2.528 1.134-2.528 2.526v235.24c0 17.832 5.592 34.256 17.504 48.054 7.942 9.11 18.476 16.486 25.72 19.624l77.842 30.18 34.102-68.344c0 0 0 0 0.002-0.002 3.066-6.146 8.648-10.626 15.31-12.292 6.586-1.646 13.632-0.386 19.294 3.636l1.606 1.14 6.166-9.282-33.51-197.992c-0.026-0.148-0.048-0.298-0.070-0.448-0.964-6.982 1.206-14.176 5.812-19.25l29.806-32.79h-110.062zM721.143 49.038l31.86 188.242h14.918l31.86-188.242-39.32-43.254-39.318 43.254z" />
<glyph unicode="&#xe903;" glyph-name="background" d="M0 750.222h1024v-600.178h-1024v600.178zM0 750.222h1024v-600.178h-1024v600.178z" />
<glyph unicode="&#xe936;" glyph-name="campana" d="M130.384 414.256c-7.958 8.684-21.454 9.282-30.142 1.318-2.466-2.26-5.018-4.54-7.65-6.854-8.85-7.776-9.724-21.254-1.95-30.106 4.222-4.802 10.112-7.256 16.038-7.256 5 0 10.020 1.748 14.072 5.306 2.862 2.514 5.634 4.996 8.312 7.452 8.688 7.958 9.28 21.454 1.32 30.14zM144.678 429.166c3.712-2.584 7.958-3.826 12.166-3.826 6.746 0 13.384 3.194 17.53 9.15 35.126 50.476 40.412 100.36 47.41 191.45 0.904 11.748-7.886 22.004-19.638 22.906-11.782 0.902-22.002-7.892-22.904-19.638-6.592-85.804-11.038-128.89-39.886-170.348-6.738-9.668-4.35-22.966 5.322-29.694zM796.672 664.336c2.138-10.024 10.99-16.892 20.844-16.892 1.47 0 2.968 0.154 4.468 0.474 11.52 2.456 18.876 13.788 16.416 25.31-0.878 4.128-1.85 8.284-2.884 12.354-2.904 11.418-14.518 18.324-25.932 15.42-11.418-2.904-18.322-14.514-15.418-25.932 0.898-3.536 1.742-7.148 2.506-10.734zM930.968 409.094c-62.448 51.938-76.166 102.538-84.866 203.536-1.014 11.74-11.358 20.442-23.086 19.422-11.738-1.012-20.434-11.348-19.422-23.084 9.396-109.062 26.766-171.698 100.092-232.678 3.988-3.316 8.822-4.932 13.63-4.932 6.12 0 12.196 2.62 16.416 7.692 7.532 9.060 6.294 22.51-2.764 30.044zM883.808 331.522c-0.284 0.568-0.59 1.118-0.926 1.656-5.158 9.202-11.734 16.228-19.646 20.792-57.574 33.226-92.416 123.632-103.562 268.704-8.266 107.6-84.988 195.79-184.812 222.374 7.476 11.626 11.83 25.44 11.83 40.258 0.002 41.186-33.508 74.694-74.696 74.694-41.184 0-74.692-33.508-74.692-74.696 0-14.818 4.358-28.63 11.83-40.258-99.824-26.582-176.546-114.774-184.816-222.374-11.146-145.072-45.988-235.476-103.558-268.704-16.674-9.622-27.51-30.054-31.33-59.096-2.478-18.852-3.242-58.434 11.634-73.298 4-3.998 9.426-6.244 15.078-6.244h227.646c10.208-61.562 63.8-108.664 128.214-108.664 64.412 0 118.002 47.102 128.214 108.664h227.642c5.654 0 11.078 2.246 15.078 6.244 14.88 14.874 14.112 54.468 11.628 73.326-1.904 14.424-5.538 26.718-10.756 36.622zM511.996 917.334c17.662 0 32.030-14.368 32.030-32.030 0-17.66-14.366-32.028-32.030-32.028-17.658 0-32.026 14.368-32.026 32.028 0.002 17.662 14.37 32.030 32.026 32.030zM511.996 149.334c-40.796 0-75.138 28.122-84.682 65.996h169.362c-9.542-37.874-43.884-65.996-84.68-65.996zM852.468 257.996h-680.942c-0.884 6.974-1.35 17.084-0.134 28.47 2.042 19.064 7.512 28.712 10.692 30.55 71.496 41.262 112.312 140.174 124.774 302.388 8.236 107.218 98.346 191.206 205.136 191.206 106.792 0 196.9-83.99 205.136-191.206 5.996-78.038 18.57-141.382 37.95-190.748h-80.2c-11.778 0-21.334-9.55-21.334-21.334s9.556-21.334 21.334-21.334h100.646c9.644-16.498 20.442-30.7 32.394-42.666h-212.728c-11.778 0-21.334-9.55-21.334-21.334 0-11.782 9.556-21.334 21.334-21.334h254.908c1.024-3.976 1.906-8.676 2.496-14.186 1.222-11.386 0.754-21.496-0.128-28.472zM725.326-21.334l-426.666 0.008c-11.778 0-21.334-9.55-21.334-21.334 0-11.78 9.55-21.334 21.334-21.334l426.666-0.006c11.782 0 21.334 9.55 21.334 21.334s-9.55 21.332-21.334 21.332zM518.396 343.322h-12.8c-11.782 0-21.334-9.55-21.334-21.334 0-11.782 9.55-21.334 21.334-21.334h12.8c11.778 0 21.334 9.55 21.334 21.334s-9.554 21.334-21.334 21.334z" />
<glyph unicode="&#xe937;" d="M682.862-17.821h-352.256c-28.298 0-51.247 24.295-51.247 52.593v824.291c0 28.298 22.938 51.247 51.247 51.247h352.256c28.298 0 51.247-22.938 51.247-51.247v-824.291c0-28.298-22.938-52.593-51.247-52.593z" />
<glyph unicode="&#xe938;" d="M678.555-11.7h-343.643c-27.829 0-50.393 22.563-50.393 50.393v816.45c0 27.829 22.563 50.393 50.393 50.393h343.643c27.829 0 50.393-22.563 50.393-50.393v-816.438c0-27.841-22.563-50.404-50.393-50.404z" />
<glyph unicode="&#xe939;" d="M305.339 805.522h403.596v-716.496h-403.596v716.496z" />
<glyph unicode="&#xe93a;" d="M534.481 852.568h-54.98c-2.036 0-3.686 1.65-3.686 3.686v0c0 2.036 1.65 3.686 3.686 3.686h54.98c2.036 0 3.686-1.65 3.686-3.686v0c0-2.036-1.65-3.686-3.686-3.686z" />
<glyph unicode="&#xe93b;" d="M534.481 852.556h-54.98c-2.036 0-3.698 1.662-3.698 3.698s1.662 3.698 3.698 3.698h54.98c2.036 0 3.698-1.662 3.698-3.698 0.012-2.036-1.65-3.698-3.698-3.698zM479.501 859.929c-2.025 0-3.663-1.65-3.663-3.663 0-2.025 1.638-3.663 3.663-3.663h54.98c2.025 0 3.663 1.65 3.663 3.663 0 2.025-1.65 3.663-3.663 3.663h-54.98z" />
<glyph unicode="&#xe93c;" d="M305.257 805.522h403.749v-66.706h-403.749v66.706z" />
<glyph unicode="&#xe93d;" d="M541.842 38.985c0-19.39-15.719-35.109-35.109-35.109s-35.109 15.719-35.109 35.109c0 19.39 15.719 35.109 35.109 35.109s35.109-15.719 35.109-35.109z" />
<glyph unicode="&#xe93e;" d="M465.493 766.903v-16.911h-3.195v16.911h-5.208v2.703h13.587v-2.703h-5.184z" />
<glyph unicode="&#xe93f;" d="M484.077 749.992l-2.224 5.056h-7.771l-2.282-5.056h-3.347l9.503 20.386 9.491-20.386h-3.37zM475.265 757.704h5.465l-2.013 4.47c-0.117 0.281-0.234 0.609-0.363 0.983s-0.246 0.784-0.374 1.241c-0.105-0.433-0.222-0.831-0.339-1.194-0.117-0.374-0.246-0.714-0.374-1.030l-2.001-4.47z" />
<glyph unicode="&#xe940;" d="M489.285 749.992v19.614h3.195v-8.122l7.045 8.122h3.897l-7.771-8.719 8.695-10.895h-4.108l-7.759 10.018v-10.018h-3.195z" />
<glyph unicode="&#xe941;" d="M506.359 749.992v19.614h3.195v-19.614h-3.195z" />
<glyph unicode="&#xe942;" d="M534.235 759.764c0-1.393-0.257-2.715-0.784-3.956s-1.287-2.352-2.282-3.324c-1.006-0.971-2.142-1.72-3.417-2.235-1.264-0.515-2.598-0.772-3.991-0.772-1.416 0-2.762 0.257-4.037 0.784-1.287 0.527-2.411 1.264-3.394 2.235-0.995 0.971-1.755 2.071-2.282 3.312s-0.772 2.551-0.772 3.967c0 1.404 0.257 2.727 0.772 3.967s1.276 2.352 2.282 3.335c0.995 0.971 2.13 1.72 3.406 2.224 1.264 0.515 2.61 0.761 4.037 0.761 1.416 0 2.75-0.257 4.014-0.761 1.264-0.515 2.399-1.252 3.394-2.224 1.006-0.995 1.767-2.107 2.282-3.359s0.772-2.575 0.772-3.956zM530.924 759.764c0 0.995-0.187 1.931-0.538 2.832-0.363 0.889-0.878 1.685-1.556 2.387-0.655 0.69-1.428 1.217-2.294 1.592s-1.791 0.562-2.75 0.562c-0.96 0-1.884-0.187-2.75-0.55s-1.65-0.901-2.329-1.592c-0.679-0.69-1.194-1.475-1.556-2.376-0.351-0.889-0.538-1.837-0.538-2.844 0-0.995 0.176-1.931 0.538-2.809 0.363-0.889 0.878-1.674 1.556-2.376s1.451-1.229 2.317-1.592c0.866-0.363 1.791-0.55 2.762-0.55 0.96 0 1.861 0.187 2.727 0.55s1.638 0.901 2.329 1.592c0.679 0.702 1.194 1.486 1.556 2.376 0.339 0.878 0.527 1.814 0.527 2.797z" />
<glyph unicode="&#xe943;" d="M537.898 749.992v20.386l12.464-11.995c0.339-0.339 0.679-0.702 1.030-1.088s0.714-0.819 1.1-1.299v13.599h2.949v-20.375l-12.709 12.206c-0.339 0.328-0.667 0.679-0.983 1.042s-0.62 0.749-0.901 1.147v-13.634h-2.949z" />
<glyph unicode="&#xe944;" d="M694.050 783.907v2.27h1.393v4.166h-1.393v2.27c0 0.667-0.538 1.205-1.205 1.205h-17.051c-0.667 0-1.205-0.538-1.205-1.205v-8.707c0-0.667 0.538-1.205 1.205-1.205h17.051c0.667 0 1.205 0.538 1.205 1.205v0z" />
<glyph unicode="&#xe945;" d="M346.721 789.162c-2.891 2.902-6.753 4.658-11.141 4.658s-8.344-1.755-11.141-4.658c-0.176-0.176-0.269-0.351-0.269-0.609 0-0.269 0.082-0.445 0.269-0.609l1.229-1.229c0.351-0.351 0.878-0.351 1.229 0 2.2 2.2 5.266 3.593 8.695 3.593s6.495-1.404 8.695-3.593c0.351-0.351 0.878-0.351 1.229 0l1.229 1.229c0.176 0.176 0.269 0.351 0.269 0.609-0.023 0.269-0.105 0.527-0.293 0.609v0z" />
<glyph unicode="&#xe946;" d="M335.579 786.798c-2.458 0-4.564-0.96-6.144-2.551-0.351-0.351-0.351-0.878 0-1.229l1.229-1.229c0.351-0.351 0.878-0.351 1.229 0 0.96 0.96 2.282 1.486 3.686 1.486s2.715-0.609 3.686-1.486c0.351-0.351 0.878-0.351 1.229 0l1.229 1.229c0.351 0.351 0.351 0.878 0 1.229-1.58 1.592-3.686 2.551-6.144 2.551v0z" />
<glyph unicode="&#xe947;" d="M337.335 778.021c0-0.971-0.784-1.755-1.755-1.755s-1.755 0.784-1.755 1.755c0 0.971 0.784 1.755 1.755 1.755s1.755-0.784 1.755-1.755v0z" />
<glyph unicode="&#xe948;" d="M685.179 604.233h-356.095c-2.493 0-4.517 2.025-4.517 4.517v70.533c0 2.493 2.025 4.517 4.517 4.517h356.083c2.493 0 4.517-2.025 4.517-4.517v-70.533c0.012-2.493-2.013-4.517-4.506-4.517z" />
<glyph unicode="&#xe949;" d="M603.434 651.735c0-3.171-0.644-5.664-1.919-7.455-1.276-1.802-3.031-2.692-5.278-2.692-2.27 0-4.026 0.913-5.29 2.727s-1.884 4.365-1.884 7.654c0 3.253 0.632 5.793 1.908 7.619 1.276 1.814 3.043 2.727 5.313 2.727 2.294 0 4.061-0.913 5.29-2.738 1.241-1.837 1.861-4.447 1.861-7.841zM596.19 644.374c1.334 0 2.329 0.632 2.996 1.908 0.667 1.264 1.006 3.171 1.006 5.699 0 2.458-0.328 4.33-0.995 5.617-0.655 1.287-1.627 1.931-2.891 1.931-1.322 0-2.317-0.644-2.984-1.919-0.679-1.287-1.006-3.171-1.006-5.676 0-2.434 0.339-4.295 1.006-5.594 0.667-1.311 1.627-1.966 2.867-1.966z" />
<glyph unicode="&#xe94a;" d="M620.322 651.735c0-3.171-0.644-5.664-1.919-7.455-1.276-1.802-3.031-2.692-5.278-2.692-2.27 0-4.026 0.913-5.29 2.727s-1.884 4.365-1.884 7.654c0 3.253 0.632 5.793 1.908 7.619 1.276 1.814 3.043 2.727 5.313 2.727 2.294 0 4.061-0.913 5.29-2.738 1.241-1.837 1.861-4.447 1.861-7.841zM613.066 644.374c1.334 0 2.329 0.632 2.996 1.908 0.667 1.264 1.006 3.171 1.006 5.699 0 2.458-0.328 4.33-0.995 5.617-0.655 1.287-1.627 1.931-2.891 1.931-1.322 0-2.317-0.644-2.984-1.919-0.679-1.287-1.006-3.171-1.006-5.676 0-2.434 0.339-4.295 1.006-5.594 0.667-1.311 1.627-1.966 2.867-1.966z" />
<glyph unicode="&#xe94b;" d="M628.057 657.645c0 0.48 0.176 0.901 0.527 1.241 0.351 0.351 0.772 0.515 1.264 0.515 0.503 0 0.925-0.164 1.264-0.503 0.351-0.339 0.515-0.761 0.515-1.252 0-0.503-0.176-0.925-0.515-1.264s-0.772-0.515-1.264-0.515-0.925 0.176-1.264 0.515c-0.351 0.339-0.527 0.761-0.527 1.264zM628.057 648.306c0 0.48 0.176 0.901 0.527 1.252s0.772 0.538 1.264 0.538c0.503 0 0.925-0.176 1.264-0.515 0.351-0.351 0.515-0.772 0.515-1.264s-0.176-0.913-0.515-1.252c-0.339-0.339-0.772-0.515-1.264-0.515s-0.925 0.176-1.264 0.515c-0.351 0.339-0.527 0.749-0.527 1.241z" />
<glyph unicode="&#xe94c;" d="M654.927 651.735c0-3.171-0.644-5.664-1.919-7.455-1.276-1.802-3.031-2.692-5.278-2.692-2.27 0-4.026 0.913-5.29 2.727s-1.884 4.365-1.884 7.654c0 3.253 0.632 5.793 1.908 7.619 1.276 1.814 3.043 2.727 5.313 2.727 2.294 0 4.061-0.913 5.29-2.738 1.241-1.837 1.861-4.447 1.861-7.841zM647.683 644.374c1.334 0 2.329 0.632 2.996 1.908 0.667 1.264 1.006 3.171 1.006 5.699 0 2.458-0.328 4.33-0.995 5.617-0.655 1.287-1.627 1.931-2.891 1.931-1.322 0-2.317-0.644-2.984-1.919-0.679-1.287-1.006-3.171-1.006-5.676 0-2.434 0.339-4.295 1.006-5.594 0.667-1.311 1.627-1.966 2.867-1.966z" />
<glyph unicode="&#xe94d;" d="M671.814 651.735c0-3.171-0.644-5.664-1.919-7.455-1.276-1.802-3.031-2.692-5.278-2.692-2.27 0-4.026 0.913-5.29 2.727s-1.884 4.365-1.884 7.654c0 3.253 0.632 5.793 1.908 7.619 1.276 1.814 3.043 2.727 5.313 2.727 2.294 0 4.061-0.913 5.29-2.738 1.241-1.837 1.861-4.447 1.861-7.841zM664.558 644.374c1.334 0 2.329 0.632 2.996 1.908 0.667 1.264 1.006 3.171 1.006 5.699 0 2.458-0.328 4.33-0.995 5.617-0.655 1.287-1.627 1.931-2.891 1.931-1.322 0-2.317-0.644-2.984-1.919-0.679-1.287-1.006-3.171-1.006-5.676 0-2.434 0.339-4.295 1.006-5.594 0.667-1.311 1.627-1.966 2.867-1.966z" />
<glyph unicode="&#xe94e;" d="M595.781 626.761c0.304-0.164 0.538-0.398 0.726-0.726 0.176-0.328 0.269-0.726 0.269-1.194v-3.043h-0.644v2.926c0 0.562-0.14 0.983-0.41 1.287-0.269 0.293-0.644 0.445-1.112 0.445-0.48 0-0.843-0.152-1.123-0.445-0.269-0.293-0.41-0.726-0.41-1.287v-2.926h-0.655v6.928h0.655v-2.645c0.176 0.304 0.41 0.538 0.702 0.69s0.632 0.234 0.983 0.234c0.386 0 0.714-0.082 1.018-0.246z" />
<glyph unicode="&#xe94f;" d="M601.667 626.668c0.386-0.222 0.69-0.538 0.913-0.936s0.339-0.866 0.339-1.381c0-0.515-0.117-0.983-0.351-1.381s-0.562-0.714-0.96-0.936c-0.41-0.222-0.843-0.328-1.334-0.328-0.48 0-0.901 0.105-1.276 0.328s-0.667 0.527-0.878 0.936c-0.211 0.398-0.316 0.866-0.316 1.381s0.117 0.983 0.339 1.381c0.222 0.398 0.527 0.714 0.913 0.936s0.819 0.328 1.299 0.328 0.925-0.105 1.311-0.328zM599.397 626.235c-0.281-0.164-0.503-0.41-0.667-0.726s-0.246-0.702-0.246-1.147c0-0.445 0.082-0.831 0.234-1.147 0.152-0.328 0.374-0.562 0.644-0.726s0.585-0.246 0.925-0.246 0.667 0.082 0.96 0.257c0.304 0.164 0.538 0.41 0.726 0.726s0.281 0.702 0.281 1.147-0.082 0.831-0.257 1.147c-0.176 0.316-0.41 0.562-0.702 0.726s-0.609 0.246-0.948 0.246c-0.363-0.012-0.667-0.094-0.948-0.257z" />
<glyph unicode="&#xe950;" d="M606.231 627.007v-0.679h-0.187c-0.445 0-0.796-0.117-1.030-0.363s-0.363-0.667-0.363-1.252v-2.902h-0.655v5.114h0.655v-0.843c0.281 0.609 0.807 0.925 1.58 0.925z" />
<glyph unicode="&#xe951;" d="M610.667 626.668c0.351-0.222 0.609-0.515 0.772-0.866v1.112h0.655v-5.114h-0.655v1.123c-0.164-0.351-0.433-0.644-0.772-0.878-0.351-0.234-0.761-0.339-1.217-0.339s-0.878 0.117-1.264 0.339c-0.374 0.222-0.679 0.55-0.889 0.96s-0.328 0.878-0.328 1.393 0.105 0.971 0.328 1.369c0.211 0.398 0.515 0.702 0.889 0.913s0.796 0.328 1.264 0.328c0.456 0 0.866-0.117 1.217-0.339zM608.595 626.199c-0.293-0.164-0.527-0.398-0.69-0.702-0.176-0.304-0.257-0.667-0.257-1.088s0.082-0.784 0.257-1.112 0.41-0.573 0.69-0.749c0.293-0.176 0.597-0.269 0.936-0.269s0.655 0.082 0.948 0.257c0.293 0.176 0.527 0.41 0.69 0.726 0.176 0.316 0.257 0.679 0.257 1.1s-0.082 0.784-0.257 1.1c-0.176 0.316-0.398 0.562-0.69 0.726-0.293 0.176-0.609 0.257-0.948 0.257-0.328 0-0.644-0.082-0.936-0.246z" />
<glyph unicode="&#xe952;" d="M616.495 626.574c0.304-0.281 0.468-0.679 0.503-1.17h-0.679c-0.012 0.316-0.117 0.573-0.316 0.772s-0.48 0.304-0.819 0.304c-0.363 0-0.644-0.094-0.843-0.257-0.199-0.176-0.304-0.386-0.304-0.644 0-0.222 0.059-0.386 0.187-0.515 0.117-0.129 0.269-0.222 0.445-0.281s0.421-0.129 0.737-0.199c0.363-0.082 0.655-0.164 0.889-0.246s0.421-0.222 0.573-0.421c0.152-0.199 0.234-0.456 0.234-0.796 0-0.281-0.082-0.515-0.234-0.726s-0.374-0.374-0.655-0.492c-0.281-0.117-0.609-0.176-0.983-0.176-0.562 0-0.995 0.14-1.322 0.433s-0.503 0.679-0.538 1.17h0.679c0.012-0.316 0.129-0.573 0.339-0.772s0.492-0.304 0.843-0.304c0.398 0 0.69 0.082 0.901 0.234 0.211 0.164 0.304 0.374 0.304 0.644 0 0.222-0.059 0.386-0.187 0.515s-0.281 0.222-0.456 0.293c-0.176 0.070-0.433 0.129-0.749 0.199-0.363 0.082-0.655 0.164-0.878 0.246s-0.41 0.211-0.562 0.398c-0.152 0.187-0.234 0.433-0.234 0.737 0 0.269 0.082 0.527 0.234 0.761s0.374 0.41 0.667 0.55c0.293 0.14 0.609 0.199 0.971 0.199 0.527-0.023 0.948-0.164 1.252-0.456z" />
<glyph unicode="&#xe953;" d="M457.699 210.678c-0.328-0.585-0.831-1.065-1.486-1.428s-1.475-0.538-2.434-0.538c-0.819 0-1.556 0.129-2.212 0.398-0.667 0.269-1.182 0.644-1.568 1.147s-0.573 1.088-0.573 1.755h1.439c0.047-0.62 0.316-1.135 0.796-1.545s1.182-0.609 2.118-0.609c0.971 0 1.744 0.246 2.305 0.737s0.843 1.112 0.843 1.872c0 0.573-0.152 1.018-0.445 1.346s-0.667 0.562-1.112 0.714c-0.445 0.152-1.042 0.316-1.791 0.468-0.889 0.199-1.615 0.398-2.165 0.609s-1.018 0.562-1.416 1.065c-0.386 0.492-0.585 1.17-0.585 2.048 0 1.112 0.386 2.013 1.159 2.68 0.772 0.679 1.837 1.006 3.195 1.006 1.17 0 2.118-0.293 2.844-0.878s1.17-1.358 1.322-2.329h-1.533c-0.047 0.538-0.328 1.018-0.819 1.428s-1.159 0.609-2.001 0.609c-0.866 0-1.568-0.211-2.095-0.644s-0.796-1.053-0.796-1.861c0-0.573 0.152-1.018 0.445-1.358s0.679-0.573 1.123-0.737 1.053-0.316 1.802-0.48c0.913-0.211 1.627-0.41 2.165-0.609s0.995-0.538 1.381-1.018c0.386-0.48 0.573-1.135 0.573-1.978 0.012-0.667-0.152-1.287-0.48-1.872z" />
<glyph unicode="&#xe954;" d="M462.181 223.223v-14.395h-1.358v14.395h1.358z" />
<glyph unicode="&#xe955;" d="M465.095 223.165c0.199 0.199 0.433 0.293 0.702 0.293 0.281 0 0.527-0.094 0.714-0.293s0.281-0.433 0.281-0.702c0-0.281-0.094-0.527-0.281-0.714-0.187-0.199-0.421-0.293-0.714-0.293-0.269 0-0.503 0.094-0.702 0.293s-0.293 0.433-0.293 0.714c0 0.281 0.094 0.503 0.293 0.702zM466.452 219.455v-10.614h-1.358v10.614h1.358z" />
<glyph unicode="&#xe956;" d="M476.353 218.952c0.726-0.468 1.264-1.065 1.615-1.814v6.085h1.358v-14.395h-1.358v2.329c-0.351-0.737-0.889-1.346-1.615-1.814s-1.568-0.714-2.528-0.714c-0.96 0-1.837 0.234-2.621 0.714s-1.404 1.135-1.849 1.989c-0.445 0.854-0.667 1.826-0.667 2.902s0.222 2.025 0.667 2.844c0.445 0.819 1.065 1.451 1.837 1.896s1.65 0.667 2.621 0.667c0.971 0 1.814-0.234 2.54-0.69zM472.070 217.969c-0.609-0.339-1.088-0.831-1.439-1.463-0.363-0.644-0.538-1.393-0.538-2.27s0.176-1.638 0.538-2.317 0.843-1.194 1.439-1.568c0.597-0.374 1.241-0.55 1.943-0.55 0.714 0 1.369 0.176 1.978 0.538 0.597 0.351 1.077 0.866 1.439 1.521 0.351 0.655 0.538 1.416 0.538 2.282s-0.176 1.627-0.538 2.282-0.831 1.159-1.439 1.521c-0.609 0.351-1.264 0.538-1.978 0.538-0.69 0-1.346-0.176-1.943-0.515z" />
<glyph unicode="&#xe957;" d="M491.719 213.662h-8.754c0.047-1.217 0.421-2.177 1.112-2.879s1.556-1.053 2.61-1.053c0.819 0 1.51 0.187 2.095 0.562 0.573 0.374 0.971 0.866 1.194 1.475h1.463c-0.351-0.913-0.925-1.662-1.709-2.247s-1.802-0.889-3.031-0.889c-0.995 0-1.884 0.234-2.657 0.69s-1.369 1.1-1.802 1.931c-0.433 0.831-0.655 1.791-0.655 2.879 0 1.1 0.222 2.071 0.655 2.902s1.065 1.475 1.861 1.931 1.72 0.679 2.774 0.679c0.983 0 1.849-0.222 2.598-0.655s1.322-1.030 1.732-1.779c0.41-0.749 0.609-1.592 0.609-2.504-0.023-0.374-0.047-0.726-0.094-1.042zM490.397 214.727c0 0.784-0.164 1.451-0.492 2.036-0.328 0.573-0.772 1.018-1.334 1.334s-1.194 0.468-1.896 0.468c-1.030 0-1.884-0.339-2.575-1.018s-1.077-1.615-1.135-2.809h7.431z" />
<glyph unicode="&#xe958;" d="M501.631 218.378v-7.033c0-0.527 0.105-0.901 0.316-1.123 0.211-0.211 0.573-0.316 1.112-0.316h1.521v-1.065h-1.814c-1.662 0-2.493 0.831-2.493 2.504v7.033h-1.475v1.065h1.475v2.668h1.358v-2.668h2.937v-1.065h-2.937z" />
<glyph unicode="&#xe959;" d="M513.767 218.952c0.807-0.456 1.439-1.1 1.908-1.931s0.702-1.791 0.702-2.879c0-1.077-0.246-2.036-0.737-2.867s-1.159-1.486-2.001-1.943c-0.843-0.456-1.767-0.69-2.762-0.69-0.983 0-1.861 0.234-2.645 0.69-0.772 0.456-1.381 1.1-1.814 1.931s-0.655 1.791-0.655 2.879 0.234 2.048 0.702 2.879 1.1 1.475 1.908 1.931c0.807 0.456 1.709 0.69 2.703 0.69 0.983 0 1.884-0.222 2.692-0.69zM509.039 218.039c-0.585-0.339-1.042-0.843-1.393-1.51-0.339-0.667-0.515-1.463-0.515-2.387s0.164-1.709 0.492-2.387c0.328-0.667 0.772-1.17 1.334-1.521 0.562-0.339 1.205-0.515 1.919-0.515s1.381 0.176 2.001 0.527c0.62 0.351 1.123 0.854 1.51 1.521s0.573 1.451 0.573 2.376-0.187 1.709-0.55 2.387c-0.363 0.667-0.843 1.17-1.451 1.521-0.609 0.339-1.264 0.515-1.978 0.515-0.714-0.012-1.358-0.176-1.943-0.527z" />
<glyph unicode="&#xe95a;" d="M534.247 221.456c1.065-0.62 1.872-1.533 2.422-2.727h-1.65c-0.41 0.784-1.006 1.404-1.791 1.826-0.784 0.433-1.662 0.644-2.645 0.644-1.030 0-1.954-0.234-2.774-0.702s-1.475-1.123-1.943-1.989c-0.48-0.854-0.714-1.849-0.714-2.973s0.234-2.118 0.714-2.973c0.468-0.854 1.123-1.521 1.943-1.989s1.744-0.702 2.774-0.702c0.983 0 1.861 0.222 2.645 0.655 0.772 0.433 1.369 1.042 1.791 1.837h1.65c-0.538-1.194-1.346-2.095-2.422-2.727-1.065-0.62-2.294-0.936-3.663-0.936-1.264 0-2.411 0.293-3.452 0.878s-1.872 1.393-2.469 2.434c-0.609 1.042-0.901 2.212-0.901 3.523s0.304 2.481 0.901 3.534c0.597 1.042 1.428 1.861 2.469 2.446s2.188 0.878 3.452 0.878c1.369 0 2.598-0.316 3.663-0.936z" />
<glyph unicode="&#xe95b;" d="M540.965 223.223v-14.395h-1.358v14.395h1.358z" />
<glyph unicode="&#xe95c;" d="M551.216 218.952c0.807-0.456 1.439-1.1 1.908-1.931s0.702-1.791 0.702-2.879c0-1.077-0.246-2.036-0.737-2.867s-1.159-1.486-2.001-1.943c-0.843-0.456-1.767-0.69-2.762-0.69-0.983 0-1.861 0.234-2.645 0.69-0.772 0.456-1.381 1.1-1.814 1.931s-0.655 1.791-0.655 2.879 0.234 2.048 0.702 2.879 1.1 1.475 1.908 1.931c0.807 0.456 1.709 0.69 2.703 0.69 0.983 0 1.884-0.222 2.692-0.69zM546.488 218.039c-0.585-0.339-1.042-0.843-1.393-1.51-0.339-0.667-0.515-1.463-0.515-2.387s0.164-1.709 0.492-2.387c0.328-0.667 0.772-1.17 1.334-1.521 0.562-0.339 1.205-0.515 1.919-0.515s1.381 0.176 2.001 0.527c0.62 0.351 1.123 0.854 1.51 1.521s0.573 1.451 0.573 2.376-0.187 1.709-0.55 2.387c-0.363 0.667-0.843 1.17-1.451 1.521-0.609 0.339-1.264 0.515-1.978 0.515-0.702-0.012-1.358-0.176-1.943-0.527z" />
<glyph unicode="&#xe95d;" d="M563.574 218.776c0.784-0.585 1.334-1.404 1.662-2.469h-1.463c-0.222 0.714-0.609 1.264-1.17 1.662s-1.264 0.597-2.107 0.597c-1.1 0-2.001-0.374-2.68-1.135-0.69-0.761-1.030-1.849-1.030-3.277 0-1.416 0.339-2.504 1.030-3.265s1.58-1.147 2.68-1.147c0.843 0 1.545 0.199 2.107 0.597s0.96 0.948 1.17 1.662h1.463c-0.339-1.006-0.901-1.826-1.697-2.434s-1.814-0.913-3.054-0.913c-0.995 0-1.884 0.234-2.657 0.69s-1.369 1.1-1.802 1.931c-0.433 0.831-0.655 1.791-0.655 2.879s0.211 2.048 0.655 2.879c0.433 0.831 1.042 1.475 1.802 1.931s1.662 0.69 2.657 0.69c1.276-0.012 2.305-0.304 3.090-0.878z" />
<glyph unicode="&#xe95e;" d="M570.175 214.2l5.149-5.372h-1.872l-4.377 4.763v-4.763h-1.358v14.395h1.358v-8.52l4.283 4.74h1.966l-5.149-5.243z" />
<glyph unicode="&#xe95f;" d="M584.172 222.252v-13.411h-1.358v13.411h1.358z" />
<glyph unicode="&#xe960;" d="M594.049 219.151c0.632-0.328 1.135-0.831 1.51-1.521 0.374-0.679 0.562-1.51 0.562-2.481v-6.32h-1.346v6.062c0 1.17-0.281 2.048-0.843 2.668-0.562 0.609-1.334 0.913-2.305 0.913-0.983 0-1.755-0.304-2.329-0.913-0.562-0.609-0.843-1.498-0.843-2.668v-6.062h-1.358v10.614h1.358v-1.732c0.363 0.632 0.854 1.112 1.463 1.439 0.62 0.328 1.299 0.492 2.048 0.492s1.451-0.164 2.083-0.492z" />
<glyph unicode="&#xe961;" d="M645.682 626.995c0.304-0.164 0.538-0.41 0.714-0.749 0.176-0.328 0.257-0.737 0.246-1.194l-0.070-3.043-0.644 0.012 0.059 2.926c0.012 0.562-0.117 0.995-0.374 1.287s-0.632 0.456-1.1 0.468c-0.48 0.012-0.854-0.129-1.123-0.421-0.281-0.293-0.421-0.714-0.433-1.276l-0.059-2.926-0.644 0.012 0.059 2.926c0.012 0.562-0.117 0.995-0.374 1.287s-0.632 0.456-1.1 0.468c-0.48 0.012-0.854-0.129-1.123-0.421-0.281-0.293-0.421-0.714-0.433-1.276l-0.059-2.926-0.655 0.012 0.105 5.114 0.655-0.012-0.012-0.831c0.176 0.304 0.421 0.527 0.726 0.679s0.632 0.222 0.995 0.211c0.41-0.012 0.772-0.117 1.088-0.316s0.55-0.492 0.702-0.866c0.187 0.363 0.445 0.632 0.772 0.831s0.714 0.281 1.135 0.281c0.328-0.012 0.655-0.094 0.948-0.257z" />
<glyph unicode="&#xe962;" d="M648.701 627.077l-0.105-5.114-0.655 0.012 0.105 5.114 0.655-0.012zM648.081 628.879c0.094 0.094 0.211 0.14 0.339 0.129 0.14 0 0.246-0.047 0.339-0.152 0.094-0.094 0.129-0.211 0.129-0.339 0-0.14-0.047-0.246-0.14-0.339s-0.211-0.14-0.339-0.129c-0.129 0-0.246 0.047-0.339 0.152-0.094 0.094-0.14 0.211-0.129 0.351 0 0.117 0.047 0.234 0.14 0.328z" />
<glyph unicode="&#xe963;" d="M653.441 626.831c0.293-0.164 0.538-0.41 0.714-0.749 0.176-0.328 0.257-0.726 0.246-1.194l-0.070-3.043-0.644 0.012 0.059 2.926c0.012 0.562-0.117 0.995-0.374 1.287-0.269 0.304-0.632 0.456-1.1 0.468-0.48 0.012-0.854-0.129-1.123-0.421-0.281-0.293-0.421-0.714-0.433-1.276l-0.059-2.926-0.655 0.012 0.105 5.114 0.655-0.012-0.012-0.831c0.176 0.304 0.421 0.527 0.726 0.679s0.632 0.222 0.995 0.211c0.351-0.012 0.679-0.094 0.971-0.257z" />
<glyph unicode="&#xe964;" d="M660.1 626.831l-0.105-5.114-0.655 0.012 0.023 0.831c-0.187-0.304-0.421-0.527-0.726-0.679s-0.632-0.222-0.995-0.211c-0.363 0.012-0.69 0.094-0.995 0.257s-0.538 0.41-0.714 0.749c-0.176 0.328-0.257 0.737-0.246 1.205l0.070 3.043 0.644-0.012-0.059-2.926c-0.012-0.562 0.117-0.995 0.374-1.287 0.269-0.293 0.632-0.456 1.1-0.468 0.48-0.012 0.854 0.129 1.123 0.421 0.281 0.293 0.421 0.714 0.433 1.276l0.059 2.926 0.667-0.023z" />
<glyph unicode="&#xe965;" d="M662.358 626.27l-0.070-3.394c0-0.257 0.047-0.433 0.14-0.538s0.269-0.164 0.527-0.164l0.726-0.012-0.012-0.515-0.866 0.023c-0.796 0.012-1.194 0.433-1.17 1.229l0.070 3.394-0.714 0.012 0.012 0.515 0.714-0.012 0.023 1.276 0.655-0.012-0.023-1.287 1.416-0.035-0.012-0.515-1.416 0.035z" />
<glyph unicode="&#xe966;" d="M668.198 626.422c0.386-0.234 0.679-0.55 0.901-0.948 0.211-0.41 0.316-0.866 0.304-1.393-0.012-0.515-0.14-0.971-0.386-1.369s-0.573-0.702-0.983-0.913c-0.41-0.211-0.854-0.316-1.334-0.304s-0.889 0.129-1.264 0.363c-0.374 0.234-0.655 0.55-0.854 0.948s-0.293 0.866-0.281 1.393 0.129 0.983 0.363 1.381 0.55 0.702 0.936 0.913c0.386 0.211 0.831 0.316 1.311 0.304s0.901-0.152 1.287-0.374zM665.916 626.024c-0.281-0.164-0.515-0.398-0.679-0.714-0.176-0.316-0.257-0.69-0.269-1.147-0.012-0.445 0.059-0.831 0.211-1.147 0.152-0.328 0.363-0.573 0.62-0.749 0.269-0.176 0.573-0.257 0.913-0.269s0.667 0.070 0.971 0.234 0.55 0.398 0.737 0.714c0.187 0.316 0.293 0.69 0.293 1.135 0.012 0.445-0.070 0.831-0.234 1.147-0.164 0.328-0.398 0.573-0.679 0.749s-0.597 0.257-0.948 0.269c-0.339 0.012-0.655-0.059-0.936-0.222z" />
<glyph unicode="&#xe967;" d="M673.523 626.211c0.293-0.293 0.456-0.69 0.48-1.182l-0.679 0.012c0 0.316-0.105 0.573-0.304 0.784s-0.468 0.316-0.819 0.328c-0.363 0.012-0.644-0.070-0.854-0.246s-0.316-0.386-0.316-0.644c0-0.222 0.047-0.398 0.176-0.527s0.269-0.234 0.445-0.293 0.421-0.14 0.737-0.211c0.363-0.094 0.655-0.176 0.878-0.269s0.41-0.234 0.562-0.433 0.222-0.468 0.222-0.796c0-0.269-0.094-0.515-0.246-0.726-0.164-0.211-0.386-0.374-0.667-0.48-0.293-0.117-0.62-0.164-0.983-0.152-0.562 0.012-0.995 0.164-1.311 0.456s-0.492 0.69-0.503 1.182l0.679-0.012c0-0.316 0.117-0.585 0.316-0.784 0.211-0.199 0.492-0.316 0.831-0.316 0.398-0.012 0.69 0.059 0.901 0.222 0.211 0.152 0.316 0.363 0.328 0.632 0 0.222-0.059 0.386-0.176 0.527-0.117 0.129-0.269 0.234-0.456 0.304s-0.433 0.14-0.749 0.222c-0.363 0.094-0.655 0.176-0.866 0.257-0.222 0.082-0.41 0.222-0.55 0.41-0.152 0.187-0.222 0.433-0.211 0.749 0 0.269 0.094 0.527 0.246 0.749 0.164 0.222 0.386 0.41 0.679 0.538s0.62 0.187 0.983 0.187c0.515-0.047 0.925-0.199 1.229-0.492z" />
<glyph unicode="&#xe968;" d="M359.278 661.039c-9.397 0-17.016-7.619-17.016-17.016s7.619-17.016 17.016-17.016 17.016 7.619 17.016 17.016c-0.012 9.397-7.619 17.004-17.016 17.016zM371.811 643.297h2.996c-0.386-8.005-6.788-14.406-14.792-14.792v2.996c0 0.398-0.328 0.726-0.726 0.726s-0.726-0.328-0.726-0.726v-2.996c-8.005 0.386-14.406 6.788-14.792 14.792h2.996c0.398 0 0.726 0.328 0.726 0.726s-0.328 0.726-0.726 0.726h-2.996c0.386 8.005 6.788 14.406 14.792 14.792v-2.996c0-0.398 0.328-0.726 0.726-0.726s0.726 0.328 0.726 0.726v2.996c8.005-0.386 14.406-6.788 14.792-14.792h-2.996c-0.398 0-0.726-0.328-0.726-0.726s0.316-0.726 0.726-0.726v0z" />
<glyph unicode="&#xe969;" d="M360.003 644.327v7.361c0 0.398-0.328 0.726-0.726 0.726s-0.726-0.328-0.726-0.726v-7.665c0-0.187 0.082-0.374 0.211-0.515l7.174-7.303c0.281-0.293 0.749-0.293 1.030-0.012 0.293 0.281 0.293 0.749 0.012 1.030v0l-6.975 7.104z" />
<glyph unicode="&#xe96a;" d="M414.094 191.122h-44.014c-1.744 0-3.16 1.416-3.16 3.16v36.981c0 1.744 1.416 3.16 3.16 3.16h44.014c1.744 0 3.16-1.416 3.16-3.16v-36.993c0-1.732-1.416-3.148-3.16-3.148z" />
<glyph unicode="&#xe96b;" d="M411.426 126.944l-11.598-11.598c-0.094-0.094-0.164-0.211-0.187-0.328l-0.995-3.839c-0.070-0.246 0.012-0.515 0.187-0.702 0.14-0.14 0.328-0.211 0.515-0.211 0.059 0 0.117 0.012 0.187 0.023l3.839 0.995c0.129 0.035 0.246 0.094 0.328 0.187l11.598 11.598c0 0 0 0 0 0s0 0 0 0l2.329 2.329c0.281 0.281 0.281 0.749 0 1.030l-2.832 2.832c-0.14 0.14-0.328 0.211-0.515 0.211-0.199 0-0.374-0.082-0.515-0.211l-2.341-2.317c0 0 0 0 0 0v0 0zM402.812 112.655l-2.434-0.632 0.632 2.434 10.942 10.942 1.802-1.802-10.942-10.942zM414.281 127.728l1.802-1.802-1.299-1.299-1.802 1.802 1.299 1.299z" />
<glyph unicode="&#xe96c;" d="M417.113 121.572c-0.398 0-0.726-0.328-0.726-0.726v-23.499h-22.938v27.958h13.54c0.41 0 0.726 0.328 0.726 0.726s-0.328 0.726-0.726 0.726h-14.266c-0.41 0-0.726-0.328-0.726-0.726v-29.421c0-0.398 0.328-0.726 0.726-0.726h24.4c0.41 0 0.726 0.328 0.726 0.726v24.225c0 0.41-0.328 0.737-0.737 0.737v0z" />
<glyph unicode="&#xe96d;" d="M516.962 112.818c-0.445 0-0.807-0.363-0.807-0.807v-14.488h-8.73v9.093c0 0.445-0.363 0.807-0.807 0.807h-6.366c-0.445 0-0.807-0.363-0.807-0.807v-7.209c0-0.445 0.363-0.807 0.807-0.807s0.807 0.363 0.807 0.807v6.401h4.74v-8.286h-15.097v19.907l12.721 10.193 13.025-10.439c0.351-0.281 0.866-0.222 1.147 0.129s0.222 0.866-0.129 1.147l-13.54 10.849c-0.293 0.234-0.726 0.234-1.018 0l-13.54-10.849c-0.187-0.152-0.304-0.386-0.304-0.632v-21.112c0-0.445 0.363-0.807 0.807-0.807h27.080c0.445 0 0.807 0.363 0.807 0.807v15.296c0.012 0.445-0.351 0.807-0.796 0.807v0z" />
<glyph unicode="&#xe96e;" d="M605.635 128.348c-9.058 0-16.641-7.583-16.641-16.641s7.583-16.641 16.641-16.641c9.386 0 16.208 7.595 16.641 16.641-0.421 9.035-7.256 16.641-16.641 16.641zM605.635 96.704c-8.157 0-14.991 6.834-14.991 14.991 0 8.145 6.846 14.991 14.991 14.991 8.426 0 14.605-6.858 14.991-14.991-0.386-8.145-6.53-14.991-14.991-14.991z" />
<glyph unicode="&#xe96f;" d="M613.546 120.437c-4.939 0-9.889 0-14.828 0-1.065 0-1.065-1.65 0-1.65 4.939 0 9.889 0 14.828 0 1.065 0 1.065 1.65 0 1.65z" />
<glyph unicode="&#xe970;" d="M613.546 112.526c-4.939 0-9.889 0-14.828 0-1.065 0-1.065-1.65 0-1.65 4.939 0 9.889 0 14.828 0 1.065 0 1.065 1.65 0 1.65z" />
<glyph unicode="&#xe971;" d="M613.546 104.615c-4.939 0-9.889 0-14.828 0-1.065 0-1.065-1.65 0-1.65 4.939 0 9.889 0 14.828 0 1.065 0 1.065 1.65 0 1.65z" />
<glyph unicode="&#xe972;" d="M839.36 667.812h-57.805v191.172h57.805c17.414 0 31.531-14.117 31.531-31.531v-128.117c-0.008-17.406-14.117-31.524-31.531-31.524z" />
<glyph unicode="&#xe973;" d="M185.531 730.984h56.391v128h-56.391c-17.414 0-31.531-14.117-31.531-31.531v-64.945c0-17.406 14.117-31.524 31.531-31.524z" />
<glyph unicode="&#xe974;" d="M185.531 567.585h57.070v128h-57.070c-17.414 0-31.531-14.117-31.531-31.531v-64.945c0-17.406 14.117-31.524 31.531-31.524z" />
<glyph unicode="&#xe975;" d="M780.493 962h-536.095c-37.024 0-67.047-30.016-67.047-67.047v-889.908c0-37.024 30.023-67.047 67.047-67.047h536.095c37.031 0 67.047 30.023 67.047 67.047v889.908c0 37.031-30.016 67.047-67.047 67.047z" />
<glyph unicode="&#xe976;" d="M296.14-62.002h-51.742c-37.031 0-67.047 30.008-67.047 67.039v889.924c0 37.031 30.016 67.039 67.047 67.039h51.742c-37.031 0-67.039-30.008-67.039-67.039v-889.924c0-37.031 30.008-67.039 67.039-67.039z" />
<glyph unicode="&#xe977;" d="M201.968 858.976h620.939v-778.056h-620.939z" />
<glyph unicode="&#xe978;" d="M201.968 858.976h27.125v-778.056h-27.125z" />
<glyph unicode="&#xe979;" d="M795.782 858.976h27.125v-778.056h-27.125z" />
<glyph unicode="&#xe97a;" d="M564.188 893.156h-103.485c-8.656 0-15.672 7.016-15.672 15.672s7.016 15.672 15.672 15.672h103.485c8.656 0 15.672-7.016 15.672-15.672s-7.016-15.672-15.672-15.672z" />
<glyph unicode="&#xe97b;" d="M564.188-1.939h-103.485c-8.656 0-15.672 7.016-15.672 15.672s7.016 15.672 15.672 15.672h103.485c8.656 0 15.672-7.016 15.672-15.672s-7.016-15.672-15.672-15.672z" />
<glyph unicode="&#xe97c;" d="M201.968 858.976h375.938v-566.314h-375.938z" />
<glyph unicode="&#xe97d;" d="M659.032 506.952h163.875v-426.032h-163.875z" />
<glyph unicode="&#xe97e;" d="M488.164 858.976c0-180.391-180.914-131.266-180.914-348.79 0-58.68-35.922-79.914-78.156-87.25-8.859-1.547-17.992-2.484-27.125-2.984v439.024z" />
<glyph unicode="&#xe97f;" d="M201.968 858.976h27.125v-566.314h-27.125z" />
<glyph unicode="&#xe980;" d="M822.907 617.335v-110.383h-163.875v-426.032h-113.899v153.289h-343.165v110.406h343.165v514.36h113.899v-241.641z" />
<glyph unicode="&#xe981;" d="M542.359 470.327c-36.477 36.469-95.61 36.469-132.086 0-36.469-36.477-36.469-95.61 0-132.086l66.047-66.039 66.039 66.039c36.477 36.477 36.477 95.61 0 132.086z" />
<glyph unicode="&#xe982;" d="M514.5 404.28c0-21.086-17.094-38.18-38.18-38.18s-38.18 17.094-38.18 38.18 17.094 38.18 38.18 38.18c21.086 0 38.18-17.094 38.18-38.18z" />
<glyph unicode="&#xe983;" d="M229.093 858.976v-436.040c-8.859-1.547-17.992-2.484-27.125-2.984v439.024z" />
<glyph unicode="&#xe984;" d="M795.782 617.335h27.125v-110.383h-27.125z" />
<glyph unicode="&#xe985;" d="M795.782 506.952h27.125v-426.032h-27.125z" />
<glyph unicode="&#xe986;" d="M201.968 344.616h27.125v-110.406h-27.125z" />
<glyph unicode="&#xe987;" glyph-name="checkbox-relleno" d="M298.667 746.667c-47.104 0-85.333-38.229-85.333-85.333v-426.667c0-47.104 38.229-85.333 85.333-85.333h426.667c47.104 0 85.333 38.229 85.333 85.333v426.667c0 47.104-38.229 85.333-85.333 85.333h-426.667zM469.333 302.336l-115.499 115.499 60.331 60.331 55.168-55.168 161.835 161.835 60.331-60.331-222.165-222.165z" />
<glyph unicode="&#xe988;" d="M1012.202 451.43l-14.51 5.106c-22.47 7.908-39.728 26.532-45.006 49.758-15.442 67.97-92.968 131.672-170.302 138.526-8.876 0.786-16.902 5.036-22.098 12.276-69.54 96.936-202.060 162.476-354.218 162.476-224.266 0.004-406.068-142.278-406.068-317.79s181.802-317.794 406.068-317.794c87.954 0 169.332 21.922 235.812 59.118 13.546 7.578 28.792 11.602 44.294 12.326 64.036 2.99 183.69 15.226 291.696 62.99 9.452 4.18 16.472 12.516 19.376 22.436l26.036 88.96c2.638 9.004-2.23 18.498-11.080 21.612z" />
<glyph unicode="&#xe989;" d="M494.344 441.552c0 40.112-23.662 64.7-70.984 75.050l-16.658 3.268v68.948c12.716-2.664 22.75-10.198 27.758-20.244 4.238-8.498 12.88-13.892 22.378-13.892 19.352 0 31.902 21.33 21.602 37.712-13.448 21.382-38.656 35.72-71.738 39.396v11.908c0 9.38-7.602 16.982-16.982 16.982s-16.982-7.602-16.982-16.982v-11.904c-52.502-5.716-83.214-34.45-83.214-78.404 0-38.45 23.846-64.146 68.396-74.496l14.818-3.496v-72.456c-15.004 2.79-26.42 10.48-32.052 21.284-4.378 8.396-12.88 13.818-22.348 13.818h-2.498c-19.364 0-31.77-21.266-21.596-37.74 13.86-22.442 41.214-36.584 78.494-39.714v-8.006c0-9.38 7.602-16.982 16.982-16.982s16.982 7.602 16.982 16.982v8.18c56.058 5.768 87.642 34.702 87.642 80.788zM342.95 558.010c0 16.134 12.186 28.34 29.79 31.082v-62.076c-19.456 5.302-29.79 15.92-29.79 30.994zM406.702 402.28v66.688c24.070-5.416 35.328-16.136 35.328-33.332 0-18.73-13.030-31.014-35.328-33.356z" />
<glyph unicode="&#xe98a;" d="M532.44 292.682l51.41-186.024c4.91-17.768 22.558-30.232 42.804-30.232v0c21.032 0 39.14 13.428 43.264 32.086l41.57 188.026c11.358 51.378-32.082 99.314-90.004 99.314v0c-59.712 0-103.526-50.766-89.044-103.17z" />
<glyph unicode="&#xe98b;" d="M52.966 370.842v0c0-4.696 0.626-9.374 1.87-13.946l69.298-255.032c3.918-14.418 18.776-24.61 35.882-24.61v0c17.106 0 31.964 10.19 35.882 24.61l42.38 155.966c17.238 63.442-13.752 129.386-77.25 164.376v0c-46.81 25.794-108.062-3.322-108.062-51.364z" />
<glyph unicode="&#xe98c;" d="M800.066 589.152l56.704 170.114c3.618 10.85-6.842 21.22-17.584 17.306-45.77-16.67-133.136-64.18-100.416-177.68 1.592-5.52 5.99-9.916 11.438-11.732l27.524-9.174c9.252-3.084 19.252 1.916 22.334 11.166z" />
<glyph unicode="&#xe98d;" d="M847.448 448.816v0c-9.75 0-17.656 7.906-17.656 17.656v17.656c0 9.75 7.906 17.656 17.656 17.656v0c9.75 0 17.656-7.906 17.656-17.656v-17.656c0-9.75-7.906-17.656-17.656-17.656z" />
<glyph unicode="&#xe98e;" d="M977.874 318.422c3.698 1.636 6.884 4.054 9.736 6.808h-90.58c-8.562 0-16.6-3.592-22.4-9.89-10.936-11.874-33.35-32.062-69.914-47.062 54.192 9.236 115.31 24.562 173.158 50.144z" />
<glyph unicode="&#xe98f;" d="M300.12 736.748c-8 0-15.24 5.466-17.172 13.604-2.242 9.484 3.636 19 13.138 21.242 59.086 13.932 122.448 16.448 183.294 7.052 9.638-1.484 16.24-10.5 14.76-20.138s-10.448-16.24-20.138-14.76c-56.448 8.706-115.172 6.38-169.81-6.534-1.364-0.312-2.726-0.466-4.072-0.466z" />
<glyph unicode="&#xe990;" glyph-name="edificiosconemple" d="M358.4 601.6h34.133v-34.133h-34.133v34.133zM358.4 533.333h34.133v-34.133h-34.133v34.133zM358.4 465.067h34.133v-34.133h-34.133v34.133zM426.667 601.6h34.133v-34.133h-34.133v34.133zM426.667 533.333h34.133v-34.133h-34.133v34.133zM494.933 601.6h34.133v-34.133h-34.133v34.133zM494.933 533.333h34.133v-34.133h-34.133v34.133zM426.667 465.067h34.133v-34.133h-34.133v34.133zM494.933 465.067h34.133v-34.133h-34.133v34.133zM563.2 601.6h34.133v-34.133h-34.133v34.133zM426.667 669.867h34.133v-34.133h-34.133v34.133zM494.933 669.867h34.133v-34.133h-34.133v34.133zM563.2 669.867h34.133v-34.133h-34.133v34.133zM563.2 533.333h34.133v-34.133h-34.133v34.133zM563.2 465.067h34.133v-34.133h-34.133v34.133zM631.467 601.6h34.133v-34.133h-34.133v34.133zM631.467 533.333h34.133v-34.133h-34.133v34.133zM631.467 465.067h34.133v-34.133h-34.133v34.133zM307.2 339.413v586.453h409.6v-633.813l34.133-21.12v398.933h238.933v-580.267h-30.933v-34.133h48c9.387 0 17.067 7.68 17.067 17.067 0 0 0 0 0 0v614.4c0 9.387-7.68 17.067-17.067 17.067 0 0 0 0 0 0h-256v238.933c0 9.387-7.68 17.067-17.067 17.067 0 0 0 0 0 0h-443.733c-9.387 0-17.067-7.68-17.067-17.067 0 0 0 0 0 0v-238.933h-256c-9.387 0-17.067-7.68-17.067-17.067 0 0 0 0 0 0v-614.4c0-9.387 7.68-17.067 17.067-17.067 0 0 0 0 0 0h35.627l0.64 34.133h-19.2v580.267h238.933v-343.68l34.133 13.227zM85.333 579.413h34.133v-34.133h-34.133v34.133zM187.733 579.413h34.133v-34.133h-34.133v34.133zM85.333 519.68h34.133v-34.133h-34.133v34.133zM187.733 519.68h34.133v-34.133h-34.133v34.133zM85.333 459.947h34.133v-34.133h-34.133v34.133zM187.733 459.947h34.133v-34.133h-34.133v34.133zM85.333 635.733h34.133v-34.133h-34.133v34.133zM187.733 635.733h34.133v-34.133h-34.133v34.133zM801.493 579.413h34.133v-34.133h-34.133v34.133zM903.893 579.413h34.133v-34.133h-34.133v34.133zM801.493 519.68h34.133v-34.133h-34.133v34.133zM903.893 519.68h34.133v-34.133h-34.133v34.133zM801.493 459.947h34.133v-34.133h-34.133v34.133zM903.893 459.947h34.133v-34.133h-34.133v34.133zM801.493 635.733h34.133v-34.133h-34.133v34.133zM903.893 635.733h34.133v-34.133h-34.133v34.133zM614.4 891.733c0 0 0 0 0 0h-204.8c-9.387 0-17.067-7.68-17.067-17.067 0 0 0 0 0 0v-136.533c0-9.387 7.68-17.067 17.067-17.067 0 0 0 0 0 0h204.8c9.387 0 17.067 7.68 17.067 17.067 0 0 0 0 0 0v136.533c0 9.387-7.68 17.067-17.067 17.067zM597.333 755.2h-170.667v102.4h170.667v-102.4zM510.72 63.36v159.36c0 16.853-10.88 31.36-26.88 36.267l-48.64 14.507v11.52c13.653 9.6 22.613 25.387 22.613 43.307v22.613c0 29.227-23.68 52.907-52.907 52.907s-52.907-23.68-52.907-52.907v-22.613c0-17.92 8.96-33.707 22.613-43.307v-11.52l-42.88-12.8c-16 14.293-36.48 22.4-58.24 22.4s-41.387-7.893-56.747-21.12l-38.4 11.52v11.52c13.653 9.6 22.613 25.387 22.613 43.307v22.613c0 29.227-23.68 52.907-52.907 52.907s-52.907-23.68-52.907-52.907v-22.613c0-17.92 8.96-33.707 22.613-43.307v-11.52l-48.64-14.507c-16-4.907-26.88-19.413-26.88-36.267v-164.48h15.36v164.48c0 10.027 6.4 18.773 16.213 21.76l48.64 14.507c4.48-5.76 12.8-13.867 25.813-13.867s21.547 8.107 25.813 13.867l30.933-9.387c-9.813-12.373-16.427-27.52-18.347-43.947-9.6 10.24-23.253 16.64-38.4 16.64-29.227 0-52.907-23.68-52.907-52.907v-22.613c0-17.92 8.96-33.707 22.613-43.307v-11.52l-48.64-14.507c-16-4.907-26.88-19.413-26.88-36.267v-68.267h90.667c4.267 0 7.467-3.413 7.467-7.467v-30.293h272v30.293c0 4.267 3.413 7.467 7.467 7.467h90.667v68.267c0 16.853-10.88 31.36-26.88 36.267l-48.64 14.507v11.52c13.653 9.6 22.613 25.387 22.613 43.307v22.613c0 29.227-23.68 52.907-52.907 52.907-14.72 0-28.16-6.187-37.76-16v7.253c0 14.933-8.107 28.373-20.693 35.413l32.64 9.813c4.48-5.76 12.8-13.867 25.813-13.867s21.547 8.107 25.813 13.867l48.64-14.507c9.6-2.987 16.213-11.52 16.213-21.76v-159.36h15.147zM148.267 388.693c20.907 0 37.76-16.853 37.76-37.76h-34.773c-4.693 0-9.6 1.92-12.8 5.333l-5.333 5.333-5.333-5.333c-3.413-3.413-8.107-5.333-12.8-5.333h-4.48c0 20.907 16.853 37.76 37.76 37.76zM110.507 328.32v7.467h4.48c6.613 0 12.8 1.92 18.133 5.333 5.333-3.627 11.733-5.333 18.133-5.333h34.56v-7.467c0-20.907-16.853-37.76-37.76-37.76-20.693 0-37.547 16.853-37.547 37.76zM148.267 260.267c-8.107 0-13.227 6.827-15.147 9.6v7.68c4.693-1.493 9.813-2.133 15.147-2.133s10.24 0.853 15.147 2.133v-7.68c-1.92-2.773-7.253-9.6-15.147-9.6zM355.84 127.787c3.84-9.813 10.453-18.133 18.987-24.107v-11.52l-48.64-14.507c-1.707-0.427-3.2-1.067-4.693-1.707l-7.040 1.707v14.933c8.107 6.4 14.507 14.933 18.347 24.747 8.533 0.64 16.853 4.267 23.040 10.453zM276.693 78.933c8.107 0 15.573 1.707 22.613 4.48v-8.32l-22.613-17.067-22.613 17.067v8.32c6.827-2.773 14.507-4.48 22.613-4.48zM244.693 63.36l18.347-13.867-18.987-11.307-4.693 23.893 5.333 1.28zM268.16 3.413h16.64l5.973-52.907h-28.373l5.76 52.907zM286.293 18.56h-19.413l-4.267 13.013 14.080 8.32 14.080-8.32-4.48-13.013zM290.133 49.493l18.347 13.867 5.333-1.28-4.693-23.893-18.987 11.307zM346.24 139.307c-2.56-2.773-5.973-4.907-9.6-6.187 0.213 2.133 0.427 4.053 0.427 6.187v36.053c8.107-2.987 14.080-10.24 14.933-18.773 0.64-6.4-1.493-12.587-5.76-17.28zM321.92 139.52c0-24.96-20.267-45.227-45.227-45.227s-45.227 20.267-45.227 45.227v37.76h25.6c16.427 0 32.427 4.053 46.72 11.947l5.973-11.947h12.16v-37.76zM216.533 133.12c-3.627 1.28-6.827 3.2-9.6 6.187-4.267 4.693-6.4 11.093-5.76 17.493 0.853 8.533 6.827 15.787 14.933 18.773v-36.053c0-2.133 0.213-4.267 0.427-6.4zM220.587 117.12c3.84-9.813 10.24-18.347 18.347-24.747v-14.933l-7.040-1.707c-1.493 0.64-2.987 1.28-4.693 1.707l-48.64 14.507v11.52c8.533 5.973 15.147 14.293 18.987 24.107 6.187-5.973 14.293-9.6 23.040-10.453zM148.267 207.36c20.907 0 37.76-16.853 37.76-37.76h-4.48c-4.693 0-9.6 1.92-12.8 5.333l-5.333 5.333-5.547-5.333c-3.413-3.413-8.107-5.333-12.8-5.333h-34.56c0 20.907 16.853 37.76 37.76 37.76zM110.507 146.987v7.467h34.56c6.613 0 12.8 1.92 18.133 5.333 5.333-3.627 11.733-5.333 18.133-5.333h4.48v-7.467c0-20.907-16.853-37.76-37.76-37.76-20.693 0-37.547 16.853-37.547 37.76zM148.267 94.080c5.333 0 10.24 0.853 15.147 2.133v-7.68c-1.92-2.987-7.040-9.6-15.147-9.6s-13.227 6.827-15.147 9.6v7.68c4.693-1.28 9.813-2.133 15.147-2.133zM133.12-11.733h-30.293v52.907h-15.147v-52.907h-30.080v53.12c0 10.027 6.4 18.773 16.213 21.76l48.64 14.507c4.48-5.76 12.8-13.867 25.813-13.867s21.547 8.107 25.813 13.867l28.587-8.533-21.12-4.907c-24.107-5.547-40.96-26.667-40.96-51.627v-9.173h15.147v9.387c0 17.707 11.947 32.853 29.227 36.907l39.68 9.173 8.96-44.587 15.787 9.387 4.48-13.44-6.613-59.52h-38.613v60.373h-15.147v-60.373h-37.76v15.147c0 12.373-10.24 22.4-22.613 22.4zM479.573 63.147c9.6-2.987 16.213-11.52 16.213-21.76v-53.12h-30.293v52.907h-15.147v-52.907h-30.293c-12.587 0-22.613-10.24-22.613-22.613v-15.147h-37.76v60.373h-15.147v-60.373h-38.613l-6.613 59.52 4.48 13.44 15.787-9.387 8.96 44.587 39.68-9.173c17.28-4.053 29.227-19.2 29.227-36.907v-9.173h15.147v9.387c0 24.747-16.853 45.867-40.96 51.627l-21.12 4.907 28.587 8.533c4.48-5.76 12.8-13.867 25.813-13.867s21.547 8.107 25.813 13.867l48.853-14.72zM420.053 88.533c-1.92-2.987-7.040-9.6-15.147-9.6s-13.227 6.827-15.147 9.6v7.68c4.693-1.493 9.813-2.133 15.147-2.133s10.24 0.853 15.147 2.133v-7.68zM404.907 109.227c-20.907 0-37.76 16.853-37.76 37.76v7.467h4.48c6.613 0 12.8 1.92 18.133 5.333 5.333-3.627 11.733-5.333 18.133-5.333h34.56v-7.467c0.213-20.907-16.64-37.76-37.547-37.76zM404.907 207.36c20.907 0 37.76-16.853 37.76-37.76h-34.56c-4.693 0-9.6 1.92-12.8 5.333l-5.333 5.333-5.333-5.333c-3.413-3.413-8.107-5.333-12.8-5.333h-4.48c-0.213 20.907 16.853 37.76 37.547 37.76zM352.213 184.107c-6.613 5.12-14.933 8.107-23.893 8.107h-9.173l-9.387 18.56-7.040-4.693c-13.653-8.96-29.44-13.867-45.653-13.867h-32c-8.96 0-17.28-3.2-23.893-8.107v11.093c0 40.107 32.64 72.533 72.533 72.533 19.413 0 37.547-7.467 51.413-21.333l8.107-8.107 1.707-0.64c10.453-3.413 17.493-13.227 17.493-24.32v-29.227zM404.907 388.693c20.907 0 37.76-16.853 37.76-37.76h-4.48c-4.693 0-9.6 1.92-12.8 5.333l-5.333 5.333-5.333-5.333c-3.413-3.413-8.107-5.333-12.8-5.333h-34.56c-0.213 20.907 16.853 37.76 37.547 37.76zM367.147 328.32v7.467h34.56c6.613 0 12.8 1.92 18.133 5.333 5.333-3.627 11.733-5.333 18.133-5.333h4.48v-7.467c0-20.907-16.853-37.76-37.76-37.76s-37.547 16.853-37.547 37.76zM404.907 260.267c-8.107 0-13.227 6.827-15.147 9.6v7.68c4.693-1.493 9.813-2.133 15.147-2.133s10.24 0.853 15.147 2.133v-7.68c-1.92-2.773-7.040-9.6-15.147-9.6zM967.68 63.36v159.36c0 16.853-10.88 31.36-26.88 36.267l-48.64 14.507v11.52c13.653 9.6 22.613 25.387 22.613 43.307v22.613c0 29.227-23.68 52.907-52.907 52.907s-52.907-23.68-52.907-52.907v-22.613c0-17.92 8.96-33.707 22.613-43.307v-11.52l-42.88-12.8c-16 14.293-36.48 22.4-58.24 22.4s-41.387-7.893-56.747-21.12l-38.4 11.52v11.52c13.653 9.6 22.613 25.387 22.613 43.307v22.613c0 29.227-23.68 52.907-52.907 52.907s-52.907-23.68-52.907-52.907v-22.613c0-17.92 8.96-33.707 22.613-43.307v-11.52l-48.64-14.507c-16-4.907-26.88-19.413-26.88-36.267v-159.36h15.147v159.36c0 10.027 6.4 18.773 16.213 21.76l48.64 14.507c4.48-5.76 12.8-13.867 25.813-13.867s21.547 8.107 25.813 13.867l30.933-9.387c-9.813-12.373-16.427-27.52-18.347-43.947-9.6 10.24-23.253 16.64-38.4 16.64-29.227 0-52.907-23.68-52.907-52.907v-22.613c0-17.92 8.96-33.707 22.613-43.307v-11.52l-48.64-14.507c-16-4.907-26.88-19.413-26.88-36.267v-68.267h90.667c4.267 0 7.467-3.413 7.467-7.467v-30.293h272v30.293c0 4.267 3.413 7.467 7.467 7.467h90.667v68.267c0 16.853-10.88 31.36-26.88 36.267l-48.64 14.507v11.52c13.653 9.6 22.613 25.387 22.613 43.307v22.613c0 29.227-23.68 52.907-52.907 52.907-14.72 0-28.16-6.187-37.76-16v7.253c0 14.933-8.107 28.373-20.693 35.413l32.64 9.813c4.48-5.76 12.8-13.867 25.813-13.867s21.547 8.107 25.813 13.867l48.64-14.507c9.6-2.987 16.213-11.52 16.213-21.76v-159.36h15.36zM605.227 388.693c20.907 0 37.76-16.853 37.76-37.76h-34.56c-4.693 0-9.6 1.92-12.8 5.333l-5.333 5.333-5.333-5.333c-3.413-3.413-8.107-5.333-12.8-5.333h-4.693c0 20.907 16.853 37.76 37.76 37.76zM567.467 328.32v7.467h4.48c6.613 0 12.8 1.92 18.133 5.333 5.333-3.627 11.733-5.333 18.133-5.333h34.56v-7.467c0-20.907-16.853-37.76-37.76-37.76-20.693 0-37.547 16.853-37.547 37.76zM605.227 260.267c-8.107 0-13.227 6.827-15.147 9.6v7.68c4.693-1.493 9.813-2.133 15.147-2.133s10.24 0.853 15.147 2.133v-7.68c-1.92-2.773-7.253-9.6-15.147-9.6zM812.8 127.787c3.84-9.813 10.453-18.133 18.987-24.107v-11.52l-48.64-14.507c-1.707-0.427-3.2-1.067-4.693-1.707l-7.040 1.707v14.933c8.107 6.4 14.507 14.933 18.347 24.747 8.533 0.64 16.853 4.267 23.040 10.453zM733.653 78.933c8.107 0 15.573 1.707 22.613 4.48v-8.32l-22.613-17.067-22.613 17.067v8.32c6.827-2.773 14.507-4.48 22.613-4.48zM701.653 63.36l18.347-13.867-18.987-11.307-4.693 23.893 5.333 1.28zM725.333 3.413h16.64l5.973-52.907h-28.373l5.76 52.907zM743.253 18.56h-19.413l-4.267 13.013 14.080 8.32 14.080-8.32-4.48-13.013zM747.093 49.493l18.347 13.867 5.333-1.28-4.693-23.893-18.987 11.307zM803.2 139.307c-2.56-2.773-5.973-4.907-9.6-6.187 0.213 2.133 0.427 4.053 0.427 6.187v36.053c8.107-2.987 14.080-10.24 14.933-18.773 0.64-6.4-1.493-12.587-5.76-17.28zM778.88 139.52c0-24.96-20.267-45.227-45.227-45.227s-45.227 20.267-45.227 45.227v37.76h25.6c16.427 0 32.427 4.053 46.72 11.947l5.973-11.947h12.16v-37.76zM673.493 133.12c-3.627 1.28-6.827 3.2-9.6 6.187-4.267 4.693-6.4 11.093-5.76 17.493 0.853 8.533 6.827 15.787 14.933 18.773v-36.053c0-2.133 0.213-4.267 0.427-6.4zM677.547 117.12c3.84-9.813 10.24-18.347 18.347-24.747v-14.933l-7.040-1.707c-1.493 0.64-2.987 1.28-4.693 1.707l-48.64 14.507v11.52c8.533 5.973 15.147 14.293 18.987 24.107 6.187-5.973 14.293-9.6 23.040-10.453zM605.227 207.36c20.907 0 37.76-16.853 37.76-37.76h-4.48c-4.693 0-9.6 1.92-12.8 5.333l-5.333 5.333-5.333-5.333c-3.413-3.413-8.107-5.333-12.8-5.333h-34.773c0 20.907 16.853 37.76 37.76 37.76zM567.467 146.987v7.467h34.56c6.613 0 12.8 1.92 18.133 5.333 5.333-3.627 11.733-5.333 18.133-5.333h4.48v-7.467c0-20.907-16.853-37.76-37.76-37.76-20.693 0-37.547 16.853-37.547 37.76zM605.227 94.080c5.333 0 10.24 0.853 15.147 2.133v-7.68c-1.92-2.987-7.040-9.6-15.147-9.6s-13.227 6.827-15.147 9.6v7.68c4.693-1.28 9.813-2.133 15.147-2.133zM590.080-11.733h-30.293v52.907h-15.147v-52.907h-30.293v53.12c0 10.027 6.4 18.773 16.213 21.76l48.64 14.507c4.48-5.76 12.8-13.867 25.813-13.867s21.547 8.107 25.813 13.867l28.587-8.533-21.12-4.907c-24.107-5.547-40.96-26.667-40.96-51.627v-9.173h15.147v9.387c0 17.707 11.947 32.853 29.227 36.907l39.68 9.173 8.96-44.587 15.787 9.387 4.48-13.44-6.613-59.52h-38.4v60.373h-15.147v-60.373h-37.76v15.147c0 12.373-10.24 22.4-22.613 22.4zM936.533 63.147c9.6-2.987 16.213-11.52 16.213-21.76v-53.12h-30.293v52.907h-15.147v-52.907h-30.293c-12.587 0-22.613-10.24-22.613-22.613v-15.147h-37.76v60.373h-15.147v-60.373h-38.613l-6.613 59.52 4.48 13.44 15.787-9.387 8.96 44.587 39.68-9.173c17.28-4.053 29.227-19.2 29.227-36.907v-9.173h15.147v9.387c0 24.747-16.853 45.867-40.96 51.627l-21.12 4.907 28.587 8.533c4.48-5.76 12.8-13.867 25.813-13.867s21.547 8.107 25.813 13.867l48.853-14.72zM877.013 88.533c-1.92-2.987-7.040-9.6-15.147-9.6s-13.227 6.827-15.147 9.6v7.68c4.693-1.493 9.813-2.133 15.147-2.133s10.24 0.853 15.147 2.133v-7.68zM862.080 109.227c-20.907 0-37.76 16.853-37.76 37.76v7.467h4.48c6.613 0 12.8 1.92 18.133 5.333 5.333-3.627 11.733-5.333 18.133-5.333h34.56v-7.467c0.213-20.907-16.853-37.76-37.547-37.76zM862.080 207.36c20.907 0 37.76-16.853 37.76-37.76h-34.56c-4.693 0-9.6 1.92-12.8 5.333l-5.333 5.333-5.333-5.333c-3.413-3.413-8.107-5.333-12.8-5.333h-4.48c-0.213 20.907 16.64 37.76 37.547 37.76zM809.173 184.107c-6.613 5.12-14.933 8.107-23.893 8.107h-9.173l-9.387 18.56-7.040-4.693c-13.653-8.96-29.44-13.867-45.653-13.867h-32c-8.96 0-17.28-3.2-23.893-8.107v11.093c0 40.107 32.64 72.533 72.533 72.533 19.413 0 37.547-7.467 51.413-21.333l8.107-8.107 1.707-0.64c10.453-3.413 17.493-13.227 17.493-24.32v-29.227zM862.080 388.693c20.907 0 37.76-16.853 37.76-37.76h-4.48c-4.693 0-9.6 1.92-12.8 5.333l-5.333 5.333-5.333-5.333c-3.413-3.413-8.107-5.333-12.8-5.333h-34.56c-0.213 20.907 16.64 37.76 37.547 37.76zM824.32 328.32v7.467h34.56c6.613 0 12.8 1.92 18.133 5.333 5.333-3.627 11.733-5.333 18.133-5.333h4.48v-7.467c0-20.907-16.853-37.76-37.76-37.76-20.693 0-37.547 16.853-37.547 37.76zM862.080 260.267c-8.107 0-13.227 6.827-15.147 9.6v7.68c4.693-1.493 9.813-2.133 15.147-2.133s10.24 0.853 15.147 2.133v-7.68c-1.92-2.773-7.253-9.6-15.147-9.6z" />
<glyph unicode="&#xe991;" glyph-name="flecha_abajo" d="M695.168 563.499l-183.168-183.168-183.168 183.168-60.331-60.331 243.499-243.499 243.499 243.499z" />
<glyph unicode="&#xe992;" glyph-name="flechasubiendo" d="M426.667 515.669l170.667-170.667 243.499 243.499 97.835-97.835v256h-256l97.835-97.835-183.168-183.168-170.667 170.667-328.832-328.832 60.331-60.331z" />
<glyph unicode="&#xe993;" glyph-name="group2" d="M615.595 441.301l43.52-28.843c111.829-74.197 151.552-188.117 151.552-263.125h85.333c0 91.008-40.661 214.571-151.595 306.005 30.763 43.861 47.019 94.549 46.421 146.56-0.768 65.493-28.715 127.872-78.72 175.616l-58.88-61.696c33.707-32.256 51.797-71.979 52.309-114.901 0.512-44.459-18.347-88.021-52.992-122.752l-36.949-36.864zM405.333 789.333c-94.123 0-170.667-76.544-170.667-170.667s76.544-170.667 170.667-170.667 170.667 76.544 170.667 170.667-76.544 170.667-170.667 170.667zM405.333 533.333c-47.061 0-85.333 38.272-85.333 85.333s38.272 85.333 85.333 85.333 85.333-38.272 85.333-85.333-38.272-85.333-85.333-85.333zM170.667 149.333c0 94.123 76.544 170.667 170.667 170.667h128c94.123 0 170.667-76.544 170.667-170.667v-42.667h85.333v42.667c0 141.184-114.816 256-256 256h-128c-141.184 0-256-114.816-256-256v-42.667h85.333v42.667z" />
<glyph unicode="&#xe994;" glyph-name="group2relleno" d="M810.667 149.333h85.333c0 91.008-40.661 214.571-151.595 306.005 30.763 43.861 47.019 94.549 46.421 146.56-0.768 65.493-28.715 127.872-78.72 175.616l-58.88-61.696c33.707-32.256 51.797-71.979 52.309-114.901 0.512-44.459-18.347-88.021-52.992-122.752l-36.907-36.864 43.52-28.843c111.787-74.197 151.509-188.117 151.509-263.125zM405.333 448c94.123 0 170.667 76.544 170.667 170.667s-76.544 170.667-170.667 170.667-170.667-76.544-170.667-170.667 76.544-170.667 170.667-170.667zM170.667 106.667h554.667v42.667c0 141.184-114.816 256-256 256h-128c-141.184 0-256-114.816-256-256v-42.667h85.333z" />
<glyph unicode="&#xe995;" glyph-name="grupodeempleados" d="M1024 431.484v132.524c0 36.75-23.653 68.54-58.847 79.097l-106.315 31.895v25.089c29.911 20.919 49.548 55.556 49.548 94.734v49.565c0 63.75-51.863 115.613-115.613 115.613s-115.613-51.863-115.613-115.613v-49.548c0-39.194 19.637-73.831 49.548-94.734v-25.089l-93.694-28.113c-35.161 31.444-79.96 48.839-127.524 48.839-47.371 0-90.71-17.355-124.202-45.952l-84 25.21v25.089c29.911 20.919 49.548 55.556 49.548 94.734v49.565c0 63.75-51.863 115.613-115.613 115.613s-115.613-51.863-115.613-115.613v-49.548c0-39.194 19.637-73.831 49.548-94.734v-25.089l-106.315-31.895c-35.194-10.573-58.847-42.363-58.847-79.113v-132.524h33.032v132.524c0 22.048 14.185 41.129 35.315 47.452l106.347 31.911c9.613-12.484 28.21-30.21 56.532-30.21s46.919 17.726 56.532 30.21l67.734-20.315c-21.5-27.040-35.823-59.952-40.169-95.96-21.089 22.411-50.952 36.516-84.097 36.516-63.75 0-115.613-51.863-115.613-115.613v-49.548c0-39.194 19.637-73.831 49.548-94.734v-25.089l-106.315-31.895c-35.194-10.573-58.847-42.363-58.847-79.113v-149.040h198.194c9.097 0 16.516-7.419 16.516-16.516v-66.065h594.581v66.065c0 9.097 7.419 16.516 16.516 16.516h198.194v149.040c0 36.75-23.653 68.54-58.847 79.097l-106.315 31.895v25.089c29.911 20.919 49.548 55.556 49.548 94.734v49.548c0 63.75-51.863 115.613-115.613 115.613-32.339 0-61.573-13.379-82.581-34.847v15.653c0 32.621-17.726 61.984-45.387 77.508l71.435 21.444c9.613-12.468 28.21-30.194 56.532-30.194s46.919 17.726 56.532 30.21l106.363-31.911c21.113-6.323 35.298-25.403 35.298-47.452v-132.524zM231.226 926.968c45.532 0 82.581-37.048 82.581-82.581h-75.742c-10.492 0-20.782 4.258-28.194 11.677l-11.677 11.677-11.677-11.677c-7.411-7.419-17.702-11.677-28.194-11.677h-9.677c0 45.532 37.048 82.581 82.581 82.581zM148.645 794.839v16.516h9.677c14.387 0 28.129 4.129 39.871 11.839 11.742-7.71 25.484-11.839 39.871-11.839h75.742v-16.516c0-45.532-37.048-82.581-82.581-82.581s-82.581 37.048-82.581 82.581zM231.226 646.194c-17.556 0-28.935 14.75-33.032 21.056v16.831c10.468-3.121 21.556-4.855 33.032-4.855s22.565 1.734 33.032 4.871v-16.831c-4.097-6.339-15.476-21.073-33.032-21.073zM685.218 356.306c8.411-21.363 22.927-39.629 41.492-52.605v-25.089l-106.298-31.895c-3.5-1.040-6.903-2.395-10.226-3.895l-15.605 3.597v32.54c17.653 14.185 31.565 32.815 40.105 54.169 19.024 1.669 36.863 9.766 50.532 23.177zM512 249.806c17.524 0 34.242 3.5 49.548 9.726v-17.984l-49.548-37.161-49.548 37.161v17.984c15.306-6.226 32.024-9.726 49.548-9.726zM442.169 215.468l40.266-30.21-41.419-24.855-10.476 52.371zM493.75 84.645h36.5l12.847-115.613h-62.194zM533.121 117.677h-42.258l-9.484 28.444 30.621 18.363 30.605-18.363zM541.565 185.258l40.266 30.21 11.629-2.677-10.476-52.371zM664.282 381.637c-5.718-6.274-12.984-10.669-20.863-13.347 0.46 4.492 0.71 9.040 0.71 13.645v79.032c17.774-6.742 31-22.379 32.782-41.065 1.355-14.218-3.121-27.79-12.629-38.266zM611.097 381.935c0-54.653-44.444-99.097-99.097-99.097s-99.097 44.444-99.097 99.097v82.581h56.073c35.992 0 71.016 8.984 102.331 26.145l13.065-26.145h26.726zM380.581 368.29c-7.879 2.677-15.145 7.073-20.863 13.347-9.508 10.46-13.984 24.048-12.629 38.25 1.782 18.685 15.008 34.339 32.782 41.065v-79.016c0-4.605 0.25-9.153 0.71-13.645zM389.315 333.129c8.524-21.355 22.435-39.984 40.105-54.169v-32.54l-15.605-3.597c-3.339 1.5-6.726 2.839-10.21 3.895l-106.315 31.895v25.089c18.548 12.976 33.081 31.242 41.492 52.605 13.669-13.411 31.508-21.508 50.532-23.177zM231.226 530.581c45.532 0 82.581-37.048 82.581-82.581h-9.677c-10.492 0-20.782 4.258-28.194 11.677l-11.677 11.677-11.677-11.677c-7.411-7.419-17.702-11.677-28.194-11.677h-75.742c0 45.532 37.048 82.581 82.581 82.581zM148.645 398.452v16.516h75.742c14.387 0 28.129 4.129 39.871 11.839 11.742-7.71 25.484-11.839 39.871-11.839h9.677v-16.516c0-45.532-37.048-82.581-82.581-82.581s-82.581 37.048-82.581 82.581zM231.226 282.839c11.476 0 22.565 1.734 33.032 4.871v-16.831c-4.097-6.339-15.476-21.073-33.032-21.073s-28.935 14.75-33.032 21.056v16.831c10.468-3.121 21.556-4.855 33.032-4.855zM198.194 51.613h-66.065v115.613h-33.032v-115.613h-66.065v116.008c0 22.048 14.185 41.129 35.315 47.452l106.347 31.911c9.613-12.484 28.21-30.21 56.532-30.21s46.919 17.726 56.532 30.21l62.629-18.798-46.065-10.621c-52.766-12.185-89.613-58.516-89.613-112.653v-20.266h33.032v20.266c0 38.677 26.331 71.758 64.016 80.468l86.581 19.984 19.468-97.379 34.556 20.726 9.774-29.331-14.468-130.347h-84.315v132.129h-33.032v-132.129h-82.581v33.032c0 27.315-22.234 49.548-49.548 49.548zM955.653 215.073c21.129-6.323 35.315-25.403 35.315-47.452v-116.008h-66.065v115.613h-33.032v-115.613h-66.065c-27.315 0-49.548-22.234-49.548-49.548v-33.032h-82.581v132.129h-33.032v-132.129h-84.315l-14.484 130.347 9.774 29.331 34.556-20.726 19.468 97.379 86.597-19.984c37.685-8.71 64.016-41.79 64.016-80.468v-20.266h33.032v20.266c0 54.137-36.847 100.468-89.613 112.653l-46.065 10.621 62.629 18.798c9.613-12.484 28.21-30.21 56.532-30.21s46.919 17.726 56.532 30.21zM825.806 270.863c-4.097-6.323-15.476-21.056-33.032-21.056-17.589 0-28.984 14.798-33.032 21.056v16.847c10.468-3.137 21.556-4.871 33.032-4.871s22.565 1.734 33.032 4.871zM792.774 315.871c-45.532 0-82.581 37.048-82.581 82.581v16.516h9.677c14.387 0 28.129 4.129 39.871 11.839 11.742-7.71 25.484-11.839 39.871-11.839h75.742v-16.516c0-45.532-37.048-82.581-82.581-82.581zM792.774 530.581c45.532 0 82.581-37.048 82.581-82.581h-75.742c-10.492 0-20.782 4.258-28.194 11.677l-11.677 11.677-11.677-11.677c-7.411-7.419-17.702-11.677-28.194-11.677h-9.677c0 45.532 37.048 82.581 82.581 82.581zM677.161 479.629c-14.613 11.065-32.766 17.919-52.387 17.919h-19.984l-20.315 40.629-15.565-10.371c-29.71-19.806-64.258-30.258-99.935-30.258h-69.75c-19.621 0-37.774-6.855-52.387-17.919v24.427c0 87.468 71.185 158.653 158.653 158.653 42.379 0 82.234-16.5 112.194-46.46l17.524-17.524 3.702-1.242c22.871-7.629 38.25-28.952 38.25-53.065zM792.774 926.968c45.532 0 82.581-37.048 82.581-82.581h-9.677c-10.492 0-20.782 4.258-28.194 11.677l-11.677 11.677-11.677-11.677c-7.411-7.419-17.702-11.677-28.194-11.677h-75.742c0 45.532 37.048 82.581 82.581 82.581zM710.194 794.839v16.516h75.742c14.387 0 28.129 4.129 39.871 11.839 11.742-7.71 25.484-11.839 39.871-11.839h9.677v-16.516c0-45.532-37.048-82.581-82.581-82.581s-82.581 37.048-82.581 82.581zM792.774 646.194c-17.589 0-28.984 14.798-33.032 21.056v16.847c10.468-3.137 21.556-4.871 33.032-4.871s22.565 1.734 33.032 4.871v-16.831c-4.097-6.339-15.476-21.073-33.032-21.073zM379.871 960h33.032v-33.032h-33.032zM379.871 893.935h33.032v-181.677h-33.032zM611.097 960h33.032v-33.032h-33.032zM611.097 893.935h33.032v-181.677h-33.032zM445.935 893.935h33.032v-115.613h-33.032zM445.935 745.29h33.032v-33.032h-33.032zM545.032 893.935h33.032v-115.613h-33.032zM545.032 745.29h33.032v-33.032h-33.032z" />
<glyph unicode="&#xe996;" glyph-name="informe" d="M976.798-24h-43.866v636.928c0 29.646-24.12 53.764-53.764 53.764h-98.048c-29.646 0-53.764-24.12-53.764-53.764v-636.928h-111.384v348.35c0 29.646-24.118 53.764-53.764 53.764h-98.048c-29.646 0-53.764-24.12-53.764-53.764v-348.35h-111.384v180.408c0 29.646-24.12 53.764-53.764 53.764h-98.050c-29.646 0-53.764-24.12-53.764-53.764v-180.408h-46.232c-11.046 0-20-8.954-20-20s8.954-20 20-20h929.596c11.046 0 20 8.954 20 20s-8.954 20-20 20zM259.008-24h-125.576v180.408c0 7.59 6.174 13.764 13.764 13.764h98.048c7.59 0 13.764-6.174 13.764-13.764v-180.408zM575.97-24h-125.576v348.35c0 7.59 6.174 13.764 13.764 13.764h98.048c7.588 0 13.764-6.174 13.764-13.764v-348.35zM892.932-24h-125.576v636.928c0 7.59 6.174 13.764 13.764 13.764h98.048c7.59 0 13.764-6.174 13.764-13.764v-636.928zM932.884 938.968c0.28 5.458-1.64 11.008-5.808 15.176s-9.718 6.090-15.176 5.808c-0.322 0.014-0.64 0.048-0.968 0.048h-121c-11.046 0-20-8.954-20-20s8.954-20 20-20h74.714l-197.714-197.716-74.56 74.56c-3.75 3.75-8.838 5.858-14.142 5.858s-10.392-2.108-14.142-5.858l-359.538-359.54c-7.81-7.81-7.81-20.474 0-28.286 3.906-3.902 9.024-5.854 14.142-5.854s10.238 1.952 14.142 5.858l345.396 345.398 74.56-74.56c7.81-7.81 20.474-7.81 28.286 0l211.856 211.854v-67.62c0-11.046 8.954-20 20-20s20 8.954 20 20v113.906c0 0.326-0.034 0.644-0.048 0.968zM171.28 353.38c0-11.046-8.954-20-20-20s-20 8.954-20 20c0 11.046 8.954 20 20 20s20-8.954 20-20z" />
<glyph unicode="&#xe997;" d="M1014.948 207.682v0c-12.070-12.070-31.638-12.070-43.706 0l-202.51 202.51 43.706 43.706 202.508-202.508c12.072-12.070 12.072-31.638 0.002-43.708z" />
<glyph unicode="&#xe998;" d="M641.014-64h-633.014c-4.418 0-8 3.582-8 8v894.68c0 4.418 3.582 8 8 8h633.014c4.418 0 8-3.582 8-8v-894.68c0-4.418-3.582-8-8-8z" />
<glyph unicode="&#xe999;" d="M182.584 7.646h-107.622c-4.418 0-8 3.582-8 8v317.778c0 4.418 3.582 8 8 8h107.622c4.418 0 8-3.582 8-8v-317.778c0-4.42-3.582-8-8-8z" />
<glyph unicode="&#xe99a;" d="M376.258 7.646h-107.622c-4.418 0-8 3.582-8 8v441.4c0 4.418 3.582 8 8 8h107.622c4.418 0 8-3.582 8-8v-441.4c0-4.42-3.582-8-8-8z" />
<glyph unicode="&#xe99b;" d="M574.052 7.646h-107.622c-4.418 0-8 3.582-8 8v396.072c0 4.418 3.582 8 8 8h107.622c4.418 0 8-3.582 8-8v-396.072c0-4.42-3.582-8-8-8z" />
<glyph unicode="&#xe99c;" d="M128.772 341.424v-333.778h53.81c4.418 0 8 3.582 8 8v317.778c0 4.418-3.582 8-8 8h-53.81z" />
<glyph unicode="&#xe99d;" d="M322.446 465.046v-457.4h53.81c4.418 0 8 3.582 8 8v441.4c0 4.418-3.582 8-8 8h-53.81z" />
<glyph unicode="&#xe99e;" d="M520.242 419.718v-412.072h53.81c4.418 0 8 3.582 8 8v396.072c0 4.418-3.582 8-8 8h-53.81z" />
<glyph unicode="&#xe99f;" d="M91.686 748.798h453.28c8.286 0 15 6.716 15 15s-6.714 15-15 15h-453.28c-8.286 0-15-6.716-15-15s6.714-15 15-15z" />
<glyph unicode="&#xe9a0;" d="M544.964 710.12h-453.278c-8.286 0-15-6.716-15-15s6.714-15 15-15h453.28c8.286 0 15 6.716 15 15s-6.716 15-15.002 15z" />
<glyph unicode="&#xe9a1;" d="M544.964 641.44h-453.278c-8.286 0-15-6.716-15-15s6.714-15 15-15h453.28c8.286 0 15 6.716 15 15s-6.716 15-15.002 15z" />
<glyph unicode="&#xe9a2;" d="M207.23 572.762h-115.544c-8.286 0-15-6.716-15-15s6.714-15 15-15h115.544c8.286 0 15 6.716 15 15s-6.714 15-15 15z" />
<glyph unicode="&#xe9a3;" d="M825.875 864.045c127.934-127.934 127.934-335.355 0-463.289s-335.355-127.934-463.289 0c-127.934 127.934-127.934 335.355 0 463.289s335.355 127.934 463.289 0z" />
<glyph unicode="&#xe9a4;" d="M782.176 444.462c-103.63-103.63-272.248-103.63-375.88 0s-103.63 272.248 0 375.88 272.248 103.63 375.88 0 103.63-272.25 0-375.88z" />
<glyph unicode="&#xe9a5;" d="M782.176 820.342c-59.672 59.672-140.892 84.974-218.846 75.926 57.424-6.666 113.076-31.968 157.034-75.926 103.63-103.63 103.63-272.248 0-375.88-43.958-43.958-99.61-69.26-157.034-75.926 77.954-9.048 159.174 16.254 218.846 75.926 103.63 103.63 103.63 272.25 0 375.88z" />
<glyph unicode="&#xe9a6;" glyph-name="logo" d="M573.173 571.775l96.303 96.303 37.195-37.195-96.303-96.303-37.195 37.195zM378.488 377.117l96.303 96.303 37.195-37.195-96.303-96.303-37.195 37.195zM511.987 632.944l96.303 96.303 37.195-37.195-96.303-96.303-37.195 37.195zM317.32 438.298l96.303 96.303 37.195-37.195-96.303-96.303-37.195 37.195zM317.315 630.887l37.195 37.195 96.303-96.303-37.195-37.195-96.303 96.303zM378.503 692.057l37.195 37.195 96.303-96.303-37.195-37.195-96.303 96.303zM573.156 497.39l37.195 37.195 96.303-96.303-37.195-37.195-96.303 96.303zM511.987 436.241l37.195 37.195 96.303-96.303-37.195-37.195-96.303 96.303zM645.503 302.746l-37.2 37.173-96.303-96.303-96.303 96.303-37.2-37.173 133.503-133.503zM317.342 630.907l-37.2 37.173-133.503-133.476 133.503-133.503 37.2 37.2-96.303 96.303zM743.858 668.080l-37.2-37.173 96.303-96.303-96.303-96.303 37.2-37.2 133.503 133.503zM608.303 729.262l37.2 37.2-133.503 133.476-133.503-133.476 37.2-37.2 96.303 96.303zM204.971 2.751c5.756 4.37 9.673 10.952 11.858 19.346l0.24 0.693-11.618 2.878-0.24-0.693c-1.386-6.209-4.024-10.952-7.834-14.176-3.917-3.118-8.634-4.717-14.283-4.717-4.61 0-8.874 1.146-12.897 3.464-3.917 2.292-6.795 5.862-8.634 10.606-1.945 4.717-2.878 10.366-2.878 16.708 0 4.956 0.799 9.78 2.425 14.39s4.37 8.287 8.181 11.059c3.917 2.638 8.874 4.024 14.629 4.024 5.063 0 9.22-1.146 12.551-3.677 3.331-2.425 5.862-6.342 7.594-11.751l0.24-0.586 11.512 2.638-0.24 0.693c-2.185 7.141-5.996 12.791-11.405 16.814-5.409 3.917-12.098 5.862-20.039 5.862-6.902 0-13.35-1.492-19.239-4.61-5.756-3.224-10.366-7.834-13.484-13.83s-4.717-13.137-4.717-21.078c0-7.381 1.386-14.39 4.157-20.732 2.771-6.449 6.902-11.512 12.338-14.869 5.303-3.464 12.311-5.196 20.838-5.196 8.154 0.053 15.189 2.345 20.945 6.742zM323.95 15.062c3.224 6.102 4.85 13.244 4.85 21.078 0 7.728-1.599 14.629-4.61 20.732-3.118 6.102-7.594 10.952-13.484 14.39-5.862 3.464-12.551 5.17-19.799 5.17-11.165 0-20.385-3.677-27.42-10.952-7.035-7.248-10.606-17.507-10.606-30.298 0-6.795 1.492-13.244 4.61-19.346 2.984-6.102 7.488-10.952 13.35-14.523s12.551-5.303 19.932-5.303c6.902 0 13.35 1.599 19.239 4.85 5.996 3.144 10.606 7.994 13.937 14.203zM290.801 6.082c-7.381 0-13.59 2.638-18.546 7.728-4.85 5.17-7.381 12.311-7.381 21.318 0 11.165 2.638 19.346 7.728 24.062 5.063 4.717 11.298 7.141 18.307 7.141 5.063 0 9.566-1.279 13.59-3.677 3.917-2.425 7.035-5.996 9.087-10.472 2.078-4.503 3.118-9.913 3.118-16.015 0-9.566-2.425-17.054-7.248-22.224-4.85-5.223-11.192-7.861-18.653-7.861zM433.604 73.82h11.165v-77.757h-11.165v77.757zM411.966-3.937l17.507 49.404v27.633l-18.546-52.868c-1.492-4.264-2.638-7.594-3.464-10.259l-3.118 9.22-18.546 54.6h-1.279v-28.219l17.161-49.537h10.286zM369.118 73.82h11.298v-77.757h-11.298v77.757zM539.34 34.062c4.37 4.61 6.555 10.259 6.555 16.921 0 3.917-0.799 7.488-2.425 10.712-1.732 3.224-3.811 5.862-6.555 7.594-2.638 1.839-5.996 3.118-9.78 3.677-2.771 0.586-6.795 0.799-11.991 0.799h-14.283v-10.366h15.082c4.61 0 7.728-0.24 9.433-0.693 2.531-0.693 4.61-2.078 6.102-4.264 1.599-2.185 2.292-4.717 2.292-7.834 0-4.157-1.279-7.381-3.917-9.673s-7.248-3.464-13.697-3.464h-15.322v-10.472h15.216c11.085 0.053 19.026 2.452 23.29 7.062zM485.113 73.82h11.645v-77.757h-11.645v77.757zM628.608 73.82h-11.965l-30.404-77.757h12.311l3.464 9.087h-0.107l8.767 23.609 1.839 4.85 6.449 17.161h0.107c1.386 3.811 2.531 7.728 3.464 11.512 1.146-3.677 2.771-8.181 4.717-13.244l7.834-20.279h-19.932l-3.571-9.566h27.18l9.087-23.156h13.244l-32.483 77.783zM751.399 15.755v-19.692h11.512v77.757h-11.272v-58.411zM700.263 73.82h10.819v-77.757h-10.819v77.757zM747.268 21.857l-32.030 46.872v-19.799l32.030-47.006zM863.584 73.82l-15.322-22.81c-2.984-4.503-5.649-8.767-7.941-12.444v0.107l-6.449-9.78v-32.829h11.751v32.829l31.684 44.927h-13.723zM833.073 50.423l-15.562 23.396h-14.283l28.113-41.25 6.555 10.153zM802.108 738.135c-46.366 46.366-108.028 71.894-173.58 71.894-65.579 0-127.214-25.528-173.58-71.921-36.24-36.24-59.77-81.807-68.297-131.318-0.879-5.010-1.572-10.019-2.132-15.109-0.56-4.983-0.933-10.019-1.172-15.056-0.213-4.024-0.293-8.047-0.293-12.098v-245.474h212.139c0.266 4.077 0.373 8.207 0.4 12.391v32.989h-167.105v200.094c0 4.157 0.133 8.287 0.4 12.391 0.32 5.063 0.799 10.046 1.492 14.976 0.693 5.063 1.572 10.073 2.665 15.002 8.234 38.212 27.447 72.374 54.147 99.074 36.24 36.24 86.257 58.677 141.444 58.677 110.346 0 200.094-89.775 200.121-200.121 0-55.186-22.464-105.203-58.677-141.444-26.674-26.674-60.862-45.887-99.074-54.147v-37.546c0-2.931-0.053-5.889-0.133-8.794 49.511 8.527 95.104 32.057 131.371 68.297 46.366 46.366 71.921 108.028 71.921 173.58-0.133 65.632-25.661 127.294-72.054 173.66zM428.434 531.566h167.105v-200.121c0-4.157-0.133-8.287-0.4-12.391-0.32-5.063-0.799-10.046-1.492-14.976-0.666-5.063-1.546-10.046-2.638-14.976-8.261-38.212-27.473-72.401-54.147-99.074-36.24-36.24-86.257-58.677-141.444-58.677-110.346 0-200.094 89.775-200.121 200.121 0 55.16 22.464 105.203 58.677 141.444 26.674 26.674 60.862 45.887 99.074 54.147v37.493c0 2.958 0.053 5.916 0.133 8.794-49.511-8.527-95.104-32.057-131.371-68.297-46.366-46.366-71.921-108.028-71.921-173.58s25.528-127.214 71.894-173.58c46.366-46.366 108.028-71.894 173.58-71.894s127.214 25.528 173.58 71.894c43.488 43.515 68.67 100.46 71.601 161.482 0.107 1.972 0.16 3.917 0.213 5.889 0.027 1.066 0.053 2.132 0.053 3.198 0 1.013 0.027 2.025 0.027 3.038v0 245.474h-212.112c-0.266-4.077-0.373-8.207-0.4-12.391l0.107-33.016z" />
<glyph unicode="&#xe9a7;" glyph-name="maletin" d="M972.629 729.6h-33.963v51.2h-170.667v-51.2h-68.267v98.884c0 30.174-24.542 54.716-54.716 54.716h-266.035c-30.174 0-54.716-24.542-54.716-54.716v-98.884h-68.267v51.2h-170.667v-51.2h-33.963c-28.314 0-51.371-23.057-51.371-51.371v-614.059c0-28.314 23.057-51.371 51.371-51.371h921.259c28.314 0 51.371 23.057 51.371 51.371v614.059c0 28.314-23.057 51.371-51.371 51.371zM802.133 746.667h102.4v-17.067h-102.4v17.067zM358.4 828.484c0 11.349 9.233 20.582 20.582 20.582h266.035c11.349 0 20.582-9.233 20.582-20.582v-98.884h-307.2v98.884zM324.267 695.467h529.067v-648.533h-682.667v648.533h153.6zM119.467 746.667h102.4v-17.067h-102.4v17.067zM34.133 64.171v614.059c0 9.506 7.731 17.237 17.237 17.237h85.163v-648.533h-85.163c-9.506 0-17.237 7.731-17.237 17.237zM989.867 64.171c0-9.506-7.731-17.237-17.237-17.237h-85.163v648.533h85.163c9.506 0 17.237-7.731 17.237-17.237v-614.059z" />
<glyph unicode="&#xe9a8;" d="M478.852 325.066l-389.068-389.066h778.134z" />
<glyph unicode="&#xe9a9;" d="M865.692-64l-387.088 389.316v-389.316z" />
<glyph unicode="&#xe9aa;" d="M957.218 859.826c0 18.7-14.692 33.392-33.392 33.392h-834.042l867.432-867.432v834.040z" />
<glyph unicode="&#xe9ab;" d="M33.392 893.218c-18.7 0-33.392-14.692-33.392-33.392v-836.268l869.658 869.66h-836.266z" />
<glyph unicode="&#xe9ac;" d="M947.532 883.534c-6.010 6.010-14.356 9.684-23.706 9.684h-445.222v-478.614l468.928 468.93z" />
<glyph unicode="&#xe9ad;" d="M525.802 461.802l431.416-431.416v-60.994c0-18.7-14.692-33.392-33.392-33.392h-60.994l-431.416 431.416 94.386 94.386z" />
<glyph unicode="&#xe9ae;" d="M957.218 859.826v-61.438l-863.056-862.388h-60.77c-18.702 0-33.392 14.694-33.392 33.392v60.774l862.388 863.052h61.438c18.702 0 33.392-14.69 33.392-33.392z" />
<glyph unicode="&#xe9af;" d="M957.218 859.826v-61.44l-478.676-478.442v188.916l383.844 384.358h61.44c18.702 0 33.392-14.692 33.392-33.392z" />
<glyph unicode="&#xe9b0;" d="M289.392 492.522c-73.63 0-133.566 59.936-133.566 133.566s59.936 133.566 133.566 133.566c18.064 0 35.608-3.586 52.044-10.566 16.956-7.24 24.848-26.868 17.608-43.828-7.24-16.892-26.804-24.848-43.828-17.608-8.086 3.458-16.824 5.218-25.824 5.218-36.848 0-66.782-29.934-66.782-66.782s29.934-66.782 66.782-66.782c24.652 0 46.238 13.434 57.848 33.392h-24.456c-18.456 0-33.392 14.934-33.392 33.392s14.934 33.392 33.392 33.392h66.782c18.456 0 33.392-14.934 33.392-33.392-0.002-73.634-59.936-133.568-133.566-133.568z" />
<glyph unicode="&#xe9b1;" d="M790.26 960c-128.87 0-233.74-104.868-233.74-233.74 0-41.086 10.826-81.456 31.238-116.738l173.608-300.654c5.934-10.304 16.956-16.696 28.892-16.696s22.958 6.392 28.892 16.696l173.608 300.654c20.416 35.282 31.242 75.652 31.242 116.738 0 128.872-104.868 233.74-233.74 233.74z" />
<glyph unicode="&#xe9b2;" d="M819.154 308.87l173.608 300.654c20.412 35.28 31.238 75.65 31.238 116.736 0 128.872-104.868 233.74-233.74 233.74v-133.566c55.238 0 100.174-44.936 100.174-100.174s-44.936-100.174-100.174-100.174v-333.914c11.934 0.002 22.958 6.394 28.894 16.698z" />
<glyph unicode="&#xe9b3;" d="M790.26 626.086c-55.238 0-100.174 44.936-100.174 100.174s44.936 100.174 100.174 100.174c55.238 0 100.174-44.936 100.174-100.174s-44.936-100.174-100.174-100.174z" />
<glyph unicode="&#xe9b4;" d="M853.385 593.067c-1.963 148.463-122.761 273.067-271.684 273.067-94.874 0-183.962-51.285-233.148-125.201-21.606 14.387-47.565 22.801-75.486 22.801-75.401 0-136.533-61.133-136.533-136.533 0-2.611 0.239-5.154 0.393-7.748-0.171-3.106-0.393-6.246-0.393-9.318-68.062-32.631-119.467-110.199-119.467-190.379 0-111.189 90.965-202.155 202.155-202.155h418.253c2.355 0 4.642 0.273 6.963 0.358 2.338-0.085 4.625-0.358 6.963-0.358h167.305c103.526 0 188.228 84.702 188.228 188.211 0 91.665-66.458 170.854-153.549 187.255z" />
<glyph unicode="&#xe9b5;" d="M818.722 200.533h-167.305c-1.775 0-3.533 0.102-5.308 0.239l-2.287 0.137-1.058-0.137c-1.775-0.137-3.516-0.239-5.308-0.239h-418.236c-120.883 0-219.221 98.355-219.221 219.238 0 81.152 48.759 162.219 119.74 200.926v0.068c-0.137 2.133-0.273 4.267-0.273 6.434 0 84.702 68.898 153.6 153.6 153.6 24.747 0 48.862-5.922 70.639-17.203 55.586 74.155 145.34 119.603 238.012 119.603 152.627 0 279.245-122.778 288.273-276.378 88.695-23.313 154.010-107.332 154.010-201.011 0-113.186-92.092-205.278-205.278-205.278zM643.84 235.008l4.625-0.188c0.99-0.068 1.963-0.154 2.97-0.154h167.305c94.345 0 171.127 76.783 171.127 171.145 0 82.193-60.041 155.477-139.639 170.479l-13.722 2.577-0.188 13.943c-1.843 141.312-116.070 256.256-254.601 256.256-85.47 0-171.401-46.148-218.948-117.589l-9.455-14.199-14.199 9.438c-19.61 13.056-42.462 19.951-66.048 19.951-65.86 0-119.467-53.606-119.467-119.467 0-1.399 0.102-2.782 0.205-4.164l0.205-3.584-0.154-2.731c-0.119-2.219-0.256-4.42-0.256-6.588v-10.752l-9.677-4.625c-63.625-30.498-109.79-104.090-109.79-174.985 0-102.076 83.029-185.105 185.088-185.105h418.27c1.007 0 1.98 0.085 2.97 0.154l3.379 0.188z" />
<glyph unicode="&#xe9b6;" d="M853.385 593.067c0 0-43.264 6.4-85.385 0z" />
<glyph unicode="&#xe9b7;" d="M767.983 576c-8.294 0-15.565 6.042-16.845 14.507-1.417 9.318 4.983 18.022 14.302 19.439 44.22 6.724 88.576 0.307 90.453 0.017 9.318-1.382 15.753-10.052 14.387-19.371-1.365-9.335-10.24-15.77-19.371-14.404-0.427 0.051-41.37 5.905-80.333 0.017-0.87-0.137-1.741-0.205-2.594-0.205z" />
<glyph unicode="&#xe9b8;" d="M136.533 627.2c0 75.401 61.133 136.533 136.533 136.533s136.533-61.133 136.533-136.533z" />
<glyph unicode="&#xe9b9;" d="M409.6 610.133c-9.438 0-17.067 7.629-17.067 17.067 0 65.86-53.606 119.467-119.467 119.467s-119.467-53.606-119.467-119.467c0-9.438-7.629-17.067-17.067-17.067s-17.067 7.629-17.067 17.067c0 84.702 68.898 153.6 153.6 153.6s153.6-68.898 153.6-153.6c0-9.438-7.629-17.067-17.067-17.067z" />
<glyph unicode="&#xe9ba;" d="M733.867 226.133c0-117.821-95.513-213.333-213.333-213.333s-213.333 95.513-213.333 213.333c0 117.821 95.513 213.333 213.333 213.333s213.333-95.513 213.333-213.333z" />
<glyph unicode="&#xe9bb;" d="M685.961 217.276c-9.387 1.929-18.227-4.198-20.053-13.449-13.995-71.134-75.127-122.761-145.391-122.761-57.19 0-108.322 34.236-132.932 85.333h90.283v34.133h-136.533v-136.533h34.133v57.020c33.724-45.346 86.801-74.086 145.067-74.086 86.494 0 161.741 63.215 178.876 150.306 1.809 9.25-4.198 18.227-13.449 20.036z" />
<glyph unicode="&#xe9bc;" d="M665.6 388.301v-57.020c-33.724 45.346-86.801 74.086-145.067 74.086-86.494 0-161.741-63.215-178.876-150.306-1.809-9.25 4.198-18.227 13.449-20.036 9.387-1.929 18.227 4.198 20.053 13.449 13.995 71.134 75.127 122.761 145.391 122.761 57.19 0 108.322-34.236 132.932-85.333h-90.283v-34.133h136.533v136.533h-34.133z" />
<glyph unicode="&#xe9bd;" glyph-name="phone-call" d="M1023.299 117.185c-3.256 24.606-17.461 45.823-38.969 58.205l-252.625 145.452c-30.941 17.815-70.192 12.628-95.447-12.624l-49.759-49.759c-13.241-13.243-34.189-14.415-48.718-2.723-39.228 31.564-77.851 66.302-114.796 103.249-36.945 36.945-71.683 75.567-103.249 114.796-11.693 14.53-10.523 35.477 2.723 48.72l49.757 49.759c25.252 25.25 30.445 64.497 12.626 95.445l-145.452 252.625c-12.385 21.51-33.599 35.713-58.205 38.969-24.609 3.262-48.788-4.945-66.34-22.497l-74.976-74.978c-52.329-52.331-53.17-148.055-2.366-269.541 48.85-116.813 140.013-245.406 256.692-362.089 116.683-116.681 245.275-207.844 362.091-256.694 59.8-25.007 113.352-37.502 158.567-37.5 46.639 0 84.402 13.298 110.975 39.869l74.976 74.978c17.549 17.551 25.75 41.731 22.497 66.338zM715.154 292.093l252.625-145.452c12.493-7.192 20.743-19.515 22.632-33.807 1.588-11.994-1.528-23.804-8.592-33.32l-335.735 191.61 13.635 13.635c14.665 14.665 37.467 17.68 55.436 7.334zM176.832 926.41c14.294-1.891 26.615-10.14 33.807-22.634l145.452-252.625c10.35-17.974 7.334-40.771-7.332-55.434l-12.524-12.524-192.663 334.625c7.876 5.832 17.295 8.999 27.114 8.999 2.037 0 4.091-0.135 6.146-0.407zM902.365-0.672c-41.574-41.574-126.602-39.831-233.282 4.782-112.925 47.223-237.729 135.847-351.429 249.544-113.699 113.699-202.323 238.506-249.546 351.429-44.615 106.682-46.356 191.71-4.782 233.286l55.66 55.662 192.953-335.131-12.94-12.94c-25.246-25.248-27.444-65.216-5.111-92.977 32.31-40.154 67.853-79.671 105.636-117.455 37.788-37.786 77.305-73.328 117.457-105.638 27.756-22.333 67.724-20.137 92.977 5.113l11.806 11.806 336.202-191.878-55.6-55.602z" />
<glyph unicode="&#xe9be;" glyph-name="pie-chart" d="M885.224 422.094h-399.022v399.022c0 16.124-12.899 29.024-29.024 29.024-251.969 0-457.070-205.101-457.070-457.070s205.101-457.070 457.070-457.070 457.070 205.101 457.070 457.070c0 15.909-13.114 29.024-29.024 29.024zM457.177-5.953c-219.935 0-399.022 179.087-399.022 399.022 0 210.261 163.393 383.113 369.999 397.948v-397.948c0-16.124 12.899-29.024 29.024-29.024h397.948c-14.834-206.606-187.687-369.999-397.948-369.999zM1023.893 504.435c-0.43 110.935-41.063 217.785-114.375 300.987-86.856 98.251-211.551 154.578-342.695 154.578-16.124 0-29.024-12.899-29.024-29.024v-428.046c0-16.124 12.899-29.024 29.024-29.024h428.046c16.124 0 29.024 12.899 29.024 29.024 0 0.43 0 0.86 0 1.505zM595.846 531.739v368.924c103.625-7.525 200.801-55.468 270.028-133.939 58.047-65.572 92.446-148.128 98.896-234.985h-368.924z" />
<glyph unicode="&#xe9bf;" d="M1024.002 447.999c0-282.77-229.231-512.001-512.001-512.001s-512.001 229.231-512.001 512.001c0 282.77 229.231 512.001 512.001 512.001s512.001-229.231 512.001-512.001z" />
<glyph unicode="&#xe9c0;" d="M931.283 447.999c0-231.563-187.719-419.282-419.282-419.282s-419.282 187.719-419.282 419.282c0 231.563 187.719 419.282 419.282 419.282s419.282-187.719 419.282-419.282z" />
<glyph unicode="&#xe9c1;" d="M512.001 411.184v0c-20.452 0-36.815 16.363-36.815 36.815v279.521c0 20.452 16.363 36.815 36.815 36.815v0c20.452 0 36.815-16.363 36.815-36.815v-279.521c0-20.452-16.363-36.815-36.815-36.815z" />
<glyph unicode="&#xe9c2;" d="M548.816 450.727v-6.137c0-19.089-14.999-34.089-34.089-34.089h-231.798c-19.089 0-34.089 14.999-34.089 34.089v6.137c0 19.089 14.999 34.089 34.089 34.089h231.798c19.089-0.002 34.089-14.999 34.089-34.089z" />
<glyph unicode="&#xe9c3;" d="M495.638 846.147h33.407v-45.678h-33.407v45.678z" />
<glyph unicode="&#xe9c4;" d="M495.638 95.531h33.407v-45.678h-33.407v45.678z" />
<glyph unicode="&#xe9c5;" d="M864.469 464.362h45.678v-33.407h-45.678v33.407z" />
<glyph unicode="&#xe9c6;" d="M113.853 464.362h45.678v-33.407h-45.678v33.407z" />
<glyph unicode="&#xe9c7;" d="M595.176 447.999c0-45.936-37.239-83.175-83.175-83.175s-83.175 37.239-83.175 83.175c0 45.936 37.239 83.175 83.175 83.175s83.175-37.239 83.175-83.175z" />
<glyph unicode="&#xe9c8;" d="M548.816 447.999c0-20.332-16.483-36.815-36.815-36.815s-36.815 16.483-36.815 36.815c0 20.332 16.483 36.815 36.815 36.815s36.815-16.483 36.815-36.815z" />
</font>
</defs>
</svg>
