<?xml version="1.0" encoding="utf-8"?>
<!-- Generator: Adobe Illustrator 23.0.0, SVG Export Plug-In . SVG Version: 6.00 Build 0)  -->
<svg version="1.1" id="Capa_1" xmlns="http://www.w3.org/2000/svg" xmlns:xlink="http://www.w3.org/1999/xlink" x="0px" y="0px"
	 viewBox="0 0 480 480" style="enable-background:new 0 0 480 480;" xml:space="preserve">
<g>
	<g>
		<rect x="168" y="168" width="16" height="16"/>
	</g>
</g>
<g>
	<g>
		<rect x="168" y="200" width="16" height="16"/>
	</g>
</g>
<g>
	<g>
		<rect x="168" y="232" width="16" height="16"/>
	</g>
</g>
<g>
	<g>
		<rect x="200" y="168" width="16" height="16"/>
	</g>
</g>
<g>
	<g>
		<rect x="200" y="200" width="16" height="16"/>
	</g>
</g>
<g>
	<g>
		<rect x="232" y="168" width="16" height="16"/>
	</g>
</g>
<g>
	<g>
		<rect x="232" y="200" width="16" height="16"/>
	</g>
</g>
<g>
	<g>
		<rect x="200" y="232" width="16" height="16"/>
	</g>
</g>
<g>
	<g>
		<rect x="232" y="232" width="16" height="16"/>
	</g>
</g>
<g>
	<g>
		<rect x="264" y="168" width="16" height="16"/>
	</g>
</g>
<g>
	<g>
		<rect x="200" y="136" width="16" height="16"/>
	</g>
</g>
<g>
	<g>
		<rect x="232" y="136" width="16" height="16"/>
	</g>
</g>
<g>
	<g>
		<rect x="264" y="136" width="16" height="16"/>
	</g>
</g>
<g>
	<g>
		<rect x="264" y="200" width="16" height="16"/>
	</g>
</g>
<g>
	<g>
		<rect x="264" y="232" width="16" height="16"/>
	</g>
</g>
<g>
	<g>
		<rect x="296" y="168" width="16" height="16"/>
	</g>
</g>
<g>
	<g>
		<rect x="296" y="200" width="16" height="16"/>
	</g>
</g>
<g>
	<g>
		<rect x="296" y="232" width="16" height="16"/>
	</g>
</g>
<g>
	<g>
		<path d="M32,480 M144,290.9V16h192v297.1l16,9.9V136h112v272h0h-14.5l0,16H472c4.4,0,8-3.6,8-8c0,0,0,0,0,0V128c0-4.4-3.6-8-8-8
			c0,0,0,0,0,0H352V8c0-4.4-3.6-8-8-8c0,0,0,0,0,0H136c-4.4,0-8,3.6-8,8c0,0,0,0,0,0v112H8c-4.4,0-8,3.6-8,8c0,0,0,0,0,0v288
			c0,4.4,3.6,8,8,8c0,0,0,0,0,0h16.7l0.3-16h-9V136h112v161.1L144,290.9z M209.4,353.5"/>
	</g>
</g>
<g>
	<g>
		<rect x="40" y="178.4" width="16" height="16"/>
	</g>
</g>
<g>
	<g>
		<rect x="88" y="178.4" width="16" height="16"/>
	</g>
</g>
<g>
	<g>
		<rect x="40" y="206.4" width="16" height="16"/>
	</g>
</g>
<g>
	<g>
		<rect x="88" y="206.4" width="16" height="16"/>
	</g>
</g>
<g>
	<g>
		<rect x="40" y="234.4" width="16" height="16"/>
	</g>
</g>
<g>
	<g>
		<rect x="88" y="234.4" width="16" height="16"/>
	</g>
</g>
<g>
	<g>
		<rect x="40" y="152" width="16" height="16"/>
	</g>
</g>
<g>
	<g>
		<rect x="88" y="152" width="16" height="16"/>
	</g>
</g>
<g>
	<g>
		<rect x="375.7" y="178.4" width="16" height="16"/>
	</g>
</g>
<g>
	<g>
		<rect x="423.7" y="178.4" width="16" height="16"/>
	</g>
</g>
<g>
	<g>
		<rect x="375.7" y="206.4" width="16" height="16"/>
	</g>
</g>
<g>
	<g>
		<rect x="423.7" y="206.4" width="16" height="16"/>
	</g>
</g>
<g>
	<g>
		<rect x="375.7" y="234.4" width="16" height="16"/>
	</g>
</g>
<g>
	<g>
		<rect x="423.7" y="234.4" width="16" height="16"/>
	</g>
</g>
<g>
	<g>
		<rect x="375.7" y="152" width="16" height="16"/>
	</g>
</g>
<g>
	<g>
		<rect x="423.7" y="152" width="16" height="16"/>
	</g>
</g>
<g>
	<g>
		<path d="M288,32C288,32,288,32,288,32h-96c-4.4,0-8,3.6-8,8c0,0,0,0,0,0v64c0,4.4,3.6,8,8,8c0,0,0,0,0,0h96c4.4,0,8-3.6,8-8
			c0,0,0,0,0,0V40C296,35.6,292.4,32,288,32z M280,96h-80V48h80V96z"/>
	</g>
</g>
<path d="M239.4,420.3v-74.7c0-7.9-5.1-14.7-12.6-17l-22.8-6.8v-5.4c6.4-4.5,10.6-11.9,10.6-20.3v-10.6c0-13.7-11.1-24.8-24.8-24.8
	s-24.8,11.1-24.8,24.8v10.6c0,8.4,4.2,15.8,10.6,20.3v5.4l-20.1,6c-7.5-6.7-17.1-10.5-27.3-10.5c-10.2,0-19.4,3.7-26.6,9.9l-18-5.4
	v-5.4c6.4-4.5,10.6-11.9,10.6-20.3v-10.6c0-13.7-11.1-24.8-24.8-24.8s-24.8,11.1-24.8,24.8v10.6c0,8.4,4.2,15.8,10.6,20.3v5.4
	l-22.8,6.8c-7.5,2.3-12.6,9.1-12.6,17v77.1H27v-77.1c0-4.7,3-8.8,7.6-10.2l22.8-6.8c2.1,2.7,6,6.5,12.1,6.5c6.1,0,10.1-3.8,12.1-6.5
	l14.5,4.4c-4.6,5.8-7.7,12.9-8.6,20.6c-4.5-4.8-10.9-7.8-18-7.8c-13.7,0-24.8,11.1-24.8,24.8v10.6c0,8.4,4.2,15.8,10.6,20.3v5.4
	l-22.8,6.8c-7.5,2.3-12.6,9.1-12.6,17v32h42.5c2,0,3.5,1.6,3.5,3.5v14.2h127.5v-14.2c0-2,1.6-3.5,3.5-3.5h42.5v-32
	c0-7.9-5.1-14.7-12.6-17l-22.8-6.8v-5.4c6.4-4.5,10.6-11.9,10.6-20.3v-10.6c0-13.7-11.1-24.8-24.8-24.8c-6.9,0-13.2,2.9-17.7,7.5
	v-3.4c0-7-3.8-13.3-9.7-16.6l15.3-4.6c2.1,2.7,6,6.5,12.1,6.5c6.1,0,10.1-3.8,12.1-6.5l22.8,6.8c4.5,1.4,7.6,5.4,7.6,10.2v74.7
	H239.4z M69.5,267.8c9.8,0,17.7,7.9,17.7,17.7H70.9c-2.2,0-4.5-0.9-6-2.5l-2.5-2.5l-2.5,2.5c-1.6,1.6-3.8,2.5-6,2.5h-2.1
	C51.8,275.7,59.7,267.8,69.5,267.8z M51.8,296.1v-3.5h2.1c3.1,0,6-0.9,8.5-2.5c2.5,1.7,5.5,2.5,8.5,2.5h16.2v3.5
	c0,9.8-7.9,17.7-17.7,17.7C59.7,313.8,51.8,305.9,51.8,296.1z M69.5,328c-3.8,0-6.2-3.2-7.1-4.5v-3.6c2.2,0.7,4.6,1,7.1,1
	c2.5,0,4.8-0.4,7.1-1v3.6C75.7,324.8,73.2,328,69.5,328z M166.8,390.1c1.8,4.6,4.9,8.5,8.9,11.3v5.4l-22.8,6.8
	c-0.8,0.2-1.5,0.5-2.2,0.8l-3.3-0.8v-7c3.8-3,6.8-7,8.6-11.6C160,394.7,163.9,393,166.8,390.1z M129.7,413c3.8,0,7.3-0.8,10.6-2.1
	v3.9l-10.6,8l-10.6-8v-3.9C122.3,412.2,125.9,413,129.7,413z M114.7,420.3l8.6,6.5l-8.9,5.3l-2.2-11.2L114.7,420.3z M125.7,448.4
	h7.8l2.8,24.8H123L125.7,448.4z M134.2,441.3h-9.1l-2-6.1l6.6-3.9l6.6,3.9L134.2,441.3z M136,426.8l8.6-6.5l2.5,0.6l-2.2,11.2
	L136,426.8z M162.3,384.7c-1.2,1.3-2.8,2.3-4.5,2.9c0.1-1,0.2-1.9,0.2-2.9v-16.9c3.8,1.4,6.6,4.8,7,8.8
	C165.3,379.6,164.3,382.5,162.3,384.7z M150.9,384.6c0,11.7-9.5,21.2-21.2,21.2s-21.2-9.5-21.2-21.2v-17.7h12
	c7.7,0,15.2-1.9,21.9-5.6l2.8,5.6h5.7V384.6z M101.5,387.6c-1.7-0.6-3.2-1.5-4.5-2.9c-2-2.2-3-5.2-2.7-8.2c0.4-4,3.2-7.4,7-8.8v16.9
	C101.3,385.6,101.4,386.6,101.5,387.6z M103.4,395.1c1.8,4.6,4.8,8.6,8.6,11.6v7l-3.3,0.8c-0.7-0.3-1.4-0.6-2.2-0.8l-22.8-6.8v-5.4
	c4-2.8,7.1-6.7,8.9-11.3C95.5,393,99.3,394.7,103.4,395.1z M69.5,352.8c9.8,0,17.7,7.9,17.7,17.7h-2.1c-2.2,0-4.5-0.9-6-2.5
	l-2.5-2.5L74,368c-1.6,1.6-3.8,2.5-6,2.5H51.8C51.8,360.7,59.7,352.8,69.5,352.8z M51.8,381.1v-3.5H68c3.1,0,6-0.9,8.5-2.5
	c2.5,1.7,5.5,2.5,8.5,2.5h2.1v3.5c0,9.8-7.9,17.7-17.7,17.7C59.7,398.8,51.8,390.9,51.8,381.1z M69.5,405.9c2.5,0,4.8-0.4,7.1-1v3.6
	c-0.9,1.4-3.3,4.5-7.1,4.5c-3.8,0-6.2-3.2-7.1-4.5v-3.6C64.6,405.5,67,405.9,69.5,405.9z M62.4,455.5H48.2v-24.8h-7.1v24.8H27v-24.9
	c0-4.7,3-8.8,7.6-10.2l22.8-6.8c2.1,2.7,6,6.5,12.1,6.5c6.1,0,10.1-3.8,12.1-6.5l13.4,4l-9.9,2.3c-11.3,2.6-19.2,12.5-19.2,24.2v4.3
	H73V444c0-8.3,5.6-15.4,13.7-17.3l18.6-4.3l4.2,20.9l7.4-4.4l2.1,6.3l-3.1,27.9H97.8v-28.3h-7.1v28.3H73v-7.1
	C73,460.2,68.2,455.5,62.4,455.5z M224.8,420.4c4.5,1.4,7.6,5.4,7.6,10.2v24.9h-14.2v-24.8h-7.1v24.8h-14.2
	c-5.9,0-10.6,4.8-10.6,10.6v7.1h-17.7v-28.3h-7.1v28.3h-18.1l-3.1-27.9l2.1-6.3l7.4,4.4l4.2-20.9l18.6,4.3c8.1,1.9,13.7,9,13.7,17.3
	v4.3h7.1V444c0-11.6-7.9-21.5-19.2-24.2l-9.9-2.3l13.4-4c2.1,2.7,6,6.5,12.1,6.5c6.1,0,10.1-3.8,12.1-6.5L224.8,420.4z M196.9,408.5
	c-0.9,1.4-3.3,4.5-7.1,4.5c-3.8,0-6.2-3.2-7.1-4.5v-3.6c2.2,0.7,4.6,1,7.1,1c2.5,0,4.8-0.4,7.1-1V408.5z M189.8,398.8
	c-9.8,0-17.7-7.9-17.7-17.7v-3.5h2.1c3.1,0,6-0.9,8.5-2.5c2.5,1.7,5.5,2.5,8.5,2.5h16.2v3.5C207.5,390.9,199.6,398.8,189.8,398.8z
	 M189.8,352.8c9.8,0,17.7,7.9,17.7,17.7h-16.2c-2.2,0-4.5-0.9-6-2.5l-2.5-2.5l-2.5,2.5c-1.6,1.6-3.8,2.5-6,2.5h-2.1
	C172.1,360.7,180.1,352.8,189.8,352.8z M165.1,363.7c-3.1-2.4-7-3.8-11.2-3.8h-4.3l-4.4-8.7l-3.3,2.2c-6.4,4.2-13.8,6.5-21.4,6.5
	h-15c-4.2,0-8.1,1.5-11.2,3.8v-5.2c0-18.8,15.3-34,34-34c9.1,0,17.6,3.5,24.1,10l3.8,3.8l0.8,0.3c4.9,1.6,8.2,6.2,8.2,11.4V363.7z
	 M189.8,267.8c9.8,0,17.7,7.9,17.7,17.7h-2.1c-2.2,0-4.5-0.9-6-2.5l-2.5-2.5l-2.5,2.5c-1.6,1.6-3.8,2.5-6,2.5h-16.2
	C172.1,275.7,180.1,267.8,189.8,267.8z M172.1,296.1v-3.5h16.2c3.1,0,6-0.9,8.5-2.5c2.5,1.7,5.5,2.5,8.5,2.5h2.1v3.5
	c0,9.8-7.9,17.7-17.7,17.7S172.1,305.9,172.1,296.1z M189.8,328c-3.8,0-6.2-3.2-7.1-4.5v-3.6c2.2,0.7,4.6,1,7.1,1
	c2.5,0,4.8-0.4,7.1-1v3.6C196,324.8,193.6,328,189.8,328z"/>
<path d="M453.6,420.3v-74.7c0-7.9-5.1-14.7-12.6-17l-22.8-6.8v-5.4c6.4-4.5,10.6-11.9,10.6-20.3v-10.6c0-13.7-11.1-24.8-24.8-24.8
	c-13.7,0-24.8,11.1-24.8,24.8v10.6c0,8.4,4.2,15.8,10.6,20.3v5.4l-20.1,6c-7.5-6.7-17.1-10.5-27.3-10.5c-10.2,0-19.4,3.7-26.6,9.9
	l-18-5.4v-5.4c6.4-4.5,10.6-11.9,10.6-20.3v-10.6c0-13.7-11.1-24.8-24.8-24.8c-13.7,0-24.8,11.1-24.8,24.8v10.6
	c0,8.4,4.2,15.8,10.6,20.3v5.4l-22.8,6.8c-7.5,2.3-12.6,9.1-12.6,17v74.7h7.1v-74.7c0-4.7,3-8.8,7.6-10.2l22.8-6.8
	c2.1,2.7,6,6.5,12.1,6.5s10.1-3.8,12.1-6.5l14.5,4.4c-4.6,5.8-7.7,12.9-8.6,20.6c-4.5-4.8-10.9-7.8-18-7.8
	c-13.7,0-24.8,11.1-24.8,24.8v10.6c0,8.4,4.2,15.8,10.6,20.3v5.4l-22.8,6.8c-7.5,2.3-12.6,9.1-12.6,17v32h42.5c2,0,3.5,1.6,3.5,3.5
	v14.2h127.5v-14.2c0-2,1.6-3.5,3.5-3.5h42.5v-32c0-7.9-5.1-14.7-12.6-17l-22.8-6.8v-5.4c6.4-4.5,10.6-11.9,10.6-20.3v-10.6
	c0-13.7-11.1-24.8-24.8-24.8c-6.9,0-13.2,2.9-17.7,7.5v-3.4c0-7-3.8-13.3-9.7-16.6l15.3-4.6c2.1,2.7,6,6.5,12.1,6.5
	s10.1-3.8,12.1-6.5l22.8,6.8c4.5,1.4,7.6,5.4,7.6,10.2v74.7H453.6z M283.7,267.8c9.8,0,17.7,7.9,17.7,17.7h-16.2
	c-2.2,0-4.5-0.9-6-2.5l-2.5-2.5l-2.5,2.5c-1.6,1.6-3.8,2.5-6,2.5H266C266,275.7,273.9,267.8,283.7,267.8z M266,296.1v-3.5h2.1
	c3.1,0,6-0.9,8.5-2.5c2.5,1.7,5.5,2.5,8.5,2.5h16.2v3.5c0,9.8-7.9,17.7-17.7,17.7C273.9,313.8,266,305.9,266,296.1z M283.7,328
	c-3.8,0-6.2-3.2-7.1-4.5v-3.6c2.2,0.7,4.6,1,7.1,1c2.5,0,4.8-0.4,7.1-1v3.6C289.9,324.8,287.4,328,283.7,328z M381,390.1
	c1.8,4.6,4.9,8.5,8.9,11.3v5.4l-22.8,6.8c-0.8,0.2-1.5,0.5-2.2,0.8l-3.3-0.8v-7c3.8-3,6.8-7,8.6-11.6
	C374.2,394.7,378.1,393,381,390.1z M343.9,413c3.8,0,7.3-0.8,10.6-2.1v3.9l-10.6,8l-10.6-8v-3.9C336.5,412.2,340.1,413,343.9,413z
	 M328.9,420.3l8.6,6.5l-8.9,5.3l-2.2-11.2L328.9,420.3z M340,448.4h7.8l2.8,24.8h-13.3L340,448.4z M348.4,441.3h-9.1l-2-6.1l6.6-3.9
	l6.6,3.9L348.4,441.3z M350.2,426.8l8.6-6.5l2.5,0.6l-2.2,11.2L350.2,426.8z M376.5,384.7c-1.2,1.3-2.8,2.3-4.5,2.9
	c0.1-1,0.2-1.9,0.2-2.9v-16.9c3.8,1.4,6.6,4.8,7,8.8C379.5,379.6,378.5,382.5,376.5,384.7z M365.1,384.6c0,11.7-9.5,21.2-21.2,21.2
	s-21.2-9.5-21.2-21.2v-17.7h12c7.7,0,15.2-1.9,21.9-5.6l2.8,5.6h5.7V384.6z M315.7,387.6c-1.7-0.6-3.2-1.5-4.5-2.9
	c-2-2.2-3-5.2-2.7-8.2c0.4-4,3.2-7.4,7-8.8v16.9C315.5,385.6,315.6,386.6,315.7,387.6z M317.6,395.1c1.8,4.6,4.8,8.6,8.6,11.6v7
	l-3.3,0.8c-0.7-0.3-1.4-0.6-2.2-0.8l-22.8-6.8v-5.4c4-2.8,7.1-6.7,8.9-11.3C309.7,393,313.5,394.7,317.6,395.1z M283.7,352.8
	c9.8,0,17.7,7.9,17.7,17.7h-2.1c-2.2,0-4.5-0.9-6-2.5l-2.5-2.5l-2.5,2.5c-1.6,1.6-3.8,2.5-6,2.5H266
	C266,360.7,273.9,352.8,283.7,352.8z M266,381.1v-3.5h16.2c3.1,0,6-0.9,8.5-2.5c2.5,1.7,5.5,2.5,8.5,2.5h2.1v3.5
	c0,9.8-7.9,17.7-17.7,17.7C273.9,398.8,266,390.9,266,381.1z M283.7,405.9c2.5,0,4.8-0.4,7.1-1v3.6c-0.9,1.4-3.3,4.5-7.1,4.5
	c-3.8,0-6.2-3.2-7.1-4.5v-3.6C278.8,405.5,281.2,405.9,283.7,405.9z M276.6,455.5h-14.2v-24.8h-7.1v24.8h-14.2v-24.9
	c0-4.7,3-8.8,7.6-10.2l22.8-6.8c2.1,2.7,6,6.5,12.1,6.5s10.1-3.8,12.1-6.5l13.4,4l-9.9,2.3c-11.3,2.6-19.2,12.5-19.2,24.2v4.3h7.1
	V444c0-8.3,5.6-15.4,13.7-17.3l18.6-4.3l4.2,20.9l7.4-4.4l2.1,6.3l-3.1,27.9H312v-28.3h-7.1v28.3h-17.7v-7.1
	C287.2,460.2,282.4,455.5,276.6,455.5z M439,420.4c4.5,1.4,7.6,5.4,7.6,10.2v24.9h-14.2v-24.8h-7.1v24.8h-14.2
	c-5.9,0-10.6,4.8-10.6,10.6v7.1h-17.7v-28.3h-7.1v28.3h-18.1l-3.1-27.9l2.1-6.3l7.4,4.4l4.2-20.9l18.6,4.3c8.1,1.9,13.7,9,13.7,17.3
	v4.3h7.1V444c0-11.6-7.9-21.5-19.2-24.2l-9.9-2.3l13.4-4c2.1,2.7,6,6.5,12.1,6.5s10.1-3.8,12.1-6.5L439,420.4z M411.1,408.5
	c-0.9,1.4-3.3,4.5-7.1,4.5c-3.8,0-6.2-3.2-7.1-4.5v-3.6c2.2,0.7,4.6,1,7.1,1c2.5,0,4.8-0.4,7.1-1V408.5z M404.1,398.8
	c-9.8,0-17.7-7.9-17.7-17.7v-3.5h2.1c3.1,0,6-0.9,8.5-2.5c2.5,1.7,5.5,2.5,8.5,2.5h16.2v3.5C421.8,390.9,413.8,398.8,404.1,398.8z
	 M404.1,352.8c9.8,0,17.7,7.9,17.7,17.7h-16.2c-2.2,0-4.5-0.9-6-2.5l-2.5-2.5l-2.5,2.5c-1.6,1.6-3.8,2.5-6,2.5h-2.1
	C386.4,360.7,394.3,352.8,404.1,352.8z M379.3,363.7c-3.1-2.4-7-3.8-11.2-3.8h-4.3l-4.4-8.7l-3.3,2.2c-6.4,4.2-13.8,6.5-21.4,6.5
	h-15c-4.2,0-8.1,1.5-11.2,3.8v-5.2c0-18.8,15.3-34,34-34c9.1,0,17.6,3.5,24.1,10l3.8,3.8l0.8,0.3c4.9,1.6,8.2,6.2,8.2,11.4V363.7z
	 M404.1,267.8c9.8,0,17.7,7.9,17.7,17.7h-2.1c-2.2,0-4.5-0.9-6-2.5l-2.5-2.5l-2.5,2.5c-1.6,1.6-3.8,2.5-6,2.5h-16.2
	C386.4,275.7,394.3,267.8,404.1,267.8z M386.4,296.1v-3.5h16.2c3.1,0,6-0.9,8.5-2.5c2.5,1.7,5.5,2.5,8.5,2.5h2.1v3.5
	c0,9.8-7.9,17.7-17.7,17.7C394.3,313.8,386.4,305.9,386.4,296.1z M404.1,328c-3.8,0-6.2-3.2-7.1-4.5v-3.6c2.2,0.7,4.6,1,7.1,1
	c2.5,0,4.8-0.4,7.1-1v3.6C410.3,324.8,407.8,328,404.1,328z"/>
</svg>
