<?xml version="1.0" encoding="utf-8"?>
<!-- Generator: Adobe Illustrator 23.0.0, SVG Export Plug-In . SVG Version: 6.00 Build 0)  -->
<svg version="1.1" xmlns="http://www.w3.org/2000/svg" xmlns:xlink="http://www.w3.org/1999/xlink" x="0px" y="0px"
	 viewBox="0 0 384.28 384.28" style="enable-background:new 0 0 384.28 384.28;" xml:space="preserve">
<g id="Capa_1">
	<g>
		<g>
			<g>
				
					<rect x="214.59" y="124.73" transform="matrix(0.7071 -0.7071 0.7071 0.7071 -24.8366 209.2307)" width="51.11" height="19.74"/>
				
					<rect x="141.53" y="197.78" transform="matrix(0.7071 -0.7071 0.7071 0.7071 -97.8896 178.9662)" width="51.11" height="19.74"/>
				
					<rect x="191.63" y="101.77" transform="matrix(0.7071 -0.7071 0.7071 0.7071 -15.3282 186.2753)" width="51.11" height="19.74"/>
				
					<rect x="118.58" y="174.82" transform="matrix(0.7071 -0.7071 0.7071 0.7071 -88.3815 156.0135)" width="51.11" height="19.74"/>
				
					<rect x="134.26" y="109.04" transform="matrix(0.7071 -0.7071 0.7071 0.7071 -52.9574 141.3404)" width="19.74" height="51.11"/>
				<rect x="157.22" y="86.09" transform="matrix(0.7071 -0.7071 0.7071 0.7071 -30.0024 150.8478)" width="19.74" height="51.11"/>
				
					<rect x="230.27" y="159.14" transform="matrix(0.7071 -0.7071 0.7071 0.7071 -60.2615 223.9013)" width="19.74" height="51.11"/>
				<rect x="207.32" y="182.09" transform="matrix(0.7071 -0.7071 0.7071 0.7071 -83.2167 214.393)" width="19.74" height="51.11"/>
			</g>
			<polygon points="242.24,246.65 228.28,232.7 192.14,268.84 156,232.7 142.04,246.65 192.14,296.75 			"/>
			<polygon points="119.09,123.5 105.13,109.55 55.03,159.64 105.13,209.74 119.09,195.78 82.95,159.64 			"/>
			<polygon points="279.15,109.55 265.19,123.5 301.33,159.64 265.19,195.78 279.15,209.74 329.25,159.64 			"/>
			<polygon points="228.28,86.59 242.24,72.63 192.14,22.54 142.04,72.63 156,86.59 192.14,50.45 			"/>
		</g>
		<g>
			<path d="M76.92,359.23c2.16-1.64,3.63-4.11,4.45-7.26l0.09-0.26l-4.36-1.08l-0.09,0.26c-0.52,2.33-1.51,4.11-2.94,5.32
				c-1.47,1.17-3.24,1.77-5.36,1.77c-1.73,0-3.33-0.43-4.84-1.3c-1.47-0.86-2.55-2.2-3.24-3.98c-0.73-1.77-1.08-3.89-1.08-6.27
				c0-1.86,0.3-3.67,0.91-5.4c0.61-1.73,1.64-3.11,3.07-4.15c1.47-0.99,3.33-1.51,5.49-1.51c1.9,0,3.46,0.43,4.71,1.38
				c1.25,0.91,2.2,2.38,2.85,4.41l0.09,0.22l4.32-0.99l-0.09-0.26c-0.82-2.68-2.25-4.8-4.28-6.31c-2.03-1.47-4.54-2.2-7.52-2.2
				c-2.59,0-5.01,0.56-7.22,1.73c-2.16,1.21-3.89,2.94-5.06,5.19c-1.17,2.25-1.77,4.93-1.77,7.91c0,2.77,0.52,5.4,1.56,7.78
				c1.04,2.42,2.59,4.32,4.63,5.58c1.99,1.3,4.62,1.95,7.82,1.95C72.12,361.74,74.76,360.88,76.92,359.23z"/>
			<path d="M121.57,354.61c1.21-2.29,1.82-4.97,1.82-7.91c0-2.9-0.6-5.49-1.73-7.78c-1.17-2.29-2.85-4.11-5.06-5.4
				c-2.2-1.3-4.71-1.94-7.43-1.94c-4.19,0-7.65,1.38-10.29,4.11c-2.64,2.72-3.98,6.57-3.98,11.37c0,2.55,0.56,4.97,1.73,7.26
				c1.12,2.29,2.81,4.11,5.01,5.45s4.71,1.99,7.48,1.99c2.59,0,5.01-0.6,7.22-1.82C118.59,358.76,120.32,356.94,121.57,354.61z
				 M109.13,357.98c-2.77,0-5.1-0.99-6.96-2.9c-1.82-1.94-2.77-4.62-2.77-8c0-4.19,0.99-7.26,2.9-9.03c1.9-1.77,4.24-2.68,6.87-2.68
				c1.9,0,3.59,0.48,5.1,1.38c1.47,0.91,2.64,2.25,3.41,3.93c0.78,1.69,1.17,3.72,1.17,6.01c0,3.59-0.91,6.4-2.72,8.34
				C114.31,356.99,111.93,357.98,109.13,357.98z"/>
			<rect x="162.72" y="332.56" width="4.19" height="29.18"/>
			<path d="M154.6,361.74l6.57-18.54v-10.37l-6.96,19.84c-0.56,1.6-0.99,2.85-1.3,3.85l-1.17-3.46l-6.96-20.49h-0.48v10.59
				l6.44,18.59H154.6z"/>
			<rect x="138.52" y="332.56" width="4.24" height="29.18"/>
			<path d="M202.4,347.48c1.64-1.73,2.46-3.85,2.46-6.35c0-1.47-0.3-2.81-0.91-4.02c-0.65-1.21-1.43-2.2-2.46-2.85
				c-0.99-0.69-2.25-1.17-3.67-1.38c-1.04-0.22-2.55-0.3-4.5-0.3h-5.36v3.89h5.66c1.73,0,2.9,0.09,3.54,0.26
				c0.95,0.26,1.73,0.78,2.29,1.6c0.6,0.82,0.86,1.77,0.86,2.94c0,1.56-0.48,2.77-1.47,3.63c-0.99,0.86-2.72,1.3-5.14,1.3h-5.75
				v3.93h5.71C197.82,350.11,200.8,349.21,202.4,347.48z"/>
			<rect x="182.05" y="332.56" width="4.37" height="29.18"/>
			<path d="M235.9,332.56h-4.49L220,361.74h4.62l1.3-3.41h-0.04l3.29-8.86l0.69-1.82l2.42-6.44h0.04c0.52-1.43,0.95-2.9,1.3-4.32
				c0.43,1.38,1.04,3.07,1.77,4.97l2.94,7.61h-7.48l-1.34,3.59h10.2l3.41,8.69h4.97L235.9,332.56z"/>
			<polygon points="281.98,354.35 281.98,361.74 286.3,361.74 286.3,332.56 282.07,332.56 282.07,354.48 			"/>
			<rect x="262.79" y="332.56" width="4.06" height="29.18"/>
			<polygon points="280.43,352.06 268.41,334.47 268.41,341.9 280.43,359.54 			"/>
			<path d="M324.08,332.56l-5.75,8.56c-1.12,1.69-2.12,3.29-2.98,4.67v-0.04l-2.42,3.67v12.32h4.41v-12.32l11.89-16.86H324.08z"/>
			<polygon points="312.63,341.34 306.79,332.56 301.43,332.56 311.98,348.04 314.44,344.23 			"/>
		</g>
	</g>
</g>
<g id="Capa_2">
	<g>
		<path d="M301.01,83.26c-17.4-17.4-40.54-26.98-65.14-26.98c-24.61,0-47.74,9.58-65.14,26.99c-13.6,13.6-22.43,30.7-25.63,49.28
			c-0.33,1.88-0.59,3.76-0.8,5.67c-0.21,1.87-0.35,3.76-0.44,5.65c-0.08,1.51-0.11,3.02-0.11,4.54l0,12.52v5.64l0,5.64l0,68.32
			l68.33,0h5.64h5.64c0.1-1.53,0.14-3.08,0.15-4.65V223.5l-5.62,0h-57.09l0-51.47v-11.24l0-12.38c0-1.56,0.05-3.11,0.15-4.65
			c0.12-1.9,0.3-3.77,0.56-5.62c0.26-1.9,0.59-3.78,1-5.63c3.09-14.34,10.3-27.16,20.32-37.18c13.6-13.6,32.37-22.02,53.08-22.02
			c41.41,0,75.09,33.69,75.1,75.1c0,20.71-8.43,39.48-22.02,53.08c-10.01,10.01-22.84,17.22-37.18,20.32v1.56l0,12.53
			c0,1.1-0.02,2.21-0.05,3.3c18.58-3.2,35.69-12.03,49.3-25.63c17.4-17.4,26.99-40.54,26.99-65.14
			C328,123.8,318.42,100.66,301.01,83.26z"/>
		<path d="M160.78,160.78h5.62h5.62l51.47,0l0,51.48v5.62v5.62v12.38c0,1.56-0.05,3.11-0.15,4.65c-0.12,1.9-0.3,3.77-0.56,5.62
			c-0.25,1.9-0.58,3.77-0.99,5.62c-3.1,14.34-10.31,27.17-20.32,37.18c-13.6,13.6-32.37,22.02-53.08,22.02
			c-41.41,0-75.09-33.69-75.1-75.1c0-20.7,8.43-39.48,22.02-53.08c10.01-10.01,22.84-17.22,37.18-20.32V148.4
			c0-1.11,0.02-2.22,0.05-3.3c-18.58,3.2-35.69,12.03-49.3,25.63c-17.4,17.4-26.99,40.54-26.99,65.14c0,24.6,9.58,47.74,26.98,65.14
			c17.4,17.4,40.54,26.98,65.14,26.98c24.6,0,47.74-9.58,65.14-26.98c16.32-16.33,25.77-37.7,26.87-60.6
			c0.04-0.74,0.06-1.47,0.08-2.21c0.01-0.4,0.02-0.8,0.02-1.2c0-0.38,0.01-0.76,0.01-1.14l0,0v-12.52l0-79.6l-68.33,0l-5.63,0
			l-5.64,0c-0.1,1.53-0.14,3.08-0.15,4.65L160.78,160.78z"/>
	</g>
	<text transform="matrix(1 0 0 1 -590.8672 160.7109)" style="font-family:'Microsoft-Yi-Baiti'; font-size:108.3146px;">TAQUION</text>
	<text transform="matrix(1 0 0 1 -590.8672 261.7109)" style="font-family:'NEOTERIC'; font-size:108.3146px;">TAQUION</text>
	<text transform="matrix(1 0 0 1 -590.8672 420.7109)" style="font-family:'Neou-Thin'; font-size:108.3146px;">TAQUION</text>
</g>
</svg>
